<svg width="28" height="28" viewBox="0 0 28 28" fill="none" xmlns="http://www.w3.org/2000/svg">
<path d="M11.6319 6.50646L12.3345 8.45771C13.115 10.6233 14.8204 12.3287 16.986 13.1092L18.9373 13.8118C19.1131 13.8757 19.1131 14.1251 18.9373 14.1881L16.986 14.8907C14.8204 15.6712 13.115 17.3766 12.3345 19.5422L11.6319 21.4935C11.568 21.6693 11.3186 21.6693 11.2556 21.4935L10.553 19.5422C9.77252 17.3766 8.06714 15.6712 5.90152 14.8907L3.95027 14.1881C3.77439 14.1242 3.77439 13.8748 3.95027 13.8118L5.90152 13.1092C8.06714 12.3287 9.77252 10.6233 10.553 8.45771L11.2556 6.50646C11.3186 6.32971 11.568 6.32971 11.6319 6.50646Z" fill="white"/>
<path d="M20.4142 1.81735L20.7703 2.80522C21.1658 3.9016 22.0295 4.76522 23.1258 5.16072L24.1137 5.51685C24.203 5.54922 24.203 5.67522 24.1137 5.7076L23.1258 6.06372C22.0295 6.45922 21.1658 7.32285 20.7703 8.41922L20.4142 9.4071C20.3818 9.49635 20.2558 9.49635 20.2235 9.4071L19.8673 8.41922C19.4718 7.32285 18.6082 6.45922 17.5118 6.06372L16.524 5.7076C16.4347 5.67522 16.4347 5.54922 16.524 5.51685L17.5118 5.16072C18.6082 4.76522 19.4718 3.9016 19.8673 2.80522L20.2235 1.81735C20.2558 1.72722 20.3827 1.72722 20.4142 1.81735Z" fill="white"/>
<path d="M20.4142 18.5937L20.7703 19.5815C21.1658 20.6779 22.0295 21.5415 23.1258 21.937L24.1137 22.2932C24.203 22.3255 24.203 22.4515 24.1137 22.4839L23.1258 22.84C22.0295 23.2355 21.1658 24.0992 20.7703 25.1955L20.4142 26.1834C20.3818 26.2727 20.2558 26.2727 20.2235 26.1834L19.8673 25.1955C19.4718 24.0992 18.6082 23.2355 17.5118 22.84L16.524 22.4839C16.4347 22.4515 16.4347 22.3255 16.524 22.2932L17.5118 21.937C18.6082 21.5415 19.4718 20.6779 19.8673 19.5815L20.2235 18.5937C20.2558 18.5044 20.3827 18.5044 20.4142 18.5937Z" fill="white"/>
</svg>
