<svg width="389" height="56" viewBox="0 0 389 56" fill="none" xmlns="http://www.w3.org/2000/svg">
<path d="M36.2374 32.1546C43.5111 30.5914 47.1466 25.5349 47.144 16.9851C47.144 11.3655 45.613 7.25887 42.5511 4.66504C39.4892 2.07121 34.7264 0.776944 28.2626 0.782243H0.311096V23.9439H11.6558V10.3839H25.5977C29.1828 10.3839 31.7163 10.8171 33.1662 11.6676C34.8313 12.6691 35.6651 14.4906 35.6678 17.1321C35.6678 19.767 34.8313 21.5912 33.1662 22.5887C31.6738 23.4948 29.1509 23.9479 25.5977 23.9479H11.6558C8.55162 24.2426 5.66903 25.6813 3.57118 27.983C1.47334 30.2847 0.310952 33.2841 0.311096 36.3951V54.6764H11.6558V33.4939H25.0281L36.9345 54.6764H49.7133L36.2374 32.1546Z" fill="#00B67A"/>
<path d="M91.8843 46.4092H113.96C117.705 46.4092 119.578 45.1268 119.581 42.5621C119.584 39.9974 117.71 38.7032 113.96 38.6793H104.922C99.8551 38.6793 96.3657 37.9706 94.4536 36.5531C92.2973 34.9396 91.2204 31.9219 91.2231 27.4999C91.2231 19.2415 95.8877 15.1123 105.217 15.1123H127.699V23.3588H109.228C106.559 23.3588 104.76 23.5429 103.831 23.9112C102.604 24.4013 101.992 25.4148 101.994 26.9515C101.994 29.3201 103.647 30.5044 106.954 30.5044H116.43C125.316 30.5044 129.76 34.4256 129.763 42.268C129.763 45.9614 128.74 48.9487 126.695 51.2299C125.734 52.3369 124.539 53.218 123.196 53.8103C121.853 54.4025 120.395 54.6912 118.928 54.6556H91.8843V46.4092Z" fill="#00B67A"/>
<path d="M162.203 22.9892V15.1123H133.312V22.9892H140.693V42.2641C140.693 50.5224 144.684 54.653 152.667 54.6556H162.227V46.7668H157.925C155.332 46.7668 153.543 46.1627 152.524 44.9347C151.616 43.7901 151.169 41.7991 151.169 38.9734V22.9971L162.203 22.9892Z" fill="#00B67A"/>
<path d="M168.361 15.1123H185.956C190.093 15.1123 192.982 15.8515 194.623 17.3299C196.265 18.8083 197.085 21.3929 197.085 25.0836V31.6688H187.095V26.5858C187.095 24.9008 186.751 23.8132 186.063 23.323C185.501 22.9256 184.314 22.6991 182.502 22.6991H178.829V54.6556H168.361V15.1123Z" fill="#00B67A"/>
<path d="M239.66 54.6556H219.934C214.203 54.6556 210.027 53.5256 207.406 51.2656C204.785 49.0056 203.474 45.3109 203.474 40.1816V15.1123H213.871V39.3549C213.871 42.0044 214.332 43.7637 215.253 44.6327C216.175 45.5017 218.011 45.9362 220.762 45.9362H229.191V15.1123H239.664L239.66 54.6556Z" fill="#00B67A"/>
<path d="M261.444 0.782227V22.6403H282.269V0.782227H293.622V54.6525H282.269V32.1506H261.444V54.6525H250.091V0.782227H261.444Z" fill="#00B67A"/>
<path d="M339.645 54.6556H319.92C314.192 54.6556 310.017 53.5256 307.396 51.2656C304.775 49.0056 303.464 45.3109 303.464 40.1816V15.1123H313.861V39.3549C313.861 42.0044 314.32 43.7637 315.239 44.6327C316.158 45.5017 317.994 45.9362 320.748 45.9362H329.181V15.1123H339.649L339.645 54.6556Z" fill="#00B67A"/>
<path d="M384.274 21.1898C382.585 18.9932 380.31 17.3168 377.709 16.3532C375.383 15.5265 372.329 15.1132 368.547 15.1132H368.097L359.549 23.6538H365.922C370.062 23.6538 373.014 24.495 374.777 26.1774C376.636 27.9393 377.566 30.9332 377.566 35.1591C377.566 39.2366 376.74 42.0954 375.088 43.7354C373.436 45.3754 370.648 46.1928 366.723 46.1875H359.557V0.782227H349.08V54.6565H369.252C375.36 54.6565 380.104 52.8602 383.485 49.2675C386.866 45.6748 388.561 40.715 388.572 34.3881C388.572 29.1845 387.139 24.7851 384.274 21.1898Z" fill="#00B67A"/>
<path d="M85.817 23.2686C85.6284 20.3277 84.8251 18.2187 83.407 16.9417C82.8851 16.4831 82.2935 16.1102 81.6543 15.8368C80.4742 15.339 79.2029 15.0926 77.9219 15.1135H70.5406C64.8603 15.1135 60.3922 16.3217 57.1365 18.738C52.7707 21.9545 50.5891 27.3421 50.5917 34.9011C50.5944 42.46 52.776 47.8398 57.1365 51.0403C59.3247 52.6697 62.0613 53.7454 65.3463 54.2674C67.0586 54.541 68.7906 54.6739 70.5247 54.6648H85.801V46.4104H71.9029C70.4682 46.4266 69.0342 46.3362 67.6128 46.1401C66.557 46.0304 65.5356 45.7028 64.6133 45.1784C63.1209 44.2034 62.3242 42.1633 62.2233 39.0581H85.8369V31.3084V31.3481L85.8807 24.7073C85.8688 24.1946 85.8528 23.7177 85.817 23.2686ZM75.8585 30.7957H62.2233C62.231 29.502 62.4628 28.2193 62.9084 27.0043L62.9363 26.9527C63.0262 26.7279 63.13 26.5089 63.247 26.2969C63.2829 26.2373 63.3227 26.1857 63.3585 26.126C63.4502 25.9713 63.55 25.8214 63.6573 25.677C63.7234 25.5938 63.7939 25.5142 63.8684 25.4385C63.9522 25.3372 64.0413 25.2403 64.1353 25.1484C64.3052 24.9884 64.4877 24.8422 64.681 24.7112C64.7766 24.6476 64.8762 24.588 64.9798 24.5284C65.7486 24.1185 66.6098 23.9119 67.4814 23.9283H73.6477C74.2439 23.9283 74.8157 24.1643 75.2377 24.5846C75.6597 25.0048 75.8972 25.5749 75.8983 26.1698V30.7957H75.8585Z" fill="#00B67A"/>
<path d="M140.658 0.396484V10.0458L151.118 15.7409V0.396484H140.658Z" fill="#005128"/>
</svg>
