<svg width="153" height="22" viewBox="0 0 153 22" fill="none" xmlns="http://www.w3.org/2000/svg">
<g clip-path="url(#clip0_104_1260)">
<path d="M14.2253 12.6322C17.0807 12.0181 18.5078 10.0316 18.5068 6.67278C18.5068 4.46511 17.9058 2.85177 16.7038 1.83276C15.5018 0.81376 13.6321 0.305298 11.0947 0.307379H0.12207V9.4066H4.57556V4.07947H10.0486C11.456 4.07947 12.4505 4.24965 13.0197 4.58376C13.6733 4.97721 14.0007 5.6928 14.0017 6.73054C14.0017 7.76568 13.6733 8.48232 13.0197 8.8742C12.4338 9.23018 11.4434 9.40817 10.0486 9.40817H4.57556C3.35697 9.52394 2.22538 10.0891 1.40185 10.9934C0.578321 11.8976 0.122014 13.0759 0.12207 14.2981V21.4801H4.57556V13.1584H9.82499L14.499 21.4801H19.5154L14.2253 12.6322Z" fill="#00B67A"/>
<path d="M36.0701 18.232H44.7363C46.2062 18.232 46.9417 17.7282 46.9427 16.7206C46.9438 15.7131 46.2083 15.2046 44.7363 15.1952H41.1882C39.1991 15.1952 37.8293 14.9168 37.0787 14.3599C36.2322 13.7261 35.8095 12.5405 35.8105 10.8033C35.8105 7.55895 37.6417 5.93677 41.3039 5.93677H50.1296V9.17645H42.8786C41.8309 9.17645 41.1246 9.24879 40.7597 9.39347C40.2781 9.58603 40.0378 9.98416 40.0389 10.5879C40.0389 11.5184 40.6878 11.9837 41.9857 11.9837H45.7058C49.194 11.9837 50.9385 13.5241 50.9396 16.6051C50.9396 18.0561 50.5382 19.2296 49.7355 20.1258C49.3581 20.5607 48.8889 20.9069 48.3618 21.1395C47.8346 21.3722 47.2625 21.4856 46.6863 21.4716H36.0701V18.232Z" fill="#00B67A"/>
<path d="M63.6746 9.03125V5.93677H52.3329V9.03125H55.2305V16.6035C55.2305 19.8479 56.7974 21.4706 59.9311 21.4716H63.684V18.3725H61.9952C60.9772 18.3725 60.2751 18.1352 59.8748 17.6527C59.5183 17.2031 59.3431 16.4209 59.3431 15.3108V9.03437L63.6746 9.03125Z" fill="#00B67A"/>
<path d="M66.0918 5.93677H72.9988C74.623 5.93677 75.7572 6.22717 76.4014 6.80797C77.0457 7.38877 77.3678 8.40413 77.3678 9.85405V12.4411H73.446V10.4442C73.446 9.78224 73.311 9.35496 73.041 9.1624C72.8205 9.00627 72.3545 8.91728 71.643 8.91728H70.2013V21.4716H66.0918V5.93677Z" fill="#00B67A"/>
<path d="M94.0809 21.4716H86.3373C84.0876 21.4716 82.4483 21.0277 81.4194 20.1399C80.3904 19.252 79.876 17.8005 79.876 15.7854V5.93677H83.9573V15.4607C83.9573 16.5015 84.1382 17.1927 84.4999 17.5341C84.8617 17.8755 85.5825 18.0462 86.6625 18.0462H89.9714V5.93677H94.0824L94.0809 21.4716Z" fill="#00B67A"/>
<path d="M102.632 0.307352V8.89447H110.808V0.307352H115.264V21.4707H110.808V12.6306H102.632V21.4707H98.1758V0.307352H102.632Z" fill="#00B67A"/>
<path d="M133.331 21.4716H125.588C123.339 21.4716 121.7 21.0277 120.671 20.1399C119.642 19.252 119.128 17.8005 119.128 15.7854V5.93677H123.209V15.4607C123.209 16.5015 123.39 17.1927 123.75 17.5341C124.111 17.8755 124.832 18.0462 125.913 18.0462H129.223V5.93677H133.333L133.331 21.4716Z" fill="#00B67A"/>
<path d="M150.851 8.32472C150.188 7.4618 149.295 6.80319 148.274 6.42462C147.36 6.09988 146.161 5.9375 144.677 5.9375H144.5L141.144 9.29272H143.646C145.272 9.29272 146.43 9.6232 147.123 10.2841C147.852 10.9763 148.217 12.1525 148.217 13.8127C148.217 15.4146 147.893 16.5376 147.245 17.1819C146.596 17.8262 145.502 18.1473 143.961 18.1453H141.148V0.307474H137.035V21.4724H144.954C147.351 21.4724 149.214 20.7667 150.541 19.3553C151.868 17.9439 152.534 15.9954 152.538 13.5098C152.538 11.4655 151.975 9.73717 150.851 8.32472Z" fill="#00B67A"/>
<path d="M33.6884 9.14102C33.6144 7.98567 33.299 7.15714 32.7423 6.65544C32.5374 6.47529 32.3052 6.32878 32.0543 6.2214C31.591 6.02583 31.092 5.92904 30.5891 5.93725H27.6915C25.4616 5.93725 23.7076 6.41188 22.4296 7.36115C20.7157 8.62476 19.8593 10.7414 19.8604 13.7109C19.8614 16.6805 20.7178 18.794 22.4296 20.0513C23.2886 20.6915 24.3628 21.1141 25.6524 21.3191C26.3246 21.4266 27.0045 21.4788 27.6852 21.4752H33.6821V18.2324H28.2263C27.663 18.2388 27.1001 18.2033 26.5422 18.1263C26.1277 18.0831 25.7267 17.9545 25.3647 17.7484C24.7788 17.3654 24.466 16.5639 24.4264 15.344H33.6962V12.2995V12.3151L33.7134 9.70621C33.7087 9.50481 33.7025 9.31745 33.6884 9.14102ZM29.7791 12.0981H24.4264C24.4295 11.5899 24.5205 11.086 24.6954 10.6086L24.7063 10.5883C24.7416 10.5 24.7824 10.414 24.8283 10.3307C24.8424 10.3073 24.858 10.287 24.8721 10.2636C24.9081 10.2028 24.9472 10.1439 24.9894 10.0872C25.0153 10.0545 25.043 10.0232 25.0723 9.99349C25.1051 9.95368 25.1401 9.91563 25.177 9.87952C25.2437 9.81666 25.3154 9.75923 25.3912 9.70777C25.4288 9.68279 25.4679 9.65937 25.5085 9.63595C25.8103 9.47491 26.1484 9.39374 26.4905 9.4002H28.9112C29.1452 9.4002 29.3697 9.49292 29.5354 9.65802C29.701 9.82311 29.7943 10.0471 29.7947 10.2808V12.0981H29.7791Z" fill="#00B67A"/>
<path d="M55.2166 0.155699V3.94652L59.3229 6.18385V0.155699H55.2166Z" fill="#005128"/>
</g>
<defs>
<clipPath id="clip0_104_1260">
<rect width="152.706" height="22" fill="white"/>
</clipPath>
</defs>
</svg>
