<svg width="131" height="132" viewBox="0 0 131 132" fill="none" xmlns="http://www.w3.org/2000/svg">
<path d="M0 9L7 0L16 9H0Z" fill="#E15D04"/>
<path d="M121 132L130 123L121 114V132Z" fill="#E15D04"/>
<path d="M63.5219 0H7L130 123L130.274 67.19L63.5219 0Z" fill="#F37927"/>
<path d="M52.3695 9.66318L54.2022 11.4785L50.6661 19.8436L50.763 19.9395L59.2076 16.4368L61.0402 18.2521L52.7732 26.4413L51.3362 25.0178L57.0157 19.3917L56.939 19.3158L48.9989 22.6546L47.9252 21.591L51.3079 13.7137L51.2312 13.6378L45.5396 19.2758L44.1025 17.8523L52.3695 9.66318ZM56.9228 30.7917C56.3174 30.1919 55.9258 29.5402 55.7482 28.8364C55.5706 28.1327 55.5988 27.4222 55.833 26.7052C56.0698 25.9907 56.5084 25.3163 57.1489 24.6819C57.7894 24.0474 58.4716 23.6116 59.1955 23.3743C59.9221 23.1398 60.6406 23.1104 61.351 23.2864C62.0615 23.4623 62.7194 23.8502 63.3249 24.45C63.9304 25.0497 64.322 25.7015 64.4996 26.4053C64.6772 27.109 64.6463 27.8194 64.4068 28.5365C64.1699 29.2563 63.7313 29.9334 63.0908 30.5678C62.4503 31.2022 61.7681 31.6354 61.0442 31.8673C60.323 32.1019 59.6072 32.1312 58.8968 31.9553C58.1863 31.7794 57.5283 31.3915 56.9228 30.7917ZM58.1015 29.6401C58.4299 29.9653 58.7945 30.1479 59.1955 30.1879C59.5991 30.2252 60.0082 30.1453 60.4226 29.948C60.8397 29.7534 61.2367 29.4695 61.6134 29.0963C61.9928 28.7204 62.2808 28.3259 62.4772 27.9127C62.6791 27.4995 62.7612 27.093 62.7235 26.6932C62.6858 26.2933 62.5028 25.9308 62.1745 25.6055C61.8381 25.2723 61.4667 25.0857 61.0604 25.0457C60.6567 25.0084 60.245 25.0884 59.8252 25.2857C59.4108 25.4829 59.0138 25.7695 58.6344 26.1454C58.2576 26.5186 57.9697 26.9104 57.7705 27.3209C57.5741 27.7341 57.4947 28.1407 57.5324 28.5405C57.5754 28.9404 57.7652 29.3069 58.1015 29.6401ZM70.717 35.1792L69.2396 34.0036C69.3365 33.833 69.397 33.6424 69.4213 33.4318C69.4482 33.2239 69.4199 33.0066 69.3365 32.78C69.2531 32.5534 69.0983 32.3282 68.8723 32.1043C68.5682 31.803 68.2466 31.6151 67.9075 31.5405C67.5711 31.4685 67.2993 31.5378 67.0921 31.7484C66.9091 31.9243 66.8284 32.1349 66.8499 32.3802C66.8741 32.6281 67.0073 32.944 67.2495 33.3278L68.0811 34.5994C68.5413 35.3058 68.7767 35.9362 68.7875 36.4907C68.801 37.0478 68.587 37.5477 68.1457 37.9902C67.7528 38.374 67.2939 38.602 66.7692 38.6739C66.2498 38.7459 65.7076 38.6673 65.1424 38.438C64.5773 38.2088 64.0364 37.8382 63.5197 37.3264C62.7608 36.5747 62.3087 35.8123 62.1634 35.0392C62.0208 34.2635 62.1903 33.5491 62.672 32.896L64.2342 34.1715C64.0189 34.5127 63.9449 34.8579 64.0122 35.2072C64.0794 35.5564 64.2813 35.8976 64.6177 36.2308C64.9648 36.5747 65.3147 36.7799 65.6672 36.8466C66.0224 36.9159 66.305 36.8466 66.5149 36.6387C66.6925 36.4627 66.7705 36.2495 66.749 35.9989C66.7302 35.751 66.6091 35.4551 66.3857 35.1112L65.5501 33.8436C65.0792 33.1319 64.8478 32.4894 64.8558 31.9163C64.8666 31.3405 65.0994 30.83 65.5542 30.3849C65.9336 30.0037 66.3682 29.7784 66.858 29.7091C67.3532 29.6398 67.8658 29.7158 68.3959 29.937C68.9315 30.1583 69.4468 30.5141 69.942 31.0046C70.6686 31.7244 71.0857 32.4441 71.1933 33.1639C71.3037 33.8863 71.1449 34.5581 70.717 35.1792ZM76.7901 37.9482L75.6599 39.0678L72.0955 35.537L73.2258 34.4174L76.7901 37.9482ZM75.5912 33.8176L77.0525 35.2651L71.2317 41.0311C71.0352 41.2257 70.9141 41.4043 70.8684 41.5669C70.828 41.7295 70.8388 41.8788 70.9007 42.0148C70.9626 42.1507 71.0541 42.2787 71.1752 42.3986C71.2667 42.4893 71.3568 42.5652 71.4456 42.6265C71.5371 42.6905 71.6084 42.7372 71.6596 42.7665L70.7634 44.142C70.6585 44.0914 70.5172 44.01 70.3396 43.8981C70.1647 43.7888 69.9709 43.6342 69.7583 43.4343C69.3816 43.0824 69.1071 42.7012 68.9348 42.2907C68.7653 41.8775 68.7236 41.4576 68.8097 41.0311C68.8985 40.6072 69.138 40.2047 69.5282 39.8235L75.5912 33.8176ZM74.6961 48.1576L82.9631 39.9685L86.0633 43.0394C86.6984 43.6685 87.1128 44.3136 87.3065 44.9747C87.503 45.6385 87.5043 46.2849 87.3106 46.914C87.1222 47.5431 86.7656 48.1176 86.2409 48.6374C85.7107 49.1626 85.1281 49.5184 84.493 49.705C83.8579 49.8916 83.204 49.8863 82.5312 49.689C81.8611 49.4891 81.2072 49.0733 80.5694 48.4415L78.5148 46.4062L79.7459 45.1866L81.5987 47.022C81.9701 47.3899 82.3388 47.6271 82.7048 47.7337C83.0708 47.8404 83.4233 47.8377 83.7624 47.7257C84.1041 47.6164 84.4217 47.4165 84.715 47.1259C85.0083 46.8354 85.2088 46.5222 85.3165 46.1863C85.4268 45.8531 85.4241 45.5065 85.3084 45.1466C85.1981 44.7868 84.9559 44.4216 84.5818 44.051L83.2094 42.6915L76.1937 49.6411L74.6961 48.1576ZM84.4415 58.0511C83.836 57.4513 83.4445 56.7995 83.2669 56.0958C83.0893 55.392 83.1175 54.6816 83.3516 53.9645C83.5885 53.2501 84.0271 52.5757 84.6676 51.9412C85.3081 51.3068 85.9903 50.871 86.7142 50.6337C87.4408 50.3991 88.1593 50.3698 88.8697 50.5457C89.5802 50.7217 90.2381 51.1095 90.8436 51.7093C91.4491 52.3091 91.8407 52.9609 92.0183 53.6646C92.1959 54.3684 92.165 55.0788 91.9254 55.7959C91.6886 56.5156 91.25 57.1927 90.6095 57.8272C89.969 58.4616 89.2868 58.8948 88.5629 59.1267C87.8417 59.3613 87.1259 59.3906 86.4154 59.2147C85.705 59.0387 85.047 58.6509 84.4415 58.0511ZM85.6202 56.8995C85.9485 57.2247 86.3132 57.4073 86.7142 57.4473C87.1178 57.4846 87.5269 57.4047 87.9413 57.2074C88.3584 57.0128 88.7553 56.7289 89.1321 56.3557C89.5115 55.9798 89.7995 55.5853 89.9959 55.1721C90.1978 54.7589 90.2798 54.3524 90.2422 53.9525C90.2045 53.5527 90.0215 53.1901 89.6932 52.8649C89.3568 52.5317 88.9854 52.3451 88.5791 52.3051C88.1754 52.2678 87.7637 52.3478 87.3439 52.545C86.9294 52.7423 86.5325 53.0289 86.1531 53.4047C85.7763 53.7779 85.4884 54.1698 85.2892 54.5803C85.0928 54.9935 85.0134 55.4 85.0511 55.7999C85.0941 56.1997 85.2838 56.5663 85.6202 56.8995ZM86.4488 64.4058L94.9741 55.9608L96.4111 57.3843L95.3858 58.4L95.4706 58.4839C95.6967 58.4093 95.9631 58.356 96.2699 58.324C96.5793 58.2893 96.9117 58.328 97.2669 58.44C97.6248 58.5492 97.9854 58.7838 98.3487 59.1437C98.8277 59.6182 99.1372 60.1673 99.2772 60.7911C99.4225 61.4149 99.37 62.0747 99.1197 62.7704C98.8748 63.4662 98.4079 64.1553 97.719 64.8377C97.0382 65.5121 96.3479 65.9746 95.6482 66.2252C94.9485 66.4758 94.2812 66.5344 93.6461 66.4011C93.011 66.2679 92.4499 65.96 91.9628 65.4775C91.6076 65.1256 91.3721 64.775 91.2564 64.4258C91.1407 64.0766 91.0949 63.7487 91.1191 63.4422C91.1487 63.1356 91.1999 62.8691 91.2725 62.6425L91.212 62.5825L87.91 65.8533L86.4488 64.4058ZM93.307 60.4512C92.906 60.8484 92.6113 61.2523 92.423 61.6628C92.2373 62.076 92.1673 62.4732 92.2131 62.8544C92.2642 63.2356 92.4445 63.5795 92.754 63.886C93.0769 64.2059 93.4335 64.3885 93.8237 64.4338C94.2166 64.4765 94.6189 64.4032 95.0306 64.2139C95.4477 64.0246 95.8501 63.7381 96.2376 63.3542C96.6224 62.973 96.909 62.5798 97.0974 62.1746C97.2857 61.7694 97.3557 61.3749 97.3073 60.9911C97.2588 60.6072 97.0718 60.254 96.7462 59.9314C96.434 59.6222 96.0869 59.4409 95.7047 59.3876C95.3226 59.3343 94.927 59.3983 94.518 59.5796C94.1116 59.7635 93.708 60.054 93.307 60.4512ZM102.438 70.4717L106.03 66.913L107.492 68.3604L101.291 74.5023L99.8746 73.0988L100.977 72.0072L100.912 71.9432C100.425 72.1484 99.9109 72.2018 99.37 72.1031C98.8318 72.0072 98.3299 71.7286 97.8643 71.2674C97.458 70.8649 97.1889 70.4197 97.057 69.9319C96.9305 69.4441 96.9534 68.9416 97.1256 68.4244C97.3005 67.9046 97.6356 67.3995 98.1307 66.909L102.079 62.9983L103.54 64.4458L99.8181 68.1325C99.4252 68.5217 99.2206 68.9376 99.2045 69.3801C99.1883 69.8226 99.3552 70.2171 99.705 70.5637C99.9203 70.7769 100.181 70.9315 100.488 71.0275C100.795 71.1235 101.117 71.1328 101.453 71.0555C101.795 70.9782 102.123 70.7836 102.438 70.4717ZM112.522 69.2491L104.255 77.4382L102.794 75.9908L111.061 67.8016L112.522 69.2491ZM107.417 80.8181C107.024 80.4289 106.74 80.009 106.565 79.5585C106.396 79.108 106.358 78.6548 106.452 78.199C106.549 77.7458 106.801 77.318 107.207 76.9154C107.557 76.5689 107.911 76.3463 108.269 76.2477C108.627 76.149 108.986 76.1424 109.347 76.2277C109.707 76.313 110.062 76.4596 110.412 76.6675C110.767 76.8754 111.112 77.1127 111.446 77.3793C111.847 77.7018 112.175 77.9604 112.43 78.155C112.689 78.3469 112.901 78.4615 113.068 78.4989C113.241 78.5362 113.397 78.4855 113.537 78.3469L113.561 78.3229C113.865 78.0217 114.01 77.6992 113.997 77.3553C113.983 77.0114 113.807 76.6715 113.468 76.3356C113.11 75.9811 112.748 75.7772 112.382 75.7238C112.019 75.6732 111.694 75.7172 111.409 75.8558L110.239 74.3123C110.723 74.0458 111.215 73.9098 111.716 73.9045C112.219 73.8965 112.713 74.0071 113.197 74.2364C113.685 74.463 114.145 74.7908 114.578 75.22C114.877 75.5159 115.139 75.8451 115.365 76.2077C115.591 76.5702 115.746 76.9527 115.829 77.3553C115.915 77.7551 115.895 78.1643 115.769 78.5828C115.645 79.004 115.377 79.4185 114.966 79.8264L110.816 83.9369L109.411 82.5454L110.263 81.7017L110.214 81.6538C109.953 81.7364 109.667 81.7724 109.355 81.7617C109.048 81.7511 108.728 81.6711 108.394 81.5218C108.066 81.3725 107.74 81.1379 107.417 80.8181ZM108.87 80.1303C109.164 80.4209 109.476 80.6155 109.807 80.7141C110.14 80.8101 110.462 80.8194 110.771 80.7421C111.084 80.6674 111.354 80.5168 111.583 80.2902L112.313 79.5665C112.23 79.5585 112.117 79.5158 111.974 79.4385C111.834 79.3639 111.685 79.2719 111.526 79.1626C111.368 79.0533 111.213 78.9427 111.062 78.8308C110.911 78.7188 110.781 78.6215 110.671 78.5389C110.423 78.3523 110.179 78.207 109.94 78.103C109.7 77.999 109.47 77.9577 109.25 77.9791C109.032 77.9977 108.828 78.1003 108.64 78.2869C108.371 78.5535 108.266 78.8521 108.325 79.1826C108.384 79.5132 108.566 79.8291 108.87 80.1303ZM112.285 85.3924L118.485 79.2506L119.902 80.6541L118.869 81.6777L118.934 81.7417C119.404 81.4991 119.874 81.4178 120.342 81.4978C120.816 81.5778 121.23 81.7937 121.586 82.1456C121.666 82.2256 121.752 82.3189 121.844 82.4255C121.941 82.5321 122.016 82.6254 122.07 82.7054L120.726 84.0369C120.685 83.9543 120.606 83.8383 120.488 83.689C120.375 83.5398 120.256 83.4038 120.132 83.2812C119.866 83.0173 119.569 82.8373 119.24 82.7414C118.917 82.6454 118.594 82.6374 118.271 82.7174C117.949 82.7974 117.655 82.968 117.392 83.2292L113.746 86.8399L112.285 85.3924Z" fill="white"/>
</svg>
