<svg width="20" height="20" viewBox="0 0 20 20" fill="none" xmlns="http://www.w3.org/2000/svg">
<g clip-path="url(#clip0_104_1325)">
<path d="M9.08155 1.53288C9.24417 1.1419 9.79803 1.1419 9.96065 1.53288L11.9278 6.26247C11.9964 6.4273 12.1514 6.53992 12.3293 6.55418L17.4353 6.96353C17.8574 6.99737 18.0285 7.52412 17.707 7.7996L13.8167 11.132C13.6812 11.2481 13.6219 11.4304 13.6634 11.604L14.8519 16.5866C14.9501 16.9985 14.5021 17.324 14.1407 17.1033L9.76925 14.4332C9.6169 14.3402 9.4253 14.3402 9.27296 14.4332L4.90152 17.1033C4.54015 17.324 4.09206 16.9985 4.19031 16.5866L5.37884 11.604C5.42026 11.4304 5.36105 11.2481 5.22547 11.132L1.33525 7.7996C1.01366 7.52413 1.18481 6.99737 1.60691 6.96353L6.7129 6.55418C6.89084 6.53992 7.04585 6.4273 7.1144 6.26247L9.08155 1.53288Z" fill="#FFBF0F"/>
<g clip-path="url(#clip1_104_1325)">
<path d="M9.08155 1.53288C9.24417 1.1419 9.79803 1.1419 9.96065 1.53288L11.9278 6.26247C11.9964 6.4273 12.1514 6.53992 12.3293 6.55418L17.4353 6.96353C17.8574 6.99737 18.0285 7.52412 17.707 7.7996L13.8167 11.132C13.6812 11.2481 13.6219 11.4304 13.6634 11.604L14.8519 16.5866C14.9501 16.9985 14.5021 17.324 14.1407 17.1033L9.76925 14.4332C9.6169 14.3402 9.4253 14.3402 9.27296 14.4332L4.90152 17.1033C4.54015 17.324 4.09206 16.9985 4.19031 16.5866L5.37884 11.604C5.42026 11.4304 5.36105 11.2481 5.22547 11.132L1.33525 7.7996C1.01366 7.52413 1.18481 6.99737 1.60691 6.96353L6.7129 6.55418C6.89084 6.53992 7.04585 6.4273 7.1144 6.26247L9.08155 1.53288Z" fill="#FFBF0F"/>
</g>
</g>
<defs>
<clipPath id="clip0_104_1325">
<rect width="19.0422" height="19.0422" fill="white"/>
</clipPath>
<clipPath id="clip1_104_1325">
<rect width="19.0422" height="19.0422" fill="white"/>
</clipPath>
</defs>
</svg>
