<svg width="38" height="37" viewBox="0 0 38 37" fill="none" xmlns="http://www.w3.org/2000/svg">
<path d="M23.6621 15.9697C23.6621 15.3485 23.1584 14.8447 22.5371 14.8447H10.1621C9.54086 14.8447 9.03711 15.3485 9.03711 15.9697C9.03711 16.591 9.54086 17.0947 10.1621 17.0947H22.5371C23.1584 17.0947 23.6621 16.591 23.6621 15.9697Z" fill="#005128"/>
<path d="M10.16 20.5259C9.53875 20.5259 9.035 21.0296 9.035 21.6509C9.035 22.2721 9.53875 22.7759 10.16 22.7759H16.7213C17.3425 22.7759 17.8463 22.2721 17.8463 21.6509C17.8463 21.0296 17.3425 20.5259 16.7213 20.5259H10.16Z" fill="#005128"/>
<path d="M31.075 16.032C30.4537 16.032 29.95 16.5357 29.95 17.157V26.2557C29.95 27.9582 28.565 29.3432 26.8625 29.3432H19.3375C19.0937 29.3432 18.8562 29.422 18.6612 29.5695L12.1637 34.4557C11.9987 34.5795 11.8437 34.5282 11.7662 34.4857C11.6875 34.4457 11.5575 34.347 11.5625 34.1457L11.6875 30.5082C11.6975 30.2032 11.5837 29.907 11.3725 29.6882C11.1612 29.4682 10.8687 29.3445 10.5637 29.3445H5.3375C3.635 29.3445 2.25 27.9607 2.25 26.257V11.382C2.25 9.6732 3.635 8.2832 5.3375 8.2832H19.2C19.8212 8.2832 20.325 7.77945 20.325 7.1582C20.325 6.53695 19.8212 6.0332 19.2 6.0332H5.3375C2.395 6.0332 0 8.4332 0 11.3832V26.257C0 29.1995 2.395 31.5957 5.3375 31.5957H9.39875L9.31375 34.0732C9.28375 35.0907 9.825 36.0157 10.7287 36.4845C11.115 36.6857 11.5312 36.7845 11.9437 36.7845C12.4975 36.7845 13.0462 36.6057 13.5137 36.257L19.7125 31.5957H26.8613C29.8038 31.5957 32.1987 29.2007 32.1987 26.257V17.1582C32.2 16.5357 31.6962 16.032 31.075 16.032Z" fill="#005128"/>
<path d="M37.1562 5.31594C36.9525 4.69094 36.4512 4.22344 35.815 4.06594L32.94 3.34969L31.37 0.837188C30.6737 -0.280312 28.8562 -0.277812 28.1612 0.837188L26.5912 3.34969L23.7162 4.06594C23.08 4.22344 22.5775 4.69094 22.375 5.31594C22.1725 5.94094 22.3025 6.61469 22.725 7.11844L24.63 9.38594L24.4225 12.3409C24.3762 12.9959 24.6662 13.6172 25.1975 14.0034C25.5275 14.2434 25.915 14.3672 26.3075 14.3672C26.5462 14.3672 26.7875 14.3209 27.0187 14.2272L29.7662 13.1172L32.5125 14.2272C33.1212 14.4747 33.8012 14.3897 34.3337 14.0047C34.865 13.6184 35.155 12.9972 35.11 12.3409L34.9025 9.38594L36.8075 7.11719C37.2287 6.61469 37.36 5.94094 37.1562 5.31594ZM32.8862 8.28719C32.6987 8.51094 32.605 8.79844 32.6262 9.09094L32.8262 11.9284L30.1887 10.8622C30.0537 10.8072 29.91 10.7797 29.7675 10.7797C29.625 10.7797 29.4812 10.8072 29.3462 10.8622L26.71 11.9284L26.9087 9.09094C26.9287 8.79969 26.835 8.51094 26.6487 8.28719L24.82 6.10969L27.58 5.42094C27.8625 5.34969 28.1075 5.17344 28.2612 4.92594L29.7687 2.51469L31.2762 4.92594C31.4312 5.17344 31.675 5.35094 31.9575 5.42094L34.7175 6.10969L32.8862 8.28719Z" fill="#005128"/>
</svg>
