<svg width="40" height="40" viewBox="0 0 40 40" fill="none" xmlns="http://www.w3.org/2000/svg">
<g clip-path="url(#clip0_118_2449)">
<path d="M15.742 40C15.5863 40 15.4288 39.9689 15.2784 39.904C14.7517 39.6769 14.4669 39.102 14.6052 38.5454L18.568 22.5941H7.89065C7.50417 22.5941 7.14253 22.4035 6.92402 22.0847C6.7055 21.7659 6.65824 21.3598 6.79769 20.9994L14.6306 0.749138C14.8052 0.297655 15.2395 0 15.7235 0H26.5017C26.8977 0 27.2669 0.199999 27.4833 0.531717C27.6996 0.863434 27.7338 1.28195 27.5741 1.64437L22.9359 12.1725H32.1093C32.5379 12.1725 32.9323 12.4064 33.1377 12.7826C33.3432 13.1587 33.327 13.617 33.0953 13.9776L16.7285 39.4613C16.5072 39.8059 16.1308 40 15.742 40ZM9.60041 20.2504H20.0665C20.4271 20.2504 20.7676 20.4164 20.9897 20.7004C21.2118 20.9844 21.2908 21.3549 21.2038 21.7048L18.5902 32.2254L29.9639 14.5161H21.139C20.743 14.5161 20.3738 14.3161 20.1575 13.9844C19.9412 13.6527 19.9069 13.2342 20.0666 12.8718L24.7049 2.34374H16.5267L9.60041 20.2504Z" fill="#005128"/>
</g>
<defs>
<clipPath id="clip0_118_2449">
<rect width="40" height="40" fill="white"/>
</clipPath>
</defs>
</svg>
