<svg width="40" height="40" viewBox="0 0 40 40" fill="none" xmlns="http://www.w3.org/2000/svg">
<g clip-path="url(#clip0_104_2372)">
<path d="M40 18.8281H37.7996C37.6242 16.1059 36.8397 13.5015 35.5105 11.1741C36.2959 10.2443 36.7708 9.04398 36.7708 7.73438C36.7708 4.7907 34.3759 2.39586 31.4323 2.39586C29.9885 2.39586 28.6777 2.97289 27.7158 3.90727C25.6821 2.93023 23.4691 2.34836 21.1719 2.20031V0H18.8281V2.20031C14.5044 2.47891 10.4778 4.29469 7.38625 7.38625C4.29477 10.4777 2.47891 14.5044 2.20039 18.8281H0V21.1719H2.20039C2.37328 23.8553 3.13812 26.4242 4.43305 28.7262C3.82758 29.4634 3.46359 30.4061 3.46359 31.4323C3.46359 33.7873 5.37945 35.7031 7.73438 35.7031C8.65398 35.7031 9.50594 35.41 10.2038 34.9136C12.7673 36.605 15.7208 37.5995 18.8281 37.7997V40H21.1719V37.7997C25.4956 37.5211 29.5222 35.7052 32.6137 32.6137C35.7052 29.5223 37.521 25.4956 37.7996 21.1719H40V18.8281ZM31.4323 4.73961C33.0836 4.73961 34.427 6.08305 34.427 7.73438C34.427 9.3857 33.0836 10.7291 31.4323 10.7291C29.7809 10.7291 28.4375 9.3857 28.4375 7.73438C28.4375 6.08305 29.7809 4.73961 31.4323 4.73961ZM26.4191 5.89867C26.2087 6.47133 26.0938 7.08969 26.0938 7.73438C26.0938 10.678 28.4886 13.0729 31.4323 13.0729C32.2091 13.0729 32.947 12.9048 33.6134 12.6051C34.6359 14.4801 35.2823 16.5884 35.4506 18.828H28.5923C28.0705 14.982 25.0179 11.9294 21.1718 11.4075V4.5493C23.0309 4.68898 24.7993 5.15836 26.4191 5.89867ZM18.8281 18.8281H13.7824C14.2623 16.277 16.277 14.2623 18.8281 13.7824V18.8281ZM18.8281 21.1719V26.2176C16.277 25.7377 14.2623 23.723 13.7824 21.1719H18.8281ZM21.1719 21.1719H26.2176C25.7377 23.723 23.723 25.7377 21.1719 26.2176V21.1719ZM21.1719 18.8281V13.7824C23.723 14.2623 25.7377 16.277 26.2176 18.8281H21.1719ZM18.8281 4.5493V11.4076C14.982 11.9295 11.9295 14.9821 11.4076 18.8281H4.5493C5.12117 11.2165 11.2165 5.12117 18.8281 4.5493ZM7.73438 33.3594C6.6718 33.3594 5.80734 32.4949 5.80734 31.4323C5.80734 30.3696 6.6718 29.5052 7.73438 29.5052C8.79703 29.5052 9.66148 30.3697 9.66148 31.4323C9.66148 32.495 8.79703 33.3594 7.73438 33.3594ZM11.6798 33.0661C11.8891 32.5625 12.0052 32.0108 12.0052 31.4323C12.0052 29.0773 10.0894 27.1614 7.73438 27.1614C7.26102 27.1614 6.80586 27.24 6.37992 27.3829C5.36109 25.5109 4.71727 23.4067 4.5493 21.1719H11.4076C11.9295 25.0179 14.982 28.0705 18.8281 28.5924V35.4507C16.212 35.2541 13.775 34.405 11.6798 33.0661ZM21.1719 35.4507V28.5924C25.0179 28.0705 28.0705 25.0179 28.5924 21.1719H35.4507C34.8788 28.7835 28.7835 34.8788 21.1719 35.4507Z" fill="#005128" stroke="#F6F8F4" stroke-width="0.5"/>
</g>
<defs>
<clipPath id="clip0_104_2372">
<rect width="40" height="40" fill="white"/>
</clipPath>
</defs>
</svg>
