<svg width="41" height="41" viewBox="0 0 41 41" fill="none" xmlns="http://www.w3.org/2000/svg">
<path d="M20.1 30.1001C14.585 30.1001 10.1 25.6151 10.1 20.1001C10.1 14.5851 14.585 10.1001 20.1 10.1001C25.615 10.1001 30.1 14.5851 30.1 20.1001C30.1 25.6151 25.615 30.1001 20.1 30.1001ZM20.1 11.7668C15.505 11.7668 11.7666 15.5051 11.7666 20.1001C11.7666 24.6951 15.505 28.4334 20.1 28.4334C24.695 28.4334 28.4333 24.6951 28.4333 20.1001C28.4333 15.5051 24.695 11.7668 20.1 11.7668Z" fill="#005128" stroke="#005128" stroke-width="0.2"/>
<path d="M1.38331 25.1001C1.00164 25.1001 0.658309 24.8368 0.571642 24.4501C0.258309 23.0634 0.0999756 21.6001 0.0999756 20.1001C0.0999756 9.07176 9.07164 0.100098 20.1 0.100098C26.3566 0.100098 32.1333 2.95176 35.945 7.92676C36.225 8.29176 36.155 8.8151 35.79 9.0951C35.4233 9.3751 34.9033 9.3051 34.6216 8.9401C31.1283 4.38176 25.835 1.76676 20.1 1.76676C9.99164 1.76676 1.76664 9.99176 1.76664 20.1001C1.76664 21.4784 1.91164 22.8184 2.19664 24.0834C2.29831 24.5334 2.01664 24.9784 1.56664 25.0801C1.50498 25.0934 1.44331 25.1001 1.38331 25.1001Z" fill="#005128" stroke="#005128" stroke-width="0.2"/>
<path d="M20.1001 40.1002C13.8434 40.1002 8.06674 37.2485 4.25507 32.2735C3.97507 31.9085 4.04507 31.3852 4.41007 31.1052C4.77674 30.8268 5.2984 30.8968 5.5784 31.2602C9.07174 35.8185 14.3651 38.4335 20.1001 38.4335C30.2084 38.4335 38.4334 30.2085 38.4334 20.1002C38.4334 18.7035 38.2851 17.3652 37.9901 16.1268C37.8834 15.6785 38.1601 15.2285 38.6084 15.1235C39.0601 15.0152 39.5067 15.2935 39.6117 15.7418C39.9351 17.1068 40.1001 18.5735 40.1001 20.1002C40.1001 31.1285 31.1284 40.1002 20.1001 40.1002Z" fill="#005128" stroke="#005128" stroke-width="0.2"/>
<path d="M4.35065 40.1001C3.89398 40.1001 3.52232 39.7318 3.51732 39.2751L3.43398 30.9418C3.43232 30.7201 3.51898 30.5051 3.67565 30.3484C3.83232 30.1884 4.04565 30.1001 4.26732 30.1001H12.6007C13.0607 30.1001 13.434 30.4734 13.434 30.9334C13.434 31.3934 13.0607 31.7668 12.6007 31.7668H5.10898L5.18398 39.2584C5.18898 39.7184 4.82065 40.0951 4.35898 40.1001C4.35732 40.1001 4.35398 40.1001 4.35065 40.1001Z" fill="#005128" stroke="#005128" stroke-width="0.2"/>
<path d="M35.9327 10.1001H27.5993C27.1393 10.1001 26.766 9.72676 26.766 9.26676C26.766 8.80676 27.1393 8.43343 27.5993 8.43343H35.0993V0.933431C35.0993 0.473431 35.4727 0.100098 35.9327 0.100098C36.3927 0.100098 36.766 0.473431 36.766 0.933431V9.26676C36.766 9.72676 36.3927 10.1001 35.9327 10.1001Z" fill="#005128" stroke="#005128" stroke-width="0.2"/>
<path d="M18.4334 24.2668C18.2134 24.2668 18.0001 24.1785 17.8434 24.0235L14.9267 21.1068C14.6017 20.7818 14.6017 20.2535 14.9267 19.9285C15.2517 19.6035 15.7801 19.6035 16.1051 19.9285L18.3884 22.2118L23.2184 16.6385C23.5217 16.2918 24.0467 16.2535 24.3951 16.5552C24.7417 16.8568 24.7801 17.3835 24.4784 17.7318L19.0617 23.9818C18.9101 24.1552 18.6934 24.2602 18.4617 24.2685C18.4534 24.2668 18.4434 24.2668 18.4334 24.2668Z" fill="#005128" stroke="#005128" stroke-width="0.2"/>
</svg>
