<svg width="36" height="38" viewBox="0 0 36 38" fill="none" xmlns="http://www.w3.org/2000/svg">
<path d="M30.9975 13.0864H13.5863C11.0463 13.0864 8.97876 15.1539 8.97876 17.6952V28.6189C8.97876 31.1589 11.045 33.2277 13.5863 33.2277H15.8475V35.2539C15.8475 36.0239 16.2775 36.7127 16.9713 37.0502C17.2513 37.1852 17.55 37.2527 17.8463 37.2527C18.2838 37.2527 18.7163 37.1077 19.0775 36.8227L23.6475 33.2277H30.9975C33.5388 33.2277 35.605 31.1602 35.605 28.6189V17.6952C35.605 15.1552 33.5375 13.0864 30.9975 13.0864ZM33.355 28.6189C33.355 29.9189 32.2975 30.9764 30.9975 30.9764H23.2588C23.0063 30.9764 22.7613 31.0614 22.5625 31.2177L18.0975 34.7314V32.1014C18.0975 31.4802 17.5938 30.9764 16.9725 30.9764H13.5863C12.2863 30.9764 11.2288 29.9189 11.2288 28.6189V17.6952C11.2288 16.3952 12.2863 15.3377 13.5863 15.3377H30.9975C32.2975 15.3377 33.355 16.3952 33.355 17.6952V28.6189Z" fill="#005128"/>
<path d="M5.725 21.914H4.6C3.30375 21.914 2.25 20.8602 2.25 19.564V8.63895C2.25 7.33645 3.305 6.27645 4.6 6.27645H12.3375C12.59 6.27645 12.8337 6.19145 13.0325 6.03645L17.5 2.52895V5.15145C17.5 5.7727 18.0038 6.27645 18.625 6.27645H22.0125C23.315 6.27645 24.375 7.33645 24.375 8.63895V9.83895C24.375 10.4602 24.8788 10.964 25.5 10.964C26.1213 10.964 26.625 10.4602 26.625 9.83895V8.63895C26.625 6.0952 24.5563 4.02645 22.0125 4.02645H19.75V2.00145C19.75 1.22645 19.315 0.535202 18.6162 0.200202C17.9237 -0.134798 17.1212 -0.0435482 16.5312 0.430202L11.95 4.02645H4.6C2.06375 4.02645 0 6.0952 0 8.63895V19.564C0 22.1002 2.06375 24.1652 4.6 24.1652H5.725C6.34625 24.1652 6.85 23.6615 6.85 23.0402C6.85 22.419 6.34625 21.914 5.725 21.914Z" fill="#005128"/>
<path d="M17.6333 22.0315H17.5945C16.9733 22.0315 16.4883 22.5352 16.4883 23.1565C16.4883 23.7777 17.0108 24.2815 17.6333 24.2815C18.2558 24.2815 18.7583 23.7777 18.7583 23.1565C18.7583 22.5352 18.2545 22.0315 17.6333 22.0315Z" fill="#005128"/>
<path d="M22.31 22.0315H22.2725C21.6513 22.0315 21.1663 22.5352 21.1663 23.1565C21.1663 23.7777 21.6888 24.2815 22.31 24.2815C22.9313 24.2815 23.435 23.7777 23.435 23.1565C23.435 22.5352 22.9325 22.0315 22.31 22.0315Z" fill="#005128"/>
<path d="M26.9885 22.0315H26.951C26.3297 22.0315 25.8447 22.5352 25.8447 23.1565C25.8447 23.7777 26.3672 24.2815 26.9885 24.2815C27.6097 24.2815 28.1135 23.7777 28.1135 23.1565C28.1135 22.5352 27.6097 22.0315 26.9885 22.0315Z" fill="#005128"/>
</svg>
