<svg width="40" height="40" viewBox="0 0 40 40" fill="none" xmlns="http://www.w3.org/2000/svg">
<path d="M26.0164 8.00031C26.011 8.00024 26.0057 7.99947 26.0003 7.99947H17.6212L19.5607 6.06003C20.1465 5.47423 20.1465 4.52441 19.5607 3.93862C18.9749 3.35282 18.0251 3.35282 17.4393 3.93862L12.9391 8.4388C12.9041 8.47375 12.8711 8.51052 12.8397 8.5487C12.8255 8.566 12.8132 8.58428 12.7998 8.60207C12.7838 8.62345 12.7672 8.64433 12.7524 8.66655C12.7381 8.68786 12.7257 8.71 12.7127 8.73187C12.7007 8.75198 12.6881 8.77167 12.677 8.79241C12.6651 8.8147 12.6549 8.83763 12.6443 8.86034C12.6341 8.882 12.6232 8.9033 12.614 8.92545C12.6049 8.94753 12.5975 8.9701 12.5895 8.99246C12.5809 9.01623 12.5718 9.03971 12.5644 9.06404C12.5577 9.0864 12.5527 9.10919 12.547 9.13183C12.5407 9.15665 12.5338 9.18112 12.5288 9.20643C12.5236 9.23259 12.5205 9.25903 12.5168 9.28532C12.5136 9.3074 12.5095 9.32906 12.5072 9.35142C12.5024 9.40015 12.4998 9.44902 12.4998 9.49796C12.4998 9.49845 12.4998 9.49894 12.4998 9.49944C12.4998 9.5 12.4998 9.50049 12.4998 9.50105C12.4999 9.54992 12.5024 9.59879 12.5072 9.64745C12.5094 9.66981 12.5136 9.69154 12.5168 9.71362C12.5206 9.73998 12.5236 9.76635 12.5288 9.79251C12.5338 9.81782 12.5407 9.84229 12.547 9.86711C12.5527 9.88976 12.5576 9.91247 12.5644 9.93483C12.5718 9.95916 12.581 9.98264 12.5895 10.0065C12.5975 10.0288 12.6049 10.0513 12.6139 10.0733C12.6232 10.0956 12.634 10.1169 12.6442 10.1385C12.6549 10.1612 12.665 10.1842 12.6769 10.2064C12.688 10.2271 12.7006 10.2469 12.7127 10.267C12.7257 10.2888 12.7381 10.3109 12.7524 10.3323C12.7673 10.3545 12.7839 10.3755 12.7999 10.3969C12.8132 10.4146 12.8255 10.4329 12.8397 10.4501C12.8711 10.4884 12.9041 10.5251 12.9391 10.5601L17.4393 15.0603C18.0251 15.6461 18.9749 15.6461 19.5607 15.0603C20.1465 14.4745 20.1465 13.5246 19.5607 12.9388L17.6212 10.9994H25.9876C25.9917 10.9994 25.9955 11 25.9995 11C30.9763 11 34.9999 15.0236 34.9999 20.0004C34.9999 22.185 34.1274 24.2403 32.6007 25.7684C32.0151 26.3545 32.0155 27.3043 32.6016 27.8899C33.1877 28.4754 34.1374 28.475 34.723 27.8889C36.8052 25.805 38 22.9901 38 20.0004C38 13.3725 32.6423 8.00945 26.0164 8.00031Z" fill="#005128"/>
<path d="M27.2002 31.3978C27.2162 31.3765 27.2327 31.3556 27.2475 31.3334C27.2618 31.312 27.2742 31.2899 27.2872 31.268C27.2993 31.2478 27.3119 31.2282 27.3229 31.2076C27.3348 31.1852 27.345 31.1622 27.3557 31.1393C27.3659 31.1178 27.3767 31.0966 27.3858 31.0745C27.395 31.0524 27.4024 31.0297 27.4104 31.0072C27.4189 30.9835 27.428 30.9602 27.4353 30.936C27.4422 30.9135 27.4471 30.8906 27.4528 30.8679C27.4591 30.8432 27.466 30.8188 27.471 30.7937C27.4762 30.7673 27.4793 30.7407 27.4831 30.7142C27.4862 30.6924 27.4905 30.6708 27.4926 30.6487C27.5023 30.5502 27.5023 30.451 27.4926 30.3526C27.4905 30.3304 27.4863 30.3089 27.4831 30.287C27.4793 30.2605 27.4763 30.2339 27.471 30.2075C27.4661 30.1824 27.4592 30.158 27.4529 30.1333C27.4472 30.1106 27.4422 30.0877 27.4354 30.0652C27.4281 30.0409 27.4189 30.0176 27.4104 29.9939C27.4024 29.9714 27.395 29.9488 27.3858 29.9266C27.3767 29.9045 27.3659 29.8834 27.3557 29.8619C27.345 29.839 27.3348 29.8159 27.3228 29.7936C27.3118 29.773 27.2992 29.7534 27.2872 29.7333C27.2742 29.7114 27.2617 29.6892 27.2474 29.6678C27.2326 29.6456 27.2162 29.6248 27.2003 29.6036C27.1868 29.5857 27.1744 29.5673 27.1601 29.5499C27.1292 29.5122 27.0966 29.476 27.0622 29.4416C27.0617 29.441 27.0613 29.4405 27.0608 29.44L22.5606 24.9398C21.9748 24.354 21.025 24.354 20.4392 24.9398C19.8534 25.5256 19.8534 26.4754 20.4392 27.0612L22.3786 29.0006H14.0123C14.0083 29.0006 14.0044 29 14.0004 29C9.02361 29 5.00002 24.9764 5.00002 19.9996C5.00002 17.8151 5.8725 15.7597 7.39925 14.2316C7.98484 13.6455 7.98442 12.6958 7.39834 12.1102C6.81226 11.5246 5.86251 11.525 5.27692 12.1111C3.19475 14.1949 1.99988 17.0098 1.99988 19.9995C1.99988 26.6276 7.35763 31.9907 13.9835 31.9998C13.9889 31.9999 13.9942 32.0006 13.9996 32.0006H22.3786L20.4392 33.9401C19.8534 34.5259 19.8534 35.4757 20.4392 36.0615C21.025 36.6473 21.9748 36.6473 22.5606 36.0615L27.0608 31.5613C27.061 31.561 27.0613 31.5607 27.0615 31.5605C27.0961 31.5258 27.129 31.4893 27.1601 31.4514C27.1745 31.4339 27.1868 31.4156 27.2002 31.3978Z" fill="#005128"/>
</svg>
