<svg width="36" height="36" viewBox="0 0 36 36" fill="none" xmlns="http://www.w3.org/2000/svg">
<path d="M0.000976562 6.3979H2.11017V2.1092H6.39888V0H0.000976562V6.3979Z" fill="#005128"/>
<path d="M35.9986 6.3979V0H29.6007V2.1092H33.8894V6.3979H35.9986Z" fill="#005128"/>
<path d="M0.000976562 29.599V35.9969H6.39888V33.8877H2.11017V29.599H0.000976562Z" fill="#005128"/>
<path d="M33.8894 33.8877H29.6007V35.9969H35.9986V29.599H33.8894V33.8877Z" fill="#005128"/>
<path d="M30.4062 23.0783C32.8827 21.3294 34.501 19.7245 36 17.9985C34.5541 16.3335 32.9422 14.7095 30.4062 12.9186C26.3193 10.0326 22.0294 8.50708 18 8.50708C13.9706 8.50708 9.68058 10.0326 5.59373 12.9186C3.11718 14.6676 1.49901 16.2725 0 17.9985C1.44593 19.6634 3.05784 21.2874 5.5938 23.0783C9.68066 25.9643 13.9706 27.4899 18 27.4899C22.0294 27.4899 26.3194 25.9644 30.4062 23.0783ZM2.84207 17.9985C3.60553 17.2259 5.00548 15.9111 6.85412 14.6107C9.44478 12.7885 13.4814 10.6163 18 10.6163C22.5186 10.6163 26.5552 12.7885 29.1458 14.6107C30.9945 15.9111 32.3944 17.2259 33.1579 17.9985C32.3944 18.7711 30.9945 20.0858 29.1458 21.3862C26.5552 23.2084 22.5186 25.3807 18 25.3807C13.4814 25.3807 9.44471 23.2085 6.85412 21.3862C5.00527 20.0857 3.60532 18.7709 2.84207 17.9985Z" fill="#005128"/>
<path d="M23.2726 17.9985C23.2726 15.0909 20.9071 12.7255 17.9996 12.7255C15.092 12.7255 12.7266 15.0909 12.7266 17.9985C12.7266 20.906 15.092 23.2715 17.9996 23.2715C20.9071 23.2715 23.2726 20.906 23.2726 17.9985ZM14.8358 17.9985C14.8358 16.2539 16.255 14.8347 17.9996 14.8347C19.7441 14.8347 21.1634 16.2539 21.1634 17.9985C21.1634 19.743 19.7441 21.1623 17.9996 21.1623C16.255 21.1623 14.8358 19.743 14.8358 17.9985Z" fill="#005128"/>
</svg>
