<svg width="36" height="36" viewBox="0 0 36 36" fill="none" xmlns="http://www.w3.org/2000/svg">
<path d="M32.1213 0H3.879C1.73996 0 0 1.73996 0 3.879V24.5676C0 26.7064 1.73996 28.4464 3.879 28.4464H12.8296L15.7937 34.3748C16.31 35.4076 17.1142 36 18 36C18.8858 36 19.69 35.4076 20.2063 34.3748L23.1707 28.4464H32.1213C34.26 28.4464 36 26.7064 36 24.5676V3.879C36 1.73996 34.26 0 32.1213 0ZM33.8906 24.5676C33.8906 25.5432 33.0969 26.337 32.1213 26.337H22.519C22.1193 26.337 21.7543 26.5627 21.5755 26.9201L18.3197 33.4317C18.1884 33.694 18.0651 33.8231 18 33.8725C17.9349 33.8231 17.8116 33.694 17.6803 33.4317L14.4245 26.9201C14.246 26.5627 13.8807 26.337 13.4813 26.337H3.879C2.90314 26.337 2.10938 25.5432 2.10938 24.5676V3.879C2.10938 2.90314 2.90314 2.10938 3.879 2.10938H32.1213C33.0969 2.10938 33.8906 2.90314 33.8906 3.879V24.5676Z" fill="#005128"/>
<path d="M18.0007 22.5199C17.0366 22.5199 16.252 21.7356 16.252 20.7712C16.252 19.8067 17.0366 19.0225 18.0007 19.0225C18.9651 19.0225 19.7498 19.8067 19.7498 20.7712C19.7498 21.7356 18.9651 22.5199 18.0007 22.5199Z" fill="#005128"/>
<path d="M19.7498 15.784C19.7498 16.7484 18.9651 17.5331 18.0007 17.5331C17.0366 17.5331 16.252 16.7484 16.252 15.784V8.71025C16.252 7.74619 17.0366 6.96155 18.0007 6.96155C18.9651 6.96155 19.7498 7.74619 19.7498 8.71025V15.784Z" fill="#005128"/>
</svg>
