<svg width="40" height="40" viewBox="0 0 40 40" fill="none" xmlns="http://www.w3.org/2000/svg">
<g clip-path="url(#clip0_104_1916)">
<path d="M32.3475 11.693L25.7437 10.7334L22.7903 4.74935C21.6496 2.43787 18.3511 2.43857 17.2108 4.74927L14.2574 10.7333L7.6536 11.693C5.10259 12.0636 4.08431 15.2008 5.92946 16.9995L10.7081 21.6575L9.58001 28.2344C9.14431 30.7751 11.813 32.7129 14.094 31.5141L20.0006 28.4086L25.9074 31.5141C28.1852 32.7115 30.857 30.7747 30.4213 28.2344L29.2933 21.6574L34.072 16.9994C35.9174 15.2001 34.8974 12.0636 32.3475 11.693ZM32.2103 15.09L26.9298 20.2372C26.6156 20.5435 26.4722 20.9848 26.5463 21.4173L27.7929 28.6854C27.8555 29.0504 27.4757 29.326 27.1481 29.1539L20.6209 25.7224C20.2326 25.5183 19.7684 25.5183 19.3801 25.7224L12.853 29.1539C12.5252 29.3261 12.1456 29.0503 12.2081 28.6854L13.4547 21.4173C13.5288 20.9848 13.3855 20.5435 13.0713 20.2372L7.79071 15.09C7.52548 14.8315 7.67056 14.3852 8.03704 14.3319L15.3345 13.2715C15.7688 13.2083 16.1442 12.9357 16.3384 12.5422L19.602 5.92943C19.7659 5.59755 20.2352 5.59732 20.3991 5.92951L23.6627 12.5422C23.8569 12.9357 24.2324 13.2084 24.6666 13.2715L31.9641 14.3319C32.3305 14.3852 32.4755 14.8315 32.2103 15.09Z" fill="#005128"/>
<path d="M10.5262 3.68375L8.93157 1.48898C8.4986 0.893359 7.66485 0.761172 7.06922 1.19414C6.47352 1.62695 6.34141 2.46078 6.7743 3.05648L8.36891 5.25117C8.80204 5.84711 9.63579 5.97875 10.2313 5.54602C10.827 5.11328 10.9591 4.27945 10.5262 3.68375Z" fill="#005128"/>
<path d="M5.23413 23.3521C5.00671 22.6519 4.25452 22.2683 3.55405 22.4961L0.921553 23.3515C0.221241 23.5791 -0.161962 24.3312 0.0655378 25.0316C0.293428 25.7331 1.04687 26.115 1.74562 25.8876L4.37812 25.0322C5.07851 24.8046 5.46171 24.0525 5.23413 23.3521Z" fill="#005128"/>
<path d="M32.9315 1.19422C32.3358 0.761405 31.502 0.893358 31.0691 1.48906L29.4745 3.68375C29.0416 4.27945 29.1737 5.11336 29.7694 5.54609C30.3654 5.97906 31.1991 5.84672 31.6318 5.25125L33.2264 3.05656C33.6592 2.46086 33.5272 1.62695 32.9315 1.19422Z" fill="#005128"/>
<path d="M39.0783 23.3515L36.4458 22.4961C35.7455 22.2681 34.9933 22.6518 34.7658 23.3521C34.5382 24.0524 34.9214 24.8047 35.6218 25.0322L38.2543 25.8876C38.9531 26.1148 39.7065 25.7329 39.9344 25.0315C40.1619 24.3312 39.7787 23.579 39.0783 23.3515Z" fill="#005128"/>
<path d="M20.0003 33.6879C19.2639 33.6879 18.667 34.2848 18.667 35.0211V37.7272C18.667 38.4636 19.2639 39.0605 20.0003 39.0605C20.7366 39.0605 21.3336 38.4636 21.3336 37.7272V35.0211C21.3336 34.2847 20.7367 33.6879 20.0003 33.6879Z" fill="#005128"/>
</g>
<defs>
<clipPath id="clip0_104_1916">
<rect width="40" height="40" fill="white"/>
</clipPath>
</defs>
</svg>
