<svg width="36" height="33" viewBox="0 0 36 33" fill="none" xmlns="http://www.w3.org/2000/svg">
<path d="M35.4261 25.9497L21.666 2.11654C20.9008 0.791295 19.5304 0 18 0C16.4696 0 15.0991 0.791295 14.334 2.11654L0.573907 25.9497C-0.191302 27.2751 -0.191302 28.8575 0.573907 30.1828C1.33912 31.5081 2.7095 32.2994 4.23992 32.2994H31.76C33.2904 32.2994 34.6608 31.5081 35.4261 30.1829C36.1913 28.8575 36.1913 27.2751 35.4261 25.9497ZM33.5995 29.1283C33.2155 29.7934 32.5279 30.1903 31.76 30.1903H4.23992C3.47197 30.1903 2.78431 29.7934 2.40041 29.1283C2.0165 28.4633 2.0165 27.6694 2.40041 27.0044L16.1606 3.17116C16.5445 2.50614 17.2322 2.10916 18 2.10916C18.7678 2.10916 19.4556 2.50614 19.8395 3.17116L33.5996 27.0044C33.9834 27.6694 33.9834 28.4633 33.5995 29.1283Z" fill="#005128"/>
<path d="M18.0002 25.3061C17.1268 25.3061 16.416 24.5957 16.416 23.722C16.416 22.8483 17.1268 22.1378 18.0002 22.1378C18.8739 22.1378 19.5847 22.8483 19.5847 23.722C19.5847 24.5957 18.8739 25.3061 18.0002 25.3061Z" fill="#005128"/>
<path d="M19.5847 19.204C19.5847 20.0777 18.8739 20.7885 18.0002 20.7885C17.1268 20.7885 16.416 20.0777 16.416 19.204V12.7958C16.416 11.9225 17.1268 11.2117 18.0002 11.2117C18.8739 11.2117 19.5847 11.9225 19.5847 12.7958V19.204Z" fill="#005128"/>
</svg>
