<svg preserveAspectRatio="none" width="100%" height="100%" overflow="visible" style="display: block;" viewBox="0 0 87.9999 77.6344" fill="none" xmlns="http://www.w3.org/2000/svg">
<g id="Group">
<path id="Vector" d="M29.6984 39.0975C29.6984 33.9246 25.4892 29.7163 20.3154 29.7163C15.1426 29.7163 10.9342 33.9246 10.9342 39.0975C10.9342 44.2704 15.1426 48.4787 20.3154 48.4787C25.4892 48.4787 29.6984 44.2702 29.6984 39.0975ZM14.3718 39.0975C14.3718 35.8202 17.0382 33.1539 20.3154 33.1539C23.5937 33.1539 26.2608 35.8202 26.2608 39.0975C26.2608 42.3747 23.5937 45.0411 20.3154 45.0411C17.0382 45.0411 14.3718 42.3747 14.3718 39.0975Z" fill="var(--fill-0, #005128)"/>
<path id="Vector_2" d="M22.0927 60.8074C24.1968 60.8074 26.0602 59.3903 26.6253 57.3576L27.1306 55.525C27.1597 55.4195 27.2338 55.3319 27.3278 55.2911C28.5643 54.755 29.7417 54.0737 30.825 53.2679C30.9101 53.205 31.0247 53.184 31.1339 53.2126L32.9792 53.6906C35.0184 54.2169 37.1774 53.3124 38.2306 51.4897L40.0037 48.4156C41.0569 46.593 40.7619 44.2704 39.2846 42.7661L37.9484 41.4091C37.87 41.3285 37.832 41.2229 37.8442 41.1174C37.9983 39.7773 37.9981 38.4163 37.8441 37.076C37.832 36.9722 37.8697 36.8673 37.9481 36.7878L39.2863 35.4272C40.7619 33.9248 41.0569 31.6021 40.0043 29.7802L38.2298 26.7043C37.177 24.8823 35.018 23.9777 32.9778 24.5045L31.1318 24.9827C31.0242 25.0104 30.9096 24.9899 30.8269 24.9286C29.7413 24.1211 28.5639 23.4397 27.3283 22.904C27.2334 22.8629 27.1595 22.7753 27.1303 22.6694L26.6241 20.8335C26.06 18.8043 24.1965 17.3872 22.0925 17.3872H18.5415C16.4347 17.3872 14.5711 18.8052 14.0093 20.8358L13.5021 22.6702C13.4731 22.7753 13.3997 22.8624 13.3046 22.9035C12.07 23.4387 10.8925 24.1197 9.80311 24.9286C9.72043 24.9901 9.60734 25.0102 9.49854 24.9822L7.65324 24.5042C5.61526 23.9779 3.45662 24.8827 2.40386 26.7046L0.629545 29.7776C-0.426656 31.6008 -0.130851 33.9246 1.34852 35.428L2.6823 36.7841C2.76171 36.8653 2.80039 36.9717 2.78801 37.0775C2.63383 38.4185 2.63452 39.7798 2.78818 41.1208C2.80004 41.2229 2.76137 41.3304 2.68402 41.4089L1.34869 42.7666C-0.130851 44.2705 -0.426656 46.5942 0.62817 48.4149L2.40403 51.4905C3.45662 53.3123 5.6156 54.217 7.65427 53.6901L9.49991 53.2121C9.60699 53.1844 9.72061 53.2043 9.80465 53.2669C10.8925 54.0747 12.0702 54.7557 13.3057 55.2913C13.4009 55.3325 13.4724 55.4176 13.5025 55.5268L14.0095 57.3588C14.5712 59.3891 16.4347 60.8073 18.5416 60.8073H22.0927V60.8074ZM17.3227 56.4424L16.8161 54.612C16.5087 53.496 15.7269 52.5938 14.6723 52.1373C13.679 51.7066 12.7309 51.1583 11.8554 50.5081C10.938 49.8255 9.74261 49.5974 8.63673 49.8846L6.79349 50.362C6.24451 50.505 5.66373 50.2607 5.38082 49.7712L3.6041 46.694C3.32118 46.2056 3.40145 45.5818 3.79952 45.1772L5.13434 43.82C5.94613 42.9957 6.33561 41.8677 6.20326 40.7272C6.07951 39.6477 6.07899 38.5511 6.20309 37.4715C6.33509 36.3309 5.94647 35.2032 5.1352 34.3758L3.79935 33.0176C3.40145 32.6131 3.32118 31.9896 3.60547 31.499L5.38082 28.4244C5.6639 27.9342 6.24451 27.6907 6.79264 27.8328L8.63518 28.31C9.75756 28.6023 10.9313 28.3749 11.8543 27.6879C12.7311 27.037 13.6792 26.4886 14.6716 26.0583C15.7266 25.6018 16.5081 24.7007 16.816 23.5864L17.323 21.7526C17.4741 21.2065 17.9753 20.8251 18.542 20.8251H22.093C22.659 20.8251 23.1604 21.2074 23.3116 21.7512L23.8168 23.5829C24.124 24.6976 24.905 25.5994 25.9607 26.0578C26.955 26.4889 27.902 27.037 28.7778 27.6883C29.7033 28.3748 30.8769 28.6011 31.9962 28.3103L33.8395 27.833C34.3895 27.6907 34.9709 27.9342 35.2535 28.4234L37.0278 31.4994C37.3111 31.9896 37.2315 32.6143 36.8351 33.0177L35.4984 34.3768C34.687 35.2011 34.2975 36.329 34.4297 37.4701C34.5536 38.5488 34.5538 39.6449 34.4299 40.7236C34.2977 41.8647 34.6865 42.9924 35.4964 43.818C35.4971 43.8188 35.4979 43.8197 35.4986 43.8204L36.8341 45.1765C37.2313 45.5811 37.3109 46.2059 37.0271 46.6971L35.254 49.7712C34.9708 50.2612 34.3893 50.5048 33.8403 50.3626L31.9974 49.8853C30.8768 49.5947 29.7033 49.8205 28.7757 50.5084C27.9019 51.1583 26.9546 51.7066 25.9596 52.1378C24.9048 52.5957 24.1236 53.4977 23.8166 54.612L23.3122 56.441C23.1601 56.9883 22.6585 57.3703 22.0925 57.3703H18.5415C17.975 57.3698 17.4738 56.9884 17.3227 56.4424Z" fill="var(--fill-0, #005128)"/>
<path id="Vector_3" d="M83.0156 49.9567V21.9413C83.0156 19.234 80.8131 17.0316 78.1059 17.0316H53.8844C51.1771 17.0316 48.9747 19.234 48.9747 21.9413V31.2861C48.9747 32.2352 49.7443 33.0049 50.6935 33.0049C51.6426 33.0049 52.4123 32.2352 52.4123 31.2861V21.9413C52.4123 21.1295 53.0728 20.4692 53.8844 20.4692H78.1057C78.9175 20.4692 79.5778 21.1297 79.5778 21.9413V48.2781C78.3015 47.8996 76.9584 47.7403 75.6291 47.807C70.4148 48.0651 65.8694 51.8948 64.7305 56.9903H53.8844C53.0726 56.9903 52.4123 56.3298 52.4123 55.5182V46.4061C52.4123 45.457 51.6426 44.6873 50.6935 44.6873C49.7443 44.6873 48.9747 45.457 48.9747 46.4061V55.5182C48.9747 58.2254 51.1771 60.4279 53.8844 60.4279H64.4825C64.9248 66.5209 70.02 71.344 76.2238 71.344C82.717 71.344 87.9999 66.0614 87.9999 59.568C88.0001 55.6027 86.0281 52.0916 83.0156 49.9567ZM76.2239 67.9062C71.626 67.9062 67.8854 64.1656 67.8854 59.5678C67.8854 55.0098 71.7542 51.1861 76.3121 51.2315C80.8174 51.2794 84.5623 55.0629 84.5623 59.5678C84.5625 64.1656 80.8219 67.9062 76.2239 67.9062Z" fill="var(--fill-0, #005128)"/>
<path id="Vector_4" d="M59.2962 30.8479H72.8747C73.8238 30.8479 74.5935 30.0783 74.5935 29.1291C74.5935 28.18 73.8238 27.4103 72.8747 27.4103H59.2962C58.3471 27.4103 57.5774 28.18 57.5774 29.1291C57.5774 30.0783 58.3469 30.8479 59.2962 30.8479Z" fill="var(--fill-0, #005128)"/>
<path id="Vector_5" d="M59.2962 40.4371H72.8747C73.8238 40.4371 74.5935 39.6674 74.5935 38.7183C74.5935 37.7692 73.8238 36.9995 72.8747 36.9995H59.2962C58.3471 36.9995 57.5774 37.7692 57.5774 38.7183C57.5774 39.6674 58.3469 40.4371 59.2962 40.4371Z" fill="var(--fill-0, #005128)"/>
<path id="Vector_6" d="M59.2962 50.37H63.827C64.7761 50.37 65.5458 49.6004 65.5458 48.6512C65.5458 47.7021 64.7761 46.9324 63.827 46.9324H59.2962C58.3471 46.9324 57.5774 47.7021 57.5774 48.6512C57.5774 49.6004 58.3469 50.37 59.2962 50.37Z" fill="var(--fill-0, #005128)"/>
<path id="Vector_7" d="M78.3312 56.6459L74.8613 60.116L73.7838 59.0384C73.1124 58.3674 72.0241 58.3674 71.3529 59.0384C70.6817 59.7098 70.6817 60.798 71.3529 61.4693L73.6458 63.762C73.9814 64.0975 74.4213 64.2655 74.8611 64.2655C75.301 64.2655 75.7408 64.0975 76.0765 63.762L80.7619 59.0766C81.4331 58.4054 81.4331 57.3171 80.7619 56.6457C80.0906 55.9749 79.0026 55.9749 78.3312 56.6459Z" fill="var(--fill-0, #005128)"/>
<path id="Vector_8" d="M61.5133 68.0387C55.6247 72.0673 48.7261 74.1969 41.5632 74.1969C34.9991 74.1969 28.7375 72.4399 23.2319 69.0858L25.7652 68.6824C26.7027 68.5331 27.3417 67.6522 27.1923 66.7148C27.0432 65.7772 26.1619 65.1403 25.2247 65.2875L18.4861 66.3603C17.4858 66.5198 16.84 67.543 17.0963 68.5162L18.4418 74.9485C18.6334 75.8643 19.5595 76.4708 20.476 76.2788C21.4052 76.0844 22.0009 75.1736 21.8065 74.2445L21.3266 71.9506C27.3977 75.6802 34.3125 77.6344 41.563 77.6344C49.4215 77.6344 56.9913 75.2972 63.4541 70.8758C64.2377 70.3399 64.4383 69.2701 63.9021 68.4868C63.3665 67.7032 62.2967 67.5027 61.5133 68.0387Z" fill="var(--fill-0, #005128)"/>
<path id="Vector_9" d="M18.003 11.8803C18.3875 11.8803 18.7744 11.7519 19.0944 11.4886C25.4008 6.29681 33.3805 3.43759 41.5634 3.43759C48.3958 3.43759 55.0858 5.43243 60.7792 9.11255L58.1168 9.53623C57.1793 9.68542 56.5401 10.5663 56.6893 11.5037C56.8364 12.4288 57.7323 13.0773 58.6568 12.9312L65.3947 11.859C66.3484 11.7067 67.0067 10.7571 66.807 9.80969L65.4397 3.27036C65.2457 2.34135 64.3357 1.74527 63.4055 1.93983C62.4765 2.13406 61.8806 3.04485 62.075 3.97403L62.5305 6.15243C56.3086 2.16207 49.0132 0 41.5636 0C32.5858 0 23.8302 3.13749 16.9098 8.83445C16.1769 9.43792 16.0719 10.5209 16.6752 11.2538C17.0148 11.6669 17.5069 11.8803 18.003 11.8803Z" fill="var(--fill-0, #005128)"/>
<path id="Vector_10" d="M49.7393 40.3537C51.0325 41.2398 52.7611 39.9546 52.3484 38.4677C51.9275 36.9509 49.7613 36.7816 49.1238 38.2301C48.7935 38.9807 49.047 39.9011 49.7393 40.3537Z" fill="var(--fill-0, #005128)"/>
</g>
</svg>
