<svg preserveAspectRatio="none" width="100%" height="100%" overflow="visible" style="display: block;" viewBox="0 0 88 88" fill="none" xmlns="http://www.w3.org/2000/svg">
<g id="fi_5816594" clip-path="url(#clip0_0_90)">
<path id="Vector" d="M85.4117 52.4616L81.2352 51.6012C81.1091 51.2627 80.9743 50.9277 80.8306 50.5962L83.1681 47.0456C83.5838 46.424 83.7698 45.6769 83.694 44.9329C83.6181 44.189 83.2853 43.4947 82.7527 42.9698L78.4982 38.7154C77.9732 38.183 77.279 37.8503 76.5351 37.7744C75.7913 37.6986 75.0442 37.8844 74.4226 38.2999L70.9844 40.5639C70.6073 40.3911 70.2247 40.2307 69.8366 40.0826L69.0071 36.0571C68.8615 35.3237 68.4647 34.6639 67.885 34.1915C67.3054 33.7191 66.5791 33.4636 65.8314 33.469H63.3187V17.4503C63.3187 13.3253 59.8764 9.54404 53.625 6.80401C47.7348 4.22211 39.9338 2.79933 31.6594 2.79933C23.385 2.79933 15.583 4.22125 9.69375 6.80315C3.44231 9.54319 0 13.3241 0 17.4494V70.5506C0 74.6756 3.44231 78.4568 9.69375 81.1968C15.5837 83.7787 23.385 85.2015 31.6594 85.2015C41.2799 85.2015 50.4281 83.204 56.3508 79.8358L56.639 81.2353C56.7846 81.9688 57.1814 82.6285 57.7611 83.1009C58.3407 83.5733 59.067 83.8288 59.8147 83.8234H65.8304C66.5781 83.8288 67.3044 83.5733 67.8841 83.1009C68.4637 82.6284 68.8605 81.9687 69.0061 81.2352L69.9358 76.7236C70.151 76.6397 70.3648 76.5521 70.5774 76.4607L74.4222 78.9919C75.0438 79.4075 75.7909 79.5934 76.5348 79.5176C77.2788 79.4417 77.973 79.1088 78.4979 78.5763L82.7521 74.3222C83.2848 73.7973 83.6177 73.103 83.6935 72.3591C83.7694 71.6151 83.5834 70.868 83.1677 70.2463L80.7099 66.5139C80.8275 66.2545 80.9392 65.9931 81.0451 65.7296L85.4107 64.8302C86.1445 64.6848 86.8046 64.288 87.2773 63.7082C87.7499 63.1284 88.0055 62.4018 88 61.6538V55.6382C88.0056 54.8902 87.7502 54.1638 87.2777 53.5839C86.8053 53.0041 86.1454 52.6072 85.4117 52.4616ZM31.6594 5.54915C48.9522 5.54915 60.5687 11.7023 60.5687 17.4494C60.5687 23.1966 48.9524 29.3497 31.6594 29.3497C14.372 29.3497 2.75756 23.2002 2.75 17.4548V17.4462C2.75447 11.7 14.3698 5.54915 31.6594 5.54915ZM9.69375 28.0957C15.5837 30.6776 23.385 32.1004 31.6594 32.1004C39.9338 32.1004 47.7355 30.6783 53.625 28.0957C56.5984 26.7926 58.9339 25.2536 60.5687 23.5544V33.4685H59.8151C59.0673 33.4631 58.341 33.7186 57.7613 34.191C57.1816 34.6634 56.7848 35.3231 56.6392 36.0566L55.8097 40.0819C55.4226 40.2302 55.04 40.3906 54.6619 40.5632L51.223 38.2992C50.6014 37.8836 49.8543 37.6977 49.1104 37.7735C48.3665 37.8494 47.6723 38.1823 47.1474 38.7148L42.8933 42.9691C42.472 43.3845 42.1738 43.9082 42.0315 44.4825C41.8893 45.0568 41.9086 45.6592 42.0874 46.2232C38.6397 46.7817 35.1522 47.058 31.6595 47.0494C14.3705 47.0494 2.75533 40.8987 2.75017 35.1527V23.5546C4.38436 25.2536 6.72031 26.7926 9.69375 28.0957ZM9.69375 45.7961C15.5837 48.3782 23.385 49.8008 31.6594 49.8008C35.6627 49.8117 39.6587 49.4597 43.5985 48.7491L44.8154 50.5978C44.6713 50.9288 44.5367 51.2634 44.4113 51.6017L40.2347 52.4623C39.5012 52.6078 38.8415 53.0046 38.369 53.5843C37.8966 54.164 37.6411 54.8902 37.6465 55.638V61.6536C37.6433 62.1849 37.7719 62.7086 38.0209 63.1779C38.2699 63.6472 38.6314 64.0474 39.073 64.3426C36.6114 64.6173 34.1363 64.7535 31.6594 64.7505C14.3687 64.7505 2.75241 58.5985 2.75 52.8516V41.255C4.38419 42.9541 6.72031 44.4931 9.69375 45.7961ZM55.5725 77.1031C50.0969 80.4516 41.1574 82.4507 31.6592 82.4507C14.3665 82.4507 2.74983 76.2975 2.74983 70.5504V58.9554C4.38402 60.6545 6.72014 62.1935 9.69358 63.4966C15.5836 66.0785 23.3848 67.5013 31.6592 67.5013C36.0738 67.5188 40.4788 67.0885 44.8066 66.2171C44.8496 66.3163 44.8893 66.4166 44.9338 66.5149L42.4774 70.2453C42.0617 70.8669 41.8757 71.614 41.9516 72.3579C42.0274 73.1018 42.3602 73.796 42.8928 74.321L47.147 78.5752C47.672 79.1079 48.3662 79.4408 49.1102 79.5166C49.8541 79.5925 50.6012 79.4065 51.2229 78.9908L55.0675 76.4596C55.28 76.5513 55.4939 76.6389 55.7093 76.7226L55.7676 77.0055C55.7001 77.0328 55.6348 77.0654 55.5725 77.1031ZM85.25 61.6538C85.2531 61.768 85.2152 61.8795 85.143 61.968C85.0709 62.0565 84.9694 62.1162 84.8569 62.1362L79.7512 63.1881C79.5196 63.2358 79.3042 63.3425 79.1258 63.4978C78.9475 63.653 78.8122 63.8517 78.733 64.0745C78.4983 64.7337 78.2228 65.3776 77.908 66.0026C77.7992 66.2185 77.7493 66.4594 77.7633 66.7008C77.7773 66.9422 77.8547 67.1756 77.9878 67.3776L80.8715 71.7578C80.9368 71.8514 80.9664 71.9654 80.9548 72.0789C80.9431 72.1925 80.8912 72.2981 80.8082 72.3766L76.554 76.6308C76.4754 76.7136 76.3698 76.7655 76.2563 76.777C76.1428 76.7886 76.0289 76.7591 75.9352 76.6939L71.4565 73.7455C71.2585 73.6152 71.0301 73.5383 70.7936 73.5222C70.5571 73.5062 70.3204 73.5515 70.1066 73.6539C69.5187 73.9355 68.915 74.1827 68.2985 74.3944C68.0724 74.4719 67.8704 74.6071 67.7125 74.7865C67.5545 74.9659 67.4461 75.1834 67.3979 75.4175L66.3137 80.6792C66.2937 80.7916 66.234 80.8932 66.1454 80.9653C66.0569 81.0375 65.9454 81.0755 65.8312 81.0724H59.8156C59.7014 81.0755 59.5899 81.0375 59.5014 80.9654C59.4128 80.8933 59.353 80.7918 59.333 80.6793L58.2484 75.4177C58.2002 75.1836 58.0918 74.966 57.9338 74.7865C57.7758 74.6071 57.5738 74.4719 57.3476 74.3944C56.7312 74.1832 56.1276 73.9364 55.5397 73.6553C55.3258 73.5528 55.0891 73.5074 54.8525 73.5234C54.6159 73.5394 54.3875 73.6164 54.1894 73.7467L49.7114 76.6951C49.6178 76.7603 49.5039 76.7897 49.3903 76.7782C49.2768 76.7666 49.1712 76.7148 49.0927 76.632L44.8372 72.3766C44.7543 72.2981 44.7024 72.1924 44.6908 72.0789C44.6792 71.9653 44.7088 71.8514 44.7741 71.7578L47.6573 67.3781C47.7904 67.1762 47.8678 66.9427 47.8818 66.7013C47.8958 66.4599 47.8459 66.2191 47.7371 66.0031C47.4223 65.3777 47.1468 64.7334 46.9121 64.0738C46.8329 63.851 46.6976 63.6524 46.5193 63.4972C46.341 63.342 46.1256 63.2353 45.8941 63.1876L40.7894 62.1357C40.677 62.1157 40.5754 62.056 40.5033 61.9674C40.4312 61.8789 40.3932 61.7674 40.3963 61.6533V55.6377C40.3932 55.5235 40.4312 55.4121 40.5033 55.3236C40.5755 55.2351 40.677 55.1754 40.7894 55.1554L45.7313 54.1372C45.9694 54.0883 46.1903 53.977 46.3715 53.8149C46.5527 53.6528 46.6876 53.4455 46.7625 53.2142C46.9999 52.483 47.287 51.7689 47.6219 51.077C47.7256 50.8627 47.7719 50.6252 47.7563 50.3876C47.7406 50.1501 47.6636 49.9207 47.5327 49.7219L44.7734 45.5335C44.7081 45.4398 44.6786 45.3259 44.6902 45.2124C44.7018 45.0988 44.7538 44.9932 44.8367 44.9147L49.0908 40.6605C49.1693 40.5777 49.2749 40.5258 49.3885 40.5143C49.502 40.5027 49.6159 40.5322 49.7095 40.5974L53.8001 43.2898C54.0029 43.4233 54.2373 43.5007 54.4796 43.5142C54.7219 43.5277 54.9635 43.4769 55.1798 43.3668C55.9086 42.9962 56.6634 42.6791 57.4382 42.4181C57.6661 42.3414 57.8699 42.2064 58.0294 42.0264C58.1888 41.8464 58.2982 41.6278 58.3467 41.3923L59.3316 36.612C59.3517 36.4995 59.4114 36.398 59.5 36.3259C59.5885 36.2537 59.7 36.2158 59.8142 36.2189H65.8298C65.944 36.2158 66.0555 36.2538 66.144 36.3259C66.2325 36.398 66.2923 36.4995 66.3123 36.612L67.2973 41.3925C67.3458 41.6279 67.4552 41.8466 67.6146 42.0266C67.774 42.2065 67.9778 42.3416 68.2057 42.4182C68.9805 42.6792 69.7353 42.9962 70.4641 43.3668C70.6804 43.4769 70.922 43.5277 71.1643 43.5142C71.4066 43.5007 71.641 43.4233 71.8438 43.2898L75.9344 40.5969C76.028 40.5316 76.1419 40.502 76.2554 40.5135C76.369 40.5251 76.4746 40.577 76.5531 40.6598L80.8075 44.9142C80.8904 44.9927 80.9423 45.0983 80.9539 45.2119C80.9654 45.3254 80.9359 45.4393 80.8706 45.533L78.1139 49.7202C77.983 49.919 77.906 50.1485 77.8904 50.386C77.8748 50.6236 77.9211 50.8611 78.0249 51.0754C78.3598 51.7677 78.6469 52.4821 78.8843 53.2135C78.9592 53.4448 79.0941 53.6521 79.2753 53.8142C79.4565 53.9764 79.6774 54.0876 79.9155 54.1365L84.8568 55.1545C84.9693 55.1745 85.0709 55.2342 85.1431 55.3228C85.2153 55.4114 85.2532 55.5231 85.25 55.6373V61.6538ZM62.8229 46.7749C60.4751 46.7749 58.18 47.4711 56.2278 48.7754C54.2757 50.0798 52.7541 51.9337 51.8556 54.1028C50.9572 56.2719 50.7221 58.6588 51.1801 60.9615C51.6381 63.2642 52.7687 65.3793 54.4289 67.0395C56.089 68.6997 58.2042 69.8302 60.5069 70.2883C62.8096 70.7463 65.1964 70.5112 67.3655 69.6127C69.5346 68.7142 71.3886 67.1927 72.6929 65.2406C73.9973 63.2884 74.6935 60.9933 74.6934 58.6455C74.6898 55.4983 73.438 52.4811 71.2127 50.2557C68.9873 48.0303 65.9701 46.7785 62.8229 46.7749ZM62.8229 67.7662C61.019 67.7662 59.2556 67.2313 57.7556 66.2292C56.2557 65.227 55.0867 63.8025 54.3963 62.1359C53.706 60.4693 53.5253 58.6355 53.8772 56.8662C54.2291 55.097 55.0978 53.4718 56.3733 52.1962C57.6489 50.9206 59.274 50.052 61.0433 49.7C62.8125 49.3481 64.6464 49.5287 66.313 50.219C67.9796 50.9093 69.4041 52.0784 70.4063 53.5782C71.4085 55.0781 71.9434 56.8416 71.9434 58.6455C71.9407 61.0636 70.9789 63.3818 69.2691 65.0917C67.5592 66.8016 65.241 67.7634 62.8229 67.7662Z" fill="var(--fill-0, #005128)"/>
</g>
<defs>
<clipPath id="clip0_0_90">
<rect width="88" height="88" fill="white"/>
</clipPath>
</defs>
</svg>
