<svg preserveAspectRatio="none" width="100%" height="100%" overflow="visible" style="display: block;" viewBox="0 0 83.2956 84.3348" fill="none" xmlns="http://www.w3.org/2000/svg">
<g id="Icon">
<g id="Group">
<path id="Vector" fill-rule="evenodd" clip-rule="evenodd" d="M18.626 40.2676L18.3694 42.4181C18.3547 42.5592 18.2576 42.6766 18.1219 42.7187C18.1182 42.7206 18.1127 42.7224 18.1091 42.7224C17.1429 43.0341 16.2042 43.4227 15.304 43.8939C15.1757 43.9599 15.0199 43.9452 14.9062 43.8554C14.3764 43.4374 13.7476 42.9369 13.1902 42.5042C11.6851 41.3107 9.51806 41.3602 8.05506 42.6381L8.04773 42.6454C7.32173 43.287 6.63423 43.9727 5.98523 44.6932C5.9779 44.7006 5.97237 44.7079 5.96504 44.7153C4.68537 46.1819 4.63587 48.3526 5.84587 49.8779L7.18422 51.5774C7.27222 51.6892 7.28687 51.8414 7.22087 51.9661C7.21903 51.9716 7.21722 51.9752 7.21538 51.9789C6.75155 52.8809 6.36287 53.8214 6.06037 54.7894H6.05853C6.01636 54.9288 5.89538 55.0277 5.75238 55.0442C5.08138 55.1212 4.28391 55.2148 3.58357 55.3028C1.67324 55.5228 0.17721 57.0903 0.0470431 59.0263C0.0470431 59.0318 0.0470301 59.0354 0.0451968 59.0391C-0.0134699 60.0052 -0.0134229 60.9751 0.0360771 61.9431C0.0360771 61.9541 0.0360341 61.9632 0.0378675 61.9742C0.169867 63.9157 1.66955 65.4869 3.60371 65.7087L5.75238 65.9654C5.89354 65.9801 6.01088 66.0772 6.05305 66.2129C6.05488 66.2166 6.05674 66.222 6.05674 66.2257C6.3684 67.1919 6.75703 68.1306 7.2282 69.0308C7.2942 69.1591 7.27954 69.3149 7.1897 69.4286C6.7717 69.9584 6.2712 70.5872 5.83854 71.1446C4.64504 72.6497 4.69453 74.8167 5.97237 76.2797L5.9797 76.2871C6.62136 77.0131 7.30704 77.7006 8.02754 78.3496C8.03487 78.3569 8.04225 78.3624 8.04958 78.3698C9.51625 79.6494 11.6869 79.6989 13.2122 78.4889L14.9117 77.1506C15.0235 77.0626 15.1757 77.0479 15.3004 77.1139C15.3059 77.1158 15.3095 77.1176 15.3132 77.1194C16.2152 77.5832 17.1557 77.9719 18.1237 78.2744V78.2763C18.2631 78.3184 18.362 78.4394 18.3785 78.5824C18.4555 79.2534 18.5491 80.0509 18.6371 80.7512C18.8571 82.6616 20.4246 84.1576 22.3606 84.2878C22.3661 84.2878 22.3697 84.2878 22.3734 84.2896C23.3396 84.3483 24.3094 84.3482 25.2774 84.2987C25.2884 84.2987 25.2975 84.2988 25.3085 84.2969C27.25 84.1649 28.8212 82.6652 29.0431 80.7311L29.2997 78.5824C29.3144 78.4413 29.4115 78.3239 29.5472 78.2817C29.5509 78.2799 29.5564 78.2781 29.56 78.2781C30.5262 77.9664 31.4649 77.5778 32.3651 77.1066C32.4934 77.0406 32.6492 77.0553 32.7629 77.1451C33.2927 77.5631 33.9216 78.0636 34.4789 78.4963C35.9841 79.6898 38.151 79.6403 39.614 78.3624L39.6214 78.3551C40.3474 77.7134 41.0349 77.0278 41.6839 76.3073C41.6912 76.2999 41.6967 76.2925 41.7041 76.2852C42.9837 74.8185 43.0332 72.6479 41.8232 71.1226L40.4849 69.4231C40.3969 69.3112 40.3822 69.1591 40.4482 69.0344C40.4501 69.0289 40.4519 69.0253 40.4537 69.0216C40.9176 68.1196 41.3062 67.1791 41.6087 66.2111H41.6106C41.6527 66.0717 41.7737 65.9728 41.9167 65.9563C42.5877 65.8793 43.3852 65.7857 44.0855 65.6977C45.9959 65.4777 47.4919 63.9102 47.6221 61.9742C47.6221 61.9687 47.6221 61.9651 47.6239 61.9614C47.6826 60.9952 47.6825 60.0254 47.633 59.0574C47.633 59.0464 47.6331 59.0373 47.6312 59.0263C47.4992 57.0848 45.9996 55.5136 44.0654 55.2917L41.9167 55.0351C41.7756 55.0204 41.6582 54.9232 41.6161 54.7876C41.6142 54.7839 41.6124 54.7784 41.6124 54.7748C41.3007 53.8086 40.9121 52.8699 40.4409 51.9697C40.3749 51.8414 40.3896 51.6856 40.4794 51.5719C40.8974 51.0421 41.3979 50.4132 41.8306 49.8559C43.0241 48.3507 42.9746 46.1837 41.6967 44.7207L41.6894 44.7134C41.0477 43.9874 40.3621 43.2999 39.6416 42.6509C39.6342 42.6436 39.6269 42.6381 39.6195 42.6307C38.1529 41.3511 35.9822 41.3016 34.4569 42.5116L32.7574 43.8499C32.6456 43.9379 32.4934 43.9526 32.3687 43.8866C32.3632 43.8847 32.3596 43.8829 32.3559 43.8811C31.4539 43.4172 30.5134 43.0286 29.5454 42.7261V42.7242C29.406 42.682 29.3071 42.5611 29.2906 42.4181C29.2136 41.7471 29.12 40.9496 29.032 40.2493C28.812 38.3389 27.2445 36.8429 25.3085 36.7127C25.303 36.7127 25.2994 36.7127 25.2957 36.7109C24.3295 36.6522 23.3597 36.6523 22.3917 36.7018C22.3807 36.7018 22.3716 36.7017 22.3606 36.7036C20.4191 36.8356 18.8479 38.3352 18.626 40.2694V40.2676ZM22.2689 40.6874V40.6855C22.289 40.5187 22.4174 40.3867 22.5824 40.3647C23.4202 40.3207 24.2416 40.3207 25.0611 40.3702C25.2334 40.3831 25.3727 40.5169 25.3929 40.6874L25.6477 42.8416C25.8311 44.4219 26.9292 45.7474 28.4491 46.2241C29.2172 46.4661 29.9652 46.7759 30.6839 47.1444C32.0754 47.8704 33.7785 47.7127 35.0215 46.7337C35.5569 46.3212 36.1857 45.8226 36.7375 45.3844L36.7394 45.3826C36.8696 45.2781 37.0547 45.2763 37.1867 45.3771C37.81 45.9381 38.3912 46.5192 38.9357 47.1352C39.0494 47.2654 39.0531 47.4579 38.9449 47.5918L37.6047 49.2949C36.6147 50.5434 36.4534 52.2576 37.1922 53.6674C37.5644 54.3824 37.8742 55.1304 38.1217 55.8986C38.5911 57.3964 39.9074 58.4891 41.4804 58.6761C42.1496 58.7622 42.9471 58.8539 43.6474 58.9346H43.6492C43.8161 58.9547 43.9481 59.083 43.9701 59.248C44.0141 60.0859 44.0141 60.9073 43.9646 61.7268C43.9517 61.8991 43.8179 62.0384 43.6474 62.0586L41.4932 62.3134C39.9129 62.4968 38.5874 63.5949 38.1107 65.1147C37.8687 65.8829 37.5589 66.6309 37.1904 67.3496C36.4644 68.7411 36.6221 70.4442 37.6011 71.6872C38.0136 72.2226 38.5122 72.8514 38.9504 73.4032L38.9522 73.4051C39.0567 73.5352 39.0585 73.7204 38.9577 73.8524C38.3967 74.4757 37.8156 75.0569 37.1996 75.6014C37.0694 75.7151 36.8769 75.7187 36.743 75.6106L35.0399 74.2704C33.7914 73.2804 32.0772 73.1191 30.6674 73.8579C29.9524 74.2301 29.2044 74.5399 28.4362 74.7874C26.9384 75.2567 25.8457 76.5731 25.6587 78.1461C25.5725 78.8152 25.4809 79.6128 25.4002 80.3131V80.3149C25.3801 80.4818 25.2517 80.6137 25.0867 80.6357C24.2489 80.6797 23.4275 80.6798 22.608 80.6303C22.4357 80.6174 22.2964 80.4836 22.2762 80.3131L22.0214 78.1589C21.838 76.5786 20.7399 75.253 19.2201 74.7764C18.4519 74.5344 17.7039 74.2246 16.9852 73.8561C15.5937 73.1301 13.8906 73.2877 12.6476 74.2667C12.1122 74.6792 11.4834 75.1779 10.9316 75.6161L10.9297 75.6179C10.7996 75.7224 10.6144 75.7242 10.4824 75.6234C9.85907 75.0624 9.27789 74.4813 8.73339 73.8653C8.61972 73.7351 8.61605 73.5425 8.72421 73.4087L10.0644 71.7056C11.0544 70.4571 11.2157 68.7429 10.4769 67.3331C10.1047 66.6181 9.79489 65.8701 9.54739 65.1019C9.07806 63.6041 7.76172 62.5114 6.18872 62.3244C5.51955 62.2382 4.72204 62.1466 4.02171 62.0659H4.01986C3.85303 62.0457 3.72105 61.9174 3.69905 61.7524C3.65505 60.9146 3.65503 60.0932 3.70453 59.2737C3.71737 59.1014 3.85121 58.9621 4.02171 58.9419L6.17591 58.687C7.75624 58.5037 9.08174 57.4056 9.55841 55.8857C9.80041 55.1176 10.1102 54.3696 10.4787 53.6509C11.2047 52.2594 11.047 50.5563 10.068 49.3133C9.65555 48.7779 9.1569 48.1491 8.71873 47.5972L8.71688 47.5954C8.61238 47.4652 8.61057 47.2801 8.7114 47.1481C9.2724 46.5248 9.85354 45.9436 10.4695 45.3991C10.5997 45.2854 10.7922 45.2817 10.9261 45.3899L12.6292 46.7301C13.8777 47.7201 15.5919 47.8814 17.0017 47.1426C17.7167 46.7704 18.4647 46.4606 19.2329 46.2131C20.7307 45.7437 21.8234 44.4274 22.0104 42.8544C22.0966 42.1852 22.1882 41.3877 22.2689 40.6874Z" fill="var(--fill-0, #005128)"/>
</g>
<path id="Vector_2" fill-rule="evenodd" clip-rule="evenodd" d="M47.7779 51.2437C48.3444 51.3024 48.9201 51.3336 49.5012 51.3336C58.6092 51.3336 66.0012 43.9397 66.0012 34.8336C66.0012 25.7274 58.6092 18.3336 49.5012 18.3336C40.3951 18.3336 33.0012 25.7274 33.0012 34.8336C33.0012 35.4129 33.0324 35.9849 33.091 36.5496C33.1955 37.5561 34.0975 38.2875 35.104 38.183C36.1105 38.0804 36.8421 37.1784 36.7376 36.1719C36.6917 35.7319 36.6679 35.2846 36.6679 34.8336C36.6679 27.7514 42.4191 22.0002 49.5012 22.0002C56.5852 22.0002 62.3346 27.7514 62.3346 34.8336C62.3346 41.9157 56.5852 47.6669 49.5012 47.6669C49.0484 47.6669 48.5992 47.6431 48.1574 47.5972C47.1509 47.4927 46.2489 48.2242 46.1444 49.2307C46.038 50.2372 46.7714 51.1392 47.7779 51.2437Z" fill="var(--fill-0, #005128)"/>
<path id="Vector_3" fill-rule="evenodd" clip-rule="evenodd" d="M23.9812 29.9477C23.609 29.5426 23.158 29.2034 22.6429 28.9559C21.783 28.5361 20.7014 28.0173 19.792 27.5809C19.4804 27.4324 19.3154 27.0859 19.396 26.7504C19.682 25.7091 20.012 24.6916 20.3934 23.6942C20.5217 23.3697 20.8609 23.1809 21.2037 23.2432L24.3185 23.8079C26.095 24.1324 27.8917 23.3368 28.8451 21.8023C29.4097 20.8948 30.0422 20.0258 30.7279 19.2026C31.8847 17.8313 32.0845 15.8806 31.2284 14.2911C30.7774 13.4459 30.2072 12.3899 29.7287 11.5044C29.5656 11.2001 29.6352 10.8224 29.8956 10.5988C30.7407 9.9241 31.606 9.29525 32.5007 8.71225C32.794 8.52525 33.1791 8.57108 33.4192 8.82225L35.6082 11.1103C36.8567 12.4174 38.7762 12.8299 40.45 12.1479C41.44 11.7483 42.4612 11.4164 43.5007 11.1524C45.2424 10.7234 46.5513 9.26226 46.7915 7.47293C46.9253 6.5251 47.0848 5.33525 47.2187 4.33792C47.2645 3.99508 47.5432 3.7311 47.886 3.7036C48.9659 3.6541 50.0347 3.65226 51.1017 3.70726C51.45 3.72926 51.7342 3.99325 51.78 4.33792L52.2053 7.47475C52.4473 9.26591 53.7582 10.7271 55.5127 11.1598C56.5504 11.4183 57.5715 11.7501 58.567 12.1479C60.228 12.8244 62.1457 12.4119 63.3905 11.1066C64.056 10.4173 64.8847 9.54825 65.5795 8.81858H65.5814C65.8197 8.56925 66.1992 8.51976 66.4925 8.6976C67.3945 9.29343 68.2598 9.92042 69.0922 10.5933C69.3598 10.8133 69.435 11.1946 69.27 11.5007L67.7704 14.2893C66.9124 15.8806 67.114 17.8331 68.28 19.2136C68.9675 20.0331 69.5982 20.9021 70.1702 21.8096C71.1162 23.3312 72.9092 24.1269 74.6857 23.8006C75.6281 23.6356 76.8087 23.4193 77.8005 23.2378C78.1415 23.1754 78.477 23.3588 78.609 23.6759C78.9904 24.6879 79.3204 25.7054 79.599 26.7376C79.687 27.0731 79.5239 27.4251 79.2085 27.5772L76.3559 28.9504C74.7279 29.7332 73.7434 31.4327 73.8735 33.2349C73.9487 34.3001 73.9487 35.3744 73.8791 36.4451C73.7489 38.2326 74.7334 39.9302 76.3596 40.7112C77.2212 41.1311 78.3029 41.6499 79.2104 42.0862H79.2122C79.5239 42.2347 79.6871 42.5812 79.6082 42.9167C79.3222 43.9581 78.9922 44.9756 78.609 45.9729C78.4825 46.2974 78.1433 46.4862 77.8005 46.4239L74.6857 45.8593C72.9074 45.5348 71.1125 46.3304 70.1592 47.8649C69.5927 48.7724 68.9621 49.6414 68.2764 50.4646C67.1196 51.8359 66.9197 53.7866 67.7759 55.3761C68.225 56.2212 68.7952 57.2773 69.2737 58.1628C69.2737 58.1646 69.2755 58.1646 69.2755 58.1646C69.4387 58.4689 69.3691 58.8447 69.1069 59.0684C68.2636 59.7431 67.3982 60.3719 66.5035 60.9549C66.2102 61.1419 65.8233 61.0961 65.5832 60.8449L63.3942 58.5569C62.1475 57.2498 60.228 56.8372 58.5542 57.5192C57.5642 57.9189 56.543 58.2507 55.5035 58.5147C53.7619 58.9437 52.451 60.4049 52.2127 62.1943C52.0788 63.1421 51.9193 64.3319 51.7855 65.3293V65.3311C51.7397 65.6739 51.461 65.9361 51.1182 65.9636C51.021 65.9691 50.9349 65.9728 50.8487 65.9764C49.8385 66.0131 49.0484 66.8638 49.085 67.8758C49.1217 68.8859 49.9724 69.6779 50.9844 69.6394L51.3089 69.6266C53.4154 69.5074 55.1406 67.9087 55.4192 65.8169C55.5531 64.8269 55.7107 63.6444 55.8445 62.6929C55.8445 62.6893 55.8464 62.6856 55.8464 62.6801C55.8867 62.3849 56.103 62.1429 56.3927 62.0714C56.3963 62.0714 56.4 62.0696 56.4037 62.0696C57.6045 61.7652 58.7833 61.3802 59.9328 60.9164C59.9328 60.9164 59.9347 60.9164 59.9365 60.9146C60.2152 60.8009 60.5342 60.8706 60.7432 61.0888C61.4105 61.7891 62.2392 62.6562 62.9377 63.3822C64.3842 64.8984 66.7162 65.1771 68.4872 64.0386C68.4909 64.0367 68.4927 64.0349 68.4964 64.0331C69.4974 63.3804 70.4654 62.6783 71.3986 61.9321C71.4041 61.9284 71.4096 61.9247 71.4132 61.9192C73.0486 60.5846 73.5032 58.2764 72.5004 56.4211C72.0255 55.5411 71.459 54.4943 71.008 53.6436C71.0062 53.6399 71.0044 53.6362 71.0026 53.6326C70.8614 53.3704 70.8944 53.0477 71.0869 52.8186C71.0887 52.8167 71.0905 52.8131 71.0942 52.8113C71.8862 51.8579 72.6158 50.8551 73.2722 49.8046C73.2722 49.8027 73.2722 49.8028 73.274 49.8009C73.4317 49.5461 73.7324 49.4122 74.0275 49.4672C74.9809 49.6414 76.1597 49.8559 77.1516 50.0319C79.2141 50.4096 81.2637 49.2637 82.0282 47.3002C82.0282 47.2984 82.03 47.2948 82.0319 47.2911C82.459 46.1764 82.8275 45.0379 83.1447 43.8866C83.1465 43.8792 83.1483 43.8738 83.1502 43.8664C83.6873 41.8259 82.6992 39.6919 80.7962 38.7789C79.896 38.3481 78.8217 37.8329 77.9582 37.4094C77.9545 37.4094 77.9509 37.4076 77.9472 37.4058C77.6777 37.2756 77.5145 36.9951 77.5365 36.6981C77.5365 36.6944 77.5365 36.6908 77.5365 36.6853C77.619 35.4496 77.6191 34.2102 77.5311 32.9746C77.5311 32.9727 77.5311 32.9709 77.5311 32.9691C77.5091 32.6703 77.674 32.3861 77.9454 32.2559C78.818 31.8361 79.8997 31.3173 80.8035 30.8773C82.6955 29.9698 83.68 27.8394 83.1447 25.8008C83.1429 25.7989 83.1429 25.7952 83.1411 25.7916C82.8312 24.6384 82.4627 23.5018 82.041 22.3834C82.0392 22.3761 82.0356 22.3706 82.0337 22.3633C81.2692 20.3979 79.2159 19.2502 77.1405 19.6316C76.1579 19.8112 74.9846 20.0258 74.0367 20.1926C74.0331 20.1926 74.0294 20.1944 74.0257 20.1944C73.7324 20.2476 73.4354 20.1174 73.2777 19.8626C73.2759 19.8608 73.274 19.8571 73.2722 19.8534C72.6103 18.8047 71.8825 17.8019 71.085 16.8541C71.085 16.8522 71.0832 16.8522 71.0832 16.8504C70.8888 16.6212 70.854 16.2949 70.997 16.0291C71.4572 15.1784 72.0274 14.1224 72.5004 13.2351C73.4977 11.3889 73.0412 9.08625 71.4095 7.75158C71.4077 7.74975 71.4059 7.74793 71.4022 7.7461C70.4727 6.99443 69.5065 6.29225 68.5073 5.63409C68.5018 5.63042 68.4964 5.62676 68.4909 5.62309C66.7162 4.48276 64.3805 4.76142 62.9249 6.29042C62.2355 7.01276 61.4142 7.87443 60.7451 8.56743C60.7432 8.56926 60.7396 8.57293 60.7377 8.57476C60.5324 8.79109 60.2134 8.86075 59.9365 8.74708C59.9347 8.74525 59.931 8.74525 59.9274 8.74342C58.776 8.28325 57.5972 7.90008 56.3945 7.60125C56.3927 7.60125 56.3927 7.60126 56.3909 7.59943C56.0994 7.52793 55.8794 7.28408 55.8391 6.98525C55.7107 6.02642 55.5512 4.83842 55.4137 3.84109C55.135 1.76209 53.4117 0.167091 51.307 0.0479246C51.3052 0.0460912 51.3015 0.0460783 51.2979 0.0460783C50.1044 -0.0144217 48.9091 -0.0144047 47.7156 0.0405953C47.7082 0.0405953 47.7027 0.0405953 47.6954 0.0405953C45.5889 0.159762 43.8637 1.75843 43.585 3.85027C43.4512 4.84027 43.2935 6.02276 43.1597 6.97426C43.1579 6.97792 43.1579 6.9816 43.1579 6.9871C43.1175 7.28226 42.9012 7.52427 42.6115 7.59577C42.6078 7.59577 42.6042 7.59758 42.6005 7.59758C41.3997 7.90192 40.2208 8.28691 39.0713 8.75075C39.0695 8.75075 39.0695 8.75076 39.0677 8.75259C38.789 8.86626 38.4682 8.79659 38.261 8.57842C37.5919 7.87809 36.7651 7.01091 36.0666 6.28491C34.6201 4.76874 32.288 4.4901 30.5152 5.6286C30.5134 5.63044 30.5097 5.63225 30.5079 5.63409C29.5069 6.28675 28.5388 6.98891 27.6057 7.73508C27.6002 7.73875 27.5947 7.74242 27.5892 7.74792C25.9557 9.08259 25.4992 11.3908 26.5039 13.2461C26.9787 14.1261 27.5434 15.1729 27.9962 16.0236C27.998 16.0273 27.9999 16.0309 28.0017 16.0346C28.1429 16.2968 28.1099 16.6194 27.9174 16.8486C27.9155 16.8504 27.9119 16.8541 27.91 16.8559C27.118 17.8093 26.3884 18.8121 25.732 19.8626C25.732 19.8644 25.7302 19.8644 25.7302 19.8663C25.5707 20.1211 25.2719 20.2549 24.9767 20.1999C24.0234 20.0258 22.8445 19.8113 21.8527 19.6353C19.7902 19.2576 17.7405 20.4034 16.976 22.3669C16.9742 22.3687 16.9742 22.3724 16.9724 22.3761C16.5452 23.4908 16.1749 24.6292 15.8595 25.7806C15.8577 25.7879 15.8559 25.7934 15.854 25.8008C15.3169 27.8413 16.305 29.9752 18.2062 30.8882C19.1082 31.3191 20.1825 31.8343 21.046 32.2578C21.0497 32.2578 21.0534 32.2596 21.057 32.2614C21.1414 32.3036 21.2165 32.3586 21.277 32.4246C21.9609 33.1708 23.1214 33.2221 23.8675 32.5382C24.6137 31.8544 24.665 30.6939 23.9812 29.9477Z" fill="var(--fill-0, #005128)"/>
<g id="Group_2">
<path id="Vector_4" fill-rule="evenodd" clip-rule="evenodd" d="M23.8346 51.3336C18.7746 51.3336 14.6679 55.4402 14.6679 60.5002C14.6679 65.5602 18.7746 69.6669 23.8346 69.6669C28.8946 69.6669 33.0012 65.5602 33.0012 60.5002C33.0012 55.4402 28.8946 51.3336 23.8346 51.3336ZM23.8346 55.0002C26.8706 55.0002 29.3346 57.4642 29.3346 60.5002C29.3346 63.5362 26.8706 66.0002 23.8346 66.0002C20.7986 66.0002 18.3346 63.5362 18.3346 60.5002C18.3346 57.4642 20.7986 55.0002 23.8346 55.0002Z" fill="var(--fill-0, #005128)"/>
</g>
</g>
</svg>
