<svg preserveAspectRatio="none" width="100%" height="100%" overflow="visible" style="display: block;" viewBox="0 0 84.3333 73.3333" fill="none" xmlns="http://www.w3.org/2000/svg">
<g id="Line-Black">
<path id="Vector" fill-rule="evenodd" clip-rule="evenodd" d="M33.7003 62.3333L30.0337 69.6667H25.6667C24.6547 69.6667 23.8333 70.488 23.8333 71.5C23.8333 72.512 24.6547 73.3333 25.6667 73.3333H58.6667C59.6787 73.3333 60.5 72.512 60.5 71.5C60.5 70.488 59.6787 69.6667 58.6667 69.6667H54.2997L50.633 62.3333H78.8333C81.8712 62.3333 84.3333 59.8712 84.3333 56.8333C84.3333 46.299 84.3333 16.0343 84.3333 5.5C84.3333 2.46217 81.8712 0 78.8333 0H5.5C2.46217 0 0 2.46217 0 5.5V56.8333C0 59.8712 2.46217 62.3333 5.5 62.3333H33.7003ZM37.7997 62.3333H46.5337L50.2003 69.6667H34.133L37.7997 62.3333ZM80.6667 51.3333V56.8333C80.6667 57.8453 79.8453 58.6667 78.8333 58.6667H5.5C4.488 58.6667 3.66667 57.8453 3.66667 56.8333V51.3333H80.6667ZM80.6667 47.6667H3.66667V5.5C3.66667 4.488 4.488 3.66667 5.5 3.66667H78.8333C79.8453 3.66667 80.6667 4.488 80.6667 5.5V47.6667Z" fill="var(--fill-0, #005128)"/>
<path id="Vector_2" fill-rule="evenodd" clip-rule="evenodd" d="M69.666 9.16659V42.1666C69.666 43.1786 70.4873 43.9999 71.4993 43.9999C72.5113 43.9999 73.3327 43.1786 73.3327 42.1666V9.16659C73.3327 8.15459 72.5113 7.33325 71.4993 7.33325C70.4873 7.33325 69.666 8.15459 69.666 9.16659Z" fill="var(--fill-0, #005128)"/>
<path id="Vector_3" fill-rule="evenodd" clip-rule="evenodd" d="M62.334 16.5001V42.1667C62.334 43.1787 63.1553 44.0001 64.1673 44.0001C65.1793 44.0001 66.0007 43.1787 66.0007 42.1667V16.5001C66.0007 15.4881 65.1793 14.6667 64.1673 14.6667C63.1553 14.6667 62.334 15.4881 62.334 16.5001Z" fill="var(--fill-0, #005128)"/>
<path id="Vector_4" fill-rule="evenodd" clip-rule="evenodd" d="M55 22.2035V42.1667C55 43.1787 55.8213 44 56.8333 44C57.8453 44 58.6667 43.1787 58.6667 42.1667V22.2035C58.6667 21.1915 57.8453 20.3702 56.8333 20.3702C55.8213 20.3702 55 21.1915 55 22.2035Z" fill="var(--fill-0, #005128)"/>
<path id="Vector_5" fill-rule="evenodd" clip-rule="evenodd" d="M47.666 26.6402V42.1667C47.666 43.1787 48.4873 44.0001 49.4993 44.0001C50.5113 44.0001 51.3327 43.1787 51.3327 42.1667V26.6402C51.3327 25.6282 50.5113 24.8069 49.4993 24.8069C48.4873 24.8069 47.666 25.6282 47.666 26.6402Z" fill="var(--fill-0, #005128)"/>
<path id="Vector_6" fill-rule="evenodd" clip-rule="evenodd" d="M23.834 7.33325C14.7278 7.33325 7.33398 14.7271 7.33398 23.8333C7.33398 32.9394 14.7278 40.3333 23.834 40.3333C32.9402 40.3333 40.334 32.9394 40.334 23.8333C40.334 14.7271 32.9402 7.33325 23.834 7.33325ZM22.0007 11.1301C15.7838 12.0211 11.0007 17.3726 11.0007 23.8333C11.0007 30.9154 16.7518 36.6666 23.834 36.6666C30.2947 36.6666 35.6462 31.8834 36.5372 25.6666H27.5007C24.4628 25.6666 22.0007 23.2044 22.0007 20.1666V11.1301ZM25.6673 11.1301V20.1666C25.6673 21.1786 26.4887 21.9999 27.5007 21.9999H36.5372C35.7323 16.3826 31.2828 11.9349 25.6673 11.1301Z" fill="var(--fill-0, #005128)"/>
</g>
</svg>
