<svg preserveAspectRatio="none" width="100%" height="100%" overflow="visible" style="display: block;" viewBox="0 0 25.5 25.5" fill="none" xmlns="http://www.w3.org/2000/svg">
<g id="sms">
<g id="Vector" opacity="0">
</g>
<path id="Vector_2" d="M18.0625 3.71875H7.4375C4.25 3.71875 2.125 5.3125 2.125 9.03125V16.4688C2.125 20.1875 4.25 21.7812 7.4375 21.7812H18.0625C21.25 21.7812 23.375 20.1875 23.375 16.4688V9.03125C23.375 5.3125 21.25 3.71875 18.0625 3.71875ZM18.5619 10.1894L15.2363 12.8456C14.535 13.4088 13.6425 13.685 12.75 13.685C11.8575 13.685 10.9544 13.4088 10.2637 12.8456L6.93813 10.1894C6.59813 9.91313 6.545 9.40312 6.81062 9.06312C7.08687 8.72312 7.58625 8.65937 7.92625 8.93562L11.2519 11.5919C12.0594 12.24 13.43 12.24 14.2375 11.5919L17.5631 8.93562C17.9031 8.65937 18.4131 8.7125 18.6787 9.06312C18.955 9.40312 18.9019 9.91313 18.5619 10.1894Z" fill="var(--fill-0, white)"/>
</g>
</svg>
