<svg preserveAspectRatio="none" width="100%" height="100%" overflow="visible" style="display: block;" viewBox="0 0 135.629 174.317" fill="none" xmlns="http://www.w3.org/2000/svg">
<g id="Group">
<path id="Vector" d="M63.1945 145.019C64.0576 145.623 65.2441 145.412 65.8469 144.552C71.3383 136.714 71.739 128.276 71.6565 125.013C71.6298 123.961 70.7498 123.138 69.7045 123.157C68.6528 123.184 67.8222 124.057 67.8486 125.109C67.9218 127.996 67.5691 135.456 62.7274 142.366C62.1241 143.228 62.3333 144.415 63.1945 145.019Z" fill="url(#paint0_linear_0_36)"/>
<g id="Vector_2">
<mask id="path-2-inside-1_0_36" fill="white">
<path d="M135.618 169.642C135.351 165.786 134.53 161.564 133.177 157.095C132.872 156.088 131.809 155.519 130.802 155.824C129.796 156.128 129.227 157.191 129.531 158.198C130.802 162.394 131.571 166.333 131.818 169.905C131.841 170.226 131.595 170.508 131.267 170.508H111.098C113.199 165.489 114.214 161.955 114.262 161.786C114.55 160.775 113.963 159.722 112.952 159.434C111.94 159.146 110.888 159.732 110.599 160.743C110.586 160.786 109.391 164.937 106.955 170.508H97.7715C103.4 161.895 106.358 154.14 106.493 153.783C106.864 152.799 106.368 151.701 105.384 151.329C104.401 150.957 103.302 151.453 102.93 152.437C102.896 152.528 99.4777 161.468 93.1755 170.508H78.21C81.981 167.258 85.5644 163.792 88.903 160.165C89.6152 159.391 89.5652 158.187 88.7916 157.474C88.0177 156.762 86.8129 156.812 86.1007 157.586C81.8513 162.203 77.1911 166.548 72.2485 170.508H65.3578C65.0843 170.508 64.8492 170.305 64.8111 170.036C64.2109 165.792 62.6836 157.692 59.2003 151.126C58.1372 149.123 58.5914 147.597 58.9025 145.935C59.4187 143.178 58.6841 140.361 56.887 138.207L53.2434 133.84C51.5179 131.772 51.5399 128.787 53.296 126.745C58.9888 120.123 55.019 124.877 68.2561 108.744C68.3011 108.697 68.3991 108.705 68.4321 108.788C71.1585 115.704 76.7732 128.362 83.7409 135.43C88.2492 140.008 92.9696 139.813 99.2063 140.405C97.5214 143.147 95.095 146.771 91.8445 150.869C91.191 151.693 91.3291 152.891 92.153 153.544C92.5032 153.822 92.9206 153.957 93.3352 153.957C93.8966 153.957 94.4524 153.71 94.8284 153.236C98.8579 148.156 101.677 143.759 103.41 140.804L114.213 141.829C119.464 142.327 124.057 145.406 126.501 150.065C126.99 150.996 128.14 151.355 129.073 150.867C130.004 150.378 130.363 149.227 129.874 148.295C126.83 142.492 121.109 138.657 114.573 138.037L108.591 137.469C107.484 135.234 106.238 132.087 105.619 128.362C107.309 126.752 108.298 124.493 108.298 122.068V121.118C110.27 119.442 111.709 117.405 112.52 115.198C114.462 113.07 115.724 110.654 116.242 108.088L124.964 102.805C127.088 101.519 126.31 98.2528 123.833 98.0636L113.872 97.3037C113.705 97.064 113.53 96.8281 113.348 96.5961L119.918 87.4658C121.629 85.0895 118.972 82.0069 116.367 83.3508L103.564 89.9676C102.924 89.7548 102.269 89.5669 101.6 89.4042L98.5149 75.0117C97.809 71.7186 93.0826 71.7066 92.3742 75.0117L89.2892 89.4042C88.6199 89.5667 87.9643 89.7548 87.3253 89.9676L74.522 83.3505C71.92 82.0053 69.2596 85.088 70.9706 87.4656L77.541 96.5958C77.3592 96.8281 77.1842 97.064 77.0167 97.3035L67.0562 98.0634C66.3767 98.1152 65.7699 98.4293 65.3398 98.912L63.3852 92.789V91.3892C65.4065 90.743 66.575 88.6033 65.9974 86.5437C65.9974 86.5434 65.9971 86.5434 65.9971 86.5434L64.9206 82.7066C64.6641 81.7941 64.106 81.0461 63.3852 80.5385V75.956H65.536C68.6283 75.956 71.1441 73.4403 71.1441 70.348V67.4887C71.1441 65.5857 69.5957 64.0374 67.6925 64.0374H67.1709C69.5815 56.8755 66.5514 49.3248 60.0646 45.0993C58.4612 44.0555 56.389 44.0552 54.7861 45.0995C48.3813 49.2717 45.24 56.7919 47.6801 64.0377H47.1585C45.2552 64.0377 43.7069 65.586 43.7069 67.489V70.3487C43.7069 73.4411 46.2226 75.9568 49.315 75.9568H51.4658V82.3628L50.6406 82.5944C48.5294 83.187 47.3002 85.3747 47.8928 87.4862L48.9691 91.3224C49.2555 92.3429 49.922 93.1904 50.8463 93.7097C51.0463 93.8221 51.2538 93.9143 51.4658 93.9897C51.4658 98.2772 51.1934 93.4964 53.2386 120.97L50.4083 124.262C47.4338 127.722 47.3967 132.776 50.3194 136.28L53.9627 140.647C55.0294 141.926 55.4656 143.598 55.1591 145.235C54.8509 146.883 54.0912 149.622 55.836 152.911C59.1668 159.189 60.5851 167.352 61.0404 170.57C61.3428 172.706 63.1991 174.317 65.358 174.317H131.267C133.788 174.317 135.793 172.172 135.618 169.642ZM119.66 101.565L116.386 103.548C116.281 102.779 116.109 102.021 115.872 101.276L119.66 101.565ZM87.8267 133.932C88.1911 132.793 88.496 131.648 88.7403 130.502C93.3812 132.627 95.4028 132.963 97.4416 132.302C99.0131 131.792 100.623 131.191 102.149 130.502C102.678 132.985 103.435 135.198 104.216 137.055C93.5449 136.042 91.1717 136.348 87.8267 133.932ZM104.49 122.068C104.49 123.677 103.721 125.147 102.47 126.037C101.716 126.576 99.3353 127.664 96.5258 128.594C96.2069 128.699 95.5274 128.972 94.6243 128.679C93.0798 128.178 89.6957 126.938 88.4038 126.026C87.1531 125.124 86.3993 123.661 86.3993 122.068L86.4026 112.09C89.6932 111.41 92.9569 109.819 95.4447 107.407C98.6515 110.516 102.473 111.674 104.487 112.09L104.488 112.084C104.489 112.085 104.49 112.085 104.49 112.085V122.068ZM108.299 115.313V112.085C108.299 111.636 108.219 111.202 108.071 110.797C107.629 109.582 106.579 108.633 105.257 108.36H105.257C103.623 108.023 100.503 107.079 97.9634 104.543C96.5748 103.156 94.3148 103.156 92.9259 104.543C90.3864 107.079 87.2663 108.023 85.6325 108.36C83.8701 108.724 82.5907 110.291 82.5907 112.085V115.312C78.5698 108.298 85.2643 100.233 95.4449 100.233C105.555 100.233 112.354 108.239 108.299 115.313ZM114.354 88.679L110.657 93.8153C109.84 93.1389 108.951 92.5181 108.005 91.96L114.354 88.679ZM95.4449 78.8599L97.5666 88.7598C96.8686 88.7041 96.1609 88.675 95.4449 88.675C94.7287 88.675 94.0208 88.7039 93.3228 88.7598L95.4449 78.8599ZM111.182 100.118C112.508 102.313 112.946 104.659 112.578 106.946C110.204 100.269 102.705 96.4242 95.4447 96.4242C87.0927 96.4242 80.4015 101.063 78.3113 106.947C75.9779 92.4521 103.06 86.6173 111.182 100.118ZM76.536 88.679L82.8844 91.96C81.9381 92.5178 81.0497 93.1389 80.2321 93.8153L76.536 88.679ZM75.0176 101.276C74.7802 102.022 74.6086 102.779 74.5035 103.548L71.2291 101.565L75.0176 101.276ZM74.6469 108.088C75.1644 110.654 76.4271 113.071 78.3695 115.199C79.1802 117.406 80.6196 119.443 82.5907 121.119V122.068C82.5907 124.492 83.5799 126.751 85.2686 128.362C85.1305 129.193 84.9553 130.027 84.7443 130.861C78.7772 123.714 73.9043 112.282 71.9761 107.391C71.6991 106.689 71.2398 106.101 70.6586 105.672L74.6469 108.088ZM70.0644 105.313C69.2189 104.899 68.2363 104.789 67.2971 105.044L66.7403 103.299L70.0644 105.313ZM55.2777 97.1029C55.2769 97.097 55.2752 97.0912 55.2744 97.0853V93.6734L59.5763 92.466V97.0881C59.5763 97.1402 59.5342 97.1823 59.4824 97.1823H55.3683C55.313 97.1826 55.282 97.1359 55.2777 97.1029ZM64.1581 107.735L56.7453 116.769L55.5705 100.991H59.4824C60.3322 100.991 61.1338 100.711 61.7686 100.249L64.1581 107.735ZM56.8646 48.2911C57.2054 48.069 57.6459 48.0692 57.9861 48.2909C63.2813 51.7402 65.1592 57.3429 63.7252 62.3119C63.0716 59.9886 61.5347 57.9066 59.3417 56.4783C58.1781 55.7202 56.6734 55.7202 55.5093 56.4783C53.3163 57.9066 51.7794 59.9886 51.1258 62.3119C49.6879 57.3343 51.5788 51.7341 56.8646 48.2911ZM60.2124 64.0377H54.6384C54.8778 62.3677 55.8622 60.8529 57.4255 59.7786C58.9888 60.8529 59.9729 62.3675 60.2124 64.0377ZM49.315 72.1479C48.3227 72.1479 47.5155 71.3408 47.5155 70.3485V67.8462H67.3352V70.3485C67.3352 71.3408 66.528 72.1479 65.5358 72.1479C63.8054 72.1479 51.0438 72.1479 49.315 72.1479ZM59.5763 75.9565V80.0868L55.2744 81.2939V75.9565H59.5763ZM52.8321 90.403C52.748 90.4274 52.6597 90.3776 52.6363 90.2934L51.56 86.4571C51.5359 86.3715 51.5846 86.2852 51.6697 86.2613L61.0581 83.627C61.1282 83.6062 61.2285 83.6456 61.2539 83.7367L62.3302 87.573C62.3541 87.6573 62.3046 87.7451 62.2205 87.7688C61.2074 88.0529 53.8482 90.1176 52.8321 90.403Z"/>
</mask>
<path d="M135.618 169.642C135.351 165.786 134.53 161.564 133.177 157.095C132.872 156.088 131.809 155.519 130.802 155.824C129.796 156.128 129.227 157.191 129.531 158.198C130.802 162.394 131.571 166.333 131.818 169.905C131.841 170.226 131.595 170.508 131.267 170.508H111.098C113.199 165.489 114.214 161.955 114.262 161.786C114.55 160.775 113.963 159.722 112.952 159.434C111.94 159.146 110.888 159.732 110.599 160.743C110.586 160.786 109.391 164.937 106.955 170.508H97.7715C103.4 161.895 106.358 154.14 106.493 153.783C106.864 152.799 106.368 151.701 105.384 151.329C104.401 150.957 103.302 151.453 102.93 152.437C102.896 152.528 99.4777 161.468 93.1755 170.508H78.21C81.981 167.258 85.5644 163.792 88.903 160.165C89.6152 159.391 89.5652 158.187 88.7916 157.474C88.0177 156.762 86.8129 156.812 86.1007 157.586C81.8513 162.203 77.1911 166.548 72.2485 170.508H65.3578C65.0843 170.508 64.8492 170.305 64.8111 170.036C64.2109 165.792 62.6836 157.692 59.2003 151.126C58.1372 149.123 58.5914 147.597 58.9025 145.935C59.4187 143.178 58.6841 140.361 56.887 138.207L53.2434 133.84C51.5179 131.772 51.5399 128.787 53.296 126.745C58.9888 120.123 55.019 124.877 68.2561 108.744C68.3011 108.697 68.3991 108.705 68.4321 108.788C71.1585 115.704 76.7732 128.362 83.7409 135.43C88.2492 140.008 92.9696 139.813 99.2063 140.405C97.5214 143.147 95.095 146.771 91.8445 150.869C91.191 151.693 91.3291 152.891 92.153 153.544C92.5032 153.822 92.9206 153.957 93.3352 153.957C93.8966 153.957 94.4524 153.71 94.8284 153.236C98.8579 148.156 101.677 143.759 103.41 140.804L114.213 141.829C119.464 142.327 124.057 145.406 126.501 150.065C126.99 150.996 128.14 151.355 129.073 150.867C130.004 150.378 130.363 149.227 129.874 148.295C126.83 142.492 121.109 138.657 114.573 138.037L108.591 137.469C107.484 135.234 106.238 132.087 105.619 128.362C107.309 126.752 108.298 124.493 108.298 122.068V121.118C110.27 119.442 111.709 117.405 112.52 115.198C114.462 113.07 115.724 110.654 116.242 108.088L124.964 102.805C127.088 101.519 126.31 98.2528 123.833 98.0636L113.872 97.3037C113.705 97.064 113.53 96.8281 113.348 96.5961L119.918 87.4658C121.629 85.0895 118.972 82.0069 116.367 83.3508L103.564 89.9676C102.924 89.7548 102.269 89.5669 101.6 89.4042L98.5149 75.0117C97.809 71.7186 93.0826 71.7066 92.3742 75.0117L89.2892 89.4042C88.6199 89.5667 87.9643 89.7548 87.3253 89.9676L74.522 83.3505C71.92 82.0053 69.2596 85.088 70.9706 87.4656L77.541 96.5958C77.3592 96.8281 77.1842 97.064 77.0167 97.3035L67.0562 98.0634C66.3767 98.1152 65.7699 98.4293 65.3398 98.912L63.3852 92.789V91.3892C65.4065 90.743 66.575 88.6033 65.9974 86.5437C65.9974 86.5434 65.9971 86.5434 65.9971 86.5434L64.9206 82.7066C64.6641 81.7941 64.106 81.0461 63.3852 80.5385V75.956H65.536C68.6283 75.956 71.1441 73.4403 71.1441 70.348V67.4887C71.1441 65.5857 69.5957 64.0374 67.6925 64.0374H67.1709C69.5815 56.8755 66.5514 49.3248 60.0646 45.0993C58.4612 44.0555 56.389 44.0552 54.7861 45.0995C48.3813 49.2717 45.24 56.7919 47.6801 64.0377H47.1585C45.2552 64.0377 43.7069 65.586 43.7069 67.489V70.3487C43.7069 73.4411 46.2226 75.9568 49.315 75.9568H51.4658V82.3628L50.6406 82.5944C48.5294 83.187 47.3002 85.3747 47.8928 87.4862L48.9691 91.3224C49.2555 92.3429 49.922 93.1904 50.8463 93.7097C51.0463 93.8221 51.2538 93.9143 51.4658 93.9897C51.4658 98.2772 51.1934 93.4964 53.2386 120.97L50.4083 124.262C47.4338 127.722 47.3967 132.776 50.3194 136.28L53.9627 140.647C55.0294 141.926 55.4656 143.598 55.1591 145.235C54.8509 146.883 54.0912 149.622 55.836 152.911C59.1668 159.189 60.5851 167.352 61.0404 170.57C61.3428 172.706 63.1991 174.317 65.358 174.317H131.267C133.788 174.317 135.793 172.172 135.618 169.642ZM119.66 101.565L116.386 103.548C116.281 102.779 116.109 102.021 115.872 101.276L119.66 101.565ZM87.8267 133.932C88.1911 132.793 88.496 131.648 88.7403 130.502C93.3812 132.627 95.4028 132.963 97.4416 132.302C99.0131 131.792 100.623 131.191 102.149 130.502C102.678 132.985 103.435 135.198 104.216 137.055C93.5449 136.042 91.1717 136.348 87.8267 133.932ZM104.49 122.068C104.49 123.677 103.721 125.147 102.47 126.037C101.716 126.576 99.3353 127.664 96.5258 128.594C96.2069 128.699 95.5274 128.972 94.6243 128.679C93.0798 128.178 89.6957 126.938 88.4038 126.026C87.1531 125.124 86.3993 123.661 86.3993 122.068L86.4026 112.09C89.6932 111.41 92.9569 109.819 95.4447 107.407C98.6515 110.516 102.473 111.674 104.487 112.09L104.488 112.084C104.489 112.085 104.49 112.085 104.49 112.085V122.068ZM108.299 115.313V112.085C108.299 111.636 108.219 111.202 108.071 110.797C107.629 109.582 106.579 108.633 105.257 108.36H105.257C103.623 108.023 100.503 107.079 97.9634 104.543C96.5748 103.156 94.3148 103.156 92.9259 104.543C90.3864 107.079 87.2663 108.023 85.6325 108.36C83.8701 108.724 82.5907 110.291 82.5907 112.085V115.312C78.5698 108.298 85.2643 100.233 95.4449 100.233C105.555 100.233 112.354 108.239 108.299 115.313ZM114.354 88.679L110.657 93.8153C109.84 93.1389 108.951 92.5181 108.005 91.96L114.354 88.679ZM95.4449 78.8599L97.5666 88.7598C96.8686 88.7041 96.1609 88.675 95.4449 88.675C94.7287 88.675 94.0208 88.7039 93.3228 88.7598L95.4449 78.8599ZM111.182 100.118C112.508 102.313 112.946 104.659 112.578 106.946C110.204 100.269 102.705 96.4242 95.4447 96.4242C87.0927 96.4242 80.4015 101.063 78.3113 106.947C75.9779 92.4521 103.06 86.6173 111.182 100.118ZM76.536 88.679L82.8844 91.96C81.9381 92.5178 81.0497 93.1389 80.2321 93.8153L76.536 88.679ZM75.0176 101.276C74.7802 102.022 74.6086 102.779 74.5035 103.548L71.2291 101.565L75.0176 101.276ZM74.6469 108.088C75.1644 110.654 76.4271 113.071 78.3695 115.199C79.1802 117.406 80.6196 119.443 82.5907 121.119V122.068C82.5907 124.492 83.5799 126.751 85.2686 128.362C85.1305 129.193 84.9553 130.027 84.7443 130.861C78.7772 123.714 73.9043 112.282 71.9761 107.391C71.6991 106.689 71.2398 106.101 70.6586 105.672L74.6469 108.088ZM70.0644 105.313C69.2189 104.899 68.2363 104.789 67.2971 105.044L66.7403 103.299L70.0644 105.313ZM55.2777 97.1029C55.2769 97.097 55.2752 97.0912 55.2744 97.0853V93.6734L59.5763 92.466V97.0881C59.5763 97.1402 59.5342 97.1823 59.4824 97.1823H55.3683C55.313 97.1826 55.282 97.1359 55.2777 97.1029ZM64.1581 107.735L56.7453 116.769L55.5705 100.991H59.4824C60.3322 100.991 61.1338 100.711 61.7686 100.249L64.1581 107.735ZM56.8646 48.2911C57.2054 48.069 57.6459 48.0692 57.9861 48.2909C63.2813 51.7402 65.1592 57.3429 63.7252 62.3119C63.0716 59.9886 61.5347 57.9066 59.3417 56.4783C58.1781 55.7202 56.6734 55.7202 55.5093 56.4783C53.3163 57.9066 51.7794 59.9886 51.1258 62.3119C49.6879 57.3343 51.5788 51.7341 56.8646 48.2911ZM60.2124 64.0377H54.6384C54.8778 62.3677 55.8622 60.8529 57.4255 59.7786C58.9888 60.8529 59.9729 62.3675 60.2124 64.0377ZM49.315 72.1479C48.3227 72.1479 47.5155 71.3408 47.5155 70.3485V67.8462H67.3352V70.3485C67.3352 71.3408 66.528 72.1479 65.5358 72.1479C63.8054 72.1479 51.0438 72.1479 49.315 72.1479ZM59.5763 75.9565V80.0868L55.2744 81.2939V75.9565H59.5763ZM52.8321 90.403C52.748 90.4274 52.6597 90.3776 52.6363 90.2934L51.56 86.4571C51.5359 86.3715 51.5846 86.2852 51.6697 86.2613L61.0581 83.627C61.1282 83.6062 61.2285 83.6456 61.2539 83.7367L62.3302 87.573C62.3541 87.6573 62.3046 87.7451 62.2205 87.7688C61.2074 88.0529 53.8482 90.1176 52.8321 90.403Z" fill="url(#paint1_linear_0_36)" stroke="var(--stroke-0, #0A090E)" stroke-width="2" mask="url(#path-2-inside-1_0_36)"/>
</g>
<g id="Vector_3" filter="url(#filter0_f_0_36)">
<path d="M56.7764 40.8805C57.3662 40.4959 58.1288 40.4963 58.7177 40.88C67.8839 46.8509 71.1346 56.5493 68.6522 65.1507C67.5209 61.1291 64.8604 57.5251 61.0643 55.0528C59.05 53.7404 56.4454 53.7404 54.4302 55.0528C50.6341 57.5251 47.9737 61.1291 46.8423 65.1507C44.3533 56.5344 47.6264 46.8404 56.7764 40.8805ZM62.5714 68.1382H52.9226C53.3371 65.2474 55.0411 62.6253 57.7473 60.7657C60.4534 62.6253 62.157 65.247 62.5714 68.1382ZM43.7077 82.1773C41.99 82.1773 40.5928 80.7801 40.5928 79.0624V74.731H74.9013V79.0624C74.9013 80.7801 73.504 82.1773 71.7864 82.1773C68.7911 82.1773 46.7004 82.1773 43.7077 82.1773ZM61.4704 88.7701V95.9198L54.0236 98.0092V88.7701H61.4704Z" fill="var(--fill-0, #F69923)"/>
</g>
</g>
<defs>
<filter id="filter0_f_0_36" x="-8.64267e-07" y="-1.06376e-06" width="115.495" height="132.009" filterUnits="userSpaceOnUse" color-interpolation-filters="sRGB">
<feFlood flood-opacity="0" result="BackgroundImageFix"/>
<feBlend mode="normal" in="SourceGraphic" in2="BackgroundImageFix" result="shape"/>
<feGaussianBlur stdDeviation="17" result="effect1_foregroundBlur_0_36"/>
</filter>
<linearGradient id="paint0_linear_0_36" x1="67.0239" y1="123.157" x2="67.0239" y2="145.364" gradientUnits="userSpaceOnUse">
<stop stop-color="white"/>
<stop offset="0.490385" stop-color="white" stop-opacity="0.7"/>
<stop offset="1" stop-color="white" stop-opacity="0.3"/>
</linearGradient>
<linearGradient id="paint1_linear_0_36" x1="56.0286" y1="55.5151" x2="89.6678" y2="174.317" gradientUnits="userSpaceOnUse">
<stop stop-color="#F69923"/>
<stop offset="0.490385" stop-color="white" stop-opacity="0.7"/>
<stop offset="1" stop-color="white" stop-opacity="0.3"/>
</linearGradient>
</defs>
</svg>
