<svg preserveAspectRatio="none" width="100%" height="100%" overflow="visible" style="display: block;" viewBox="0 0 130 130" fill="none" xmlns="http://www.w3.org/2000/svg">
<g id="fi_8238332">
<path id="path4" fill-rule="evenodd" clip-rule="evenodd" d="M33.5162 28.6984C35.2631 28.1398 36.6077 28.1987 37.5706 28.5846C39.3073 29.2773 40.4062 31.0851 40.5951 33.6973C41.8606 35.1354 42.3867 36.4375 42.4862 37.4978C42.7401 40.24 40.3717 42.3951 36.5631 42.6998C34.6659 42.8522 32.4274 42.5637 30.3068 41.7878C29.9432 43.6525 29.0758 45.1719 27.6641 46.285C26.9593 46.8395 25.9904 46.8578 25.2733 46.3744C24.6254 47.5078 23.7336 48.5986 22.7769 49.4497C23.9205 51.873 25.7588 53.6828 27.7779 54.93L25.6958 58.3994C22.5677 56.4738 19.7544 53.5 18.3853 49.3928C18.0807 48.4767 18.4625 47.4712 19.2994 46.9898C20.2196 46.4617 21.1438 45.4197 21.7511 44.3472C22.0843 43.7601 22.3443 43.1731 22.3443 42.6572C22.3443 41.8365 22.8399 41.0951 23.5976 40.7803C24.3572 40.4654 25.2307 40.6401 25.8116 41.2211L26.1833 41.5948C26.4576 40.7884 26.4941 39.8215 26.4129 38.749C26.354 37.9751 26.7419 37.2337 27.4123 36.8417C28.0826 36.4496 28.9174 36.474 29.5654 36.9046C32.074 38.5784 35.4113 39.0537 37.5035 38.4261C37.9159 38.3021 38.2937 38.2006 38.442 37.9182C38.5131 37.7842 38.3932 37.6359 38.2957 37.4389C38.0763 36.99 37.6965 36.5065 37.1582 35.9682C36.7763 35.5884 36.5631 35.0704 36.5631 34.5321C36.5631 33.9329 36.5143 33.3906 36.3823 32.9356C36.3092 32.6837 36.2706 32.4379 36.0634 32.3546C35.7668 32.2368 35.387 32.3282 34.8995 32.4765C34.479 32.6045 34.0199 32.7934 33.5162 33.0493L33.5162 28.6984Z" fill="var(--fill-0, #3E5D53)"/>
<g id="path8" filter="url(#filter0_f_0_20)">
<path fill-rule="evenodd" clip-rule="evenodd" d="M27.7228 55.213C29.6708 56.6694 31.895 57.551 33.8633 57.9085C34.2696 57.9836 34.6433 58.1786 34.9358 58.4711C37.7552 61.2905 37.2332 64.0916 35.8235 66.909C35.6346 67.2909 35.4253 67.6707 35.2121 68.0526L34.7855 68.8143C34.5722 69.1941 34.365 69.576 34.1741 69.9559C34.0664 70.1732 33.9608 70.3885 33.8674 70.6038C37.6252 71.7657 38.6083 73.5674 38.9455 75.1051C39.0674 75.6637 39.0938 76.2264 39.0836 76.7768C39.0755 77.1425 39.0755 77.7376 39.0755 77.9712C39.2421 78.0342 39.6016 78.1621 39.9266 78.217C40.5624 78.3226 41.1108 78.7228 41.4033 79.2976C41.6958 79.8725 41.6979 80.5509 41.4094 81.1278C41.0194 81.9098 40.989 82.6919 41.1311 83.4089L37.2047 84.4529C36.9914 83.5267 36.9203 82.5375 37.0727 81.5218C36.6035 81.2659 36.2541 80.9754 35.988 80.6789C35.4721 80.1081 35.1938 79.4621 35.0699 78.7471C34.9663 78.15 34.9988 77.4857 35.0191 76.7931C35.0313 76.4071 35.1003 75.9826 34.8078 75.6068C34.296 74.9467 33.1788 74.5079 31.0703 74.0874C30.1197 73.8965 29.4372 73.0637 29.4372 72.0948C29.4372 70.1529 30.4935 68.1704 31.5802 66.2265C31.9458 65.5785 32.3013 64.9305 32.5572 64.2805C32.8883 63.4437 33.0061 62.5987 32.4171 61.7577C30.2883 61.2723 27.9909 60.3216 25.8906 58.8754L27.7228 55.213Z" fill="url(#paint0_linear_0_20)"/>
</g>
<path id="path8_2" fill-rule="evenodd" clip-rule="evenodd" d="M26.7228 54.213C28.6708 55.6694 30.895 56.551 32.8633 56.9085C33.2696 56.9836 33.6433 57.1786 33.9358 57.4711C36.7552 60.2905 36.2332 63.0916 34.8235 65.909C34.6346 66.2909 34.4253 66.6707 34.2121 67.0526L33.7855 67.8143C33.5722 68.1941 33.365 68.576 33.1741 68.9559C33.0664 69.1732 32.9608 69.3885 32.8674 69.6038C36.6252 70.7657 37.6083 72.5674 37.9455 74.1051C38.0674 74.6637 38.0938 75.2264 38.0836 75.7768C38.0755 76.1425 38.0755 76.7376 38.0755 76.9712C38.2421 77.0342 38.6016 77.1621 38.9266 77.217C39.5624 77.3226 40.1108 77.7228 40.4033 78.2976C40.6958 78.8725 40.6979 79.5509 40.4094 80.1278C40.0194 80.9098 39.989 81.6919 40.1311 82.4089L36.2047 83.4529C35.9914 82.5267 35.9203 81.5375 36.0727 80.5218C35.6035 80.2659 35.2541 79.9754 34.988 79.6789C34.4721 79.1081 34.1938 78.4621 34.0699 77.7471C33.9663 77.15 33.9988 76.4857 34.0191 75.7931C34.0313 75.4071 34.1003 74.9826 33.8078 74.6068C33.296 73.9467 32.1788 73.5079 30.0703 73.0874C29.1197 72.8965 28.4372 72.0637 28.4372 71.0948C28.4372 69.1529 29.4935 67.1704 30.5802 65.2265C30.9458 64.5785 31.3013 63.9305 31.5572 63.2805C31.8883 62.4437 32.0061 61.5987 31.4171 60.7577C29.2883 60.2723 26.9909 59.3216 24.8906 57.8754L26.7228 54.213Z" fill="url(#paint1_linear_0_20)"/>
<path id="path12" fill-rule="evenodd" clip-rule="evenodd" d="M40.0847 82.1245C40.168 82.7724 40.4056 83.3777 40.6636 83.8977C41.2669 85.1002 42.0611 85.9087 42.0611 85.9087C42.636 86.4835 42.8127 87.3448 42.51 88.0984C40.3061 93.6112 41.466 96.4793 42.3049 99.8736C42.6806 101.401 43.0117 103.014 43.0747 104.913C44.4377 104.263 45.9103 103.658 46.8224 100.922C47.0093 100.363 47.4277 99.9122 47.9721 99.6867C48.5164 99.4612 49.1319 99.4836 49.658 99.7476C51.5166 100.676 52.7272 102.262 53.6718 103.91L51.4293 108.391L51.4211 108.374C50.9194 107.44 50.44 106.329 49.788 105.305C49.6885 105.149 49.5849 104.994 49.4752 104.846C48.3397 106.68 46.9625 107.521 45.5955 108.204C44.4438 108.781 43.2108 109.061 42.441 110.597C41.986 111.507 40.9277 111.939 39.9649 111.61C39.0041 111.279 38.4333 110.288 38.6324 109.29C39.5688 104.617 38.5938 101.813 37.893 99.0103C37.1048 95.8598 36.5605 92.7093 38.3074 87.7429C37.7284 86.9812 36.9952 85.8518 36.5178 84.5173C36.3411 84.0196 36.1969 83.4955 36.1055 82.9532L40.0847 82.1245Z" fill="var(--fill-0, #3E5D53)"/>
<path id="path16" fill-rule="evenodd" clip-rule="evenodd" d="M52.5147 102.161C53.3252 103.201 53.9488 104.371 54.5033 105.48C54.7267 105.929 54.94 106.359 55.1635 106.745C55.5656 105.583 55.6956 104.296 55.9272 103.044C56.431 100.325 57.2374 97.7367 59.7196 95.8761C60.4488 95.3296 61.4502 95.3357 62.1733 95.8882C62.8964 96.4428 63.1625 97.4096 62.8233 98.2547C61.9458 100.452 62.6872 102.114 63.7069 103.414C64.365 104.255 65.1288 104.972 65.791 105.598C66.6786 105.531 67.3571 105.334 67.8811 104.96C68.5332 104.497 68.9151 103.788 69.2644 102.935C69.6808 101.925 70.0201 100.741 70.4101 99.4145L73.9404 101.769C73.6398 102.768 73.3534 103.678 73.0223 104.482C72.3479 106.116 71.4866 107.381 70.2374 108.271C69.0065 109.146 67.3672 109.689 65.0008 109.689C64.4625 109.689 63.9446 109.475 63.5647 109.093C62.4374 107.966 60.8693 106.55 59.746 104.751C59.7257 104.87 59.7053 104.992 59.685 105.112C59.3032 107.227 58.7791 109.274 57.4527 110.95C57.0667 111.435 56.4817 111.72 55.8602 111.72C53.9203 111.72 52.535 110.444 51.4219 108.374C51.0928 107.761 50.7719 107.07 50.4062 106.378L52.5147 102.161Z" fill="var(--fill-0, #3E5D53)"/>
<path id="path20" fill-rule="evenodd" clip-rule="evenodd" d="M70.1602 100.264C70.4689 99.2236 70.7899 98.0821 71.1981 96.8592C71.4216 96.191 71.9741 95.6852 72.6586 95.5247C73.3452 95.3622 74.0642 95.5674 74.5619 96.065C74.763 96.2661 74.9641 96.4388 75.1571 96.587V95.4699C75.1571 94.9316 75.3703 94.4136 75.7522 94.0338C75.7522 94.0338 79.0835 90.7452 81.844 89.5305C83.1704 88.9475 84.4115 88.8337 85.423 89.1628C86.8124 88.6916 88.023 88.7484 89.0204 89.0734C90.8769 89.6767 92.1119 91.2794 92.5243 92.9877C92.7152 93.7738 92.7274 94.572 92.5771 95.2992C92.5771 95.2992 93.1438 96.4327 93.1398 96.4266C94.5291 98.3055 95.427 100.085 96.0424 101.83L92.4694 103.973C91.9576 102.279 91.1573 100.554 89.7821 98.7199C89.709 98.6224 89.644 98.5188 89.5912 98.4091L88.5755 96.3778C88.2891 95.807 88.2891 95.1327 88.5755 94.5619C88.6629 94.3852 88.6283 94.1597 88.5755 93.9403C88.474 93.5219 88.2221 93.0852 87.7671 92.9369C87.3487 92.8008 86.8388 92.9166 86.2213 93.2233C85.5388 93.5666 84.7324 93.4914 84.1271 93.0567C83.861 93.1441 83.1033 93.4122 82.6199 93.7006C81.2894 94.5009 79.961 95.6547 79.2196 96.3392V99.5324C79.2196 100.654 78.3096 101.564 77.1883 101.564C77.1883 101.564 75.9086 101.608 74.2328 100.784C74.0419 101.426 73.8631 102.037 73.6824 102.612L70.1602 100.264Z" fill="var(--fill-0, #3E5D53)"/>
<path id="path24" fill-rule="evenodd" clip-rule="evenodd" d="M99.5321 67.0322H101.563C102.333 67.0322 103.036 67.4669 103.379 68.1555C105.589 72.5755 105.626 76.4349 105.626 79.4737C105.626 80.4771 105.616 81.3688 105.733 82.1387C105.823 82.7277 105.975 83.2173 106.534 83.4976C107.015 83.7373 107.383 84.1598 107.553 84.6717C109.41 90.2393 109.652 99.0692 109.682 101.117C110.239 102.447 111.72 106.654 111.72 113.751C111.72 114.513 111.293 115.212 110.615 115.559C109.938 115.906 109.122 115.845 108.502 115.401C108.136 115.136 107.74 115.104 107.35 115.067C106.832 115.019 106.308 115 105.782 114.925C104.846 114.795 103.909 114.525 102.981 113.859C102.88 114.052 102.778 114.265 102.703 114.464C102.008 116.317 101.563 119.097 101.563 121.876C101.563 122.788 100.954 123.591 100.074 123.834C99.1949 124.078 98.2605 123.704 97.7913 122.92C94.5595 117.535 93.9948 113.235 93.4566 109.195C93.1844 107.154 92.9264 105.185 92.1992 103.158L95.7986 101.176C96.7899 103.692 97.1453 106.122 97.4825 108.659C97.7263 110.477 97.9619 112.36 98.5103 114.395C99.0039 112.662 99.6336 111.283 100.292 110.528C100.968 109.756 101.734 109.39 102.461 109.309C103.288 109.215 104.184 109.437 105.031 110.284C105.815 111.068 106.666 110.938 107.456 110.999C107.495 111.003 107.533 111.005 107.574 111.009C107.214 105.321 105.841 102.472 105.841 102.472C105.699 102.189 105.626 101.878 105.626 101.564C105.626 101.564 105.648 92.5529 103.92 86.6562C102.213 85.4537 101.663 83.6215 101.582 81.1231C101.498 78.5921 101.927 75.139 100.259 71.0947H99.5321V67.0322Z" fill="var(--fill-0, #3E5D53)"/>
<path id="path28" fill-rule="evenodd" clip-rule="evenodd" d="M98.7838 50.9427L102.493 53.1689C101.955 55.5353 100.939 57.6458 98.6112 58.6249C96.454 60.6155 94.6929 60.5769 93.0232 60.3129C92.363 60.2072 91.7354 59.9432 91.0488 60.1138C90.415 60.2702 89.8361 60.8633 89.0338 62.0658C88.465 62.9169 87.3519 63.2135 86.4358 62.7544C85.2049 62.139 84.6036 63.3861 84.11 64.6171C83.6469 65.781 83.3788 67.1379 83.3016 68.3648C83.8419 69.1244 84.3355 70.1259 84.7417 71.302C85.3856 73.1687 85.8488 75.5127 86.1047 77.8081C86.6308 77.8832 87.1772 78.1107 87.7277 78.5231C88.398 79.0248 89.1475 79.9714 89.9093 80.857C91.6968 79.8942 92.1172 78.4581 92.6839 76.4431C93.2954 74.2696 93.984 71.5538 95.6841 68.1555C96.0274 67.4669 96.7302 67.0323 97.5001 67.0323H100.074V71.0948C99.6776 71.0948 98.7818 71.0948 98.7818 71.0948C97.2482 74.487 96.7932 77.0971 96.1269 79.0999C95.1621 81.9945 93.8763 83.9242 90.0169 85.21C89.2877 85.4517 88.4833 85.2628 87.9389 84.7184C87.4657 84.2451 86.7892 83.4936 86.2367 82.8679C85.9524 83.7881 85.0505 84.3934 84.0755 84.2857C83.0294 84.17 82.2433 83.2762 82.2656 82.224C82.3205 79.7093 81.967 76.4451 81.2663 73.8248C80.8783 72.3785 80.4436 71.1313 79.8139 70.4996C79.432 70.1198 79.2188 69.6018 79.2188 69.0635C79.2188 66.1771 80.1694 62.4497 81.902 60.4286C83.1411 58.9824 84.7072 58.1902 86.5922 58.5457C88.4508 56.3133 90.088 55.9761 91.5566 56.0147C92.2107 56.033 92.8485 56.161 93.4985 56.2727C94.2622 56.4047 95.0565 56.4474 96.064 55.4399C96.2874 55.2164 96.5576 55.0478 96.8582 54.9483C97.6971 54.67 98.0526 53.9835 98.2983 53.2319C98.5319 52.5128 98.668 51.7267 98.7838 50.9427Z" fill="var(--fill-0, #3E5D53)"/>
<path id="path32" fill-rule="evenodd" clip-rule="evenodd" d="M61.9531 35.3568C63.8828 36.3989 65.4591 36.9229 66.8627 37.1057C69.0645 37.3942 70.8053 36.8376 72.7777 36.3603C75.9119 35.6026 79.5154 34.912 85.4243 36.5167L97.167 34.5606C97.5854 34.4895 98.0181 34.5545 98.4 34.7414C100.953 36.0028 103.608 37.0915 105.635 38.6434C108.046 40.4878 109.688 42.9151 109.688 46.7197C109.688 47.394 109.352 48.0237 108.796 48.4016C108.237 48.7794 107.528 48.8566 106.903 48.6047C105.92 48.2126 105.132 47.9912 104.488 47.9384C104.177 47.912 103.931 47.91 103.744 48.0136C103.468 48.168 103.399 48.5011 103.293 48.8444C103.045 49.6426 102.936 50.5953 102.792 51.5561C102.668 52.3808 102.509 53.1994 102.286 53.9753L98.6823 51.5805C98.8225 50.7598 98.9159 49.923 99.0561 49.1491C99.4257 47.1198 100.171 45.4664 101.554 44.5909C102.351 44.0872 103.446 43.7723 104.973 43.9226C104.343 42.7404 103.31 41.8873 102.113 41.152C100.62 40.2339 98.8936 39.4884 97.1954 38.6739L85.6457 40.5975C85.3491 40.6482 85.0444 40.63 84.754 40.5487C78.1361 38.6576 74.8293 40.1262 71.5203 40.8351C68.7802 41.4222 66.0217 41.67 61.9531 39.8825V35.3568Z" fill="var(--fill-0, #3E5D53)"/>
<path id="path36" fill-rule="evenodd" clip-rule="evenodd" d="M37.5781 11.7394L42.0144 10.2607C42.8431 9.98441 43.7572 10.2708 44.2813 10.9696L48.9694 17.2218L53.4077 12.7835C53.8688 12.3224 54.5249 12.1091 55.1688 12.2147C55.8127 12.3183 56.3693 12.7266 56.6597 13.3116L60.7223 21.4366C61.1143 22.2187 60.9599 23.1632 60.3424 23.7807C59.1135 25.0116 58.5671 25.7652 58.5793 26.4782C58.5915 27.2481 59.1155 27.8229 59.4344 28.5135C60.0905 29.9354 60.5882 31.5442 59.5462 33.9045C60.8137 34.7393 61.943 35.3853 62.9688 35.8728V40.2968C60.9396 39.5331 58.5773 38.2432 55.6949 36.1856C54.8032 35.5478 54.5777 34.3168 55.1851 33.4048C55.8147 32.4603 56.0747 31.7696 56.0321 31.1684C55.9894 30.5346 55.6665 30.0431 55.4105 29.5434C55.179 29.0843 54.9596 28.6293 54.8011 28.154C54.2852 26.6062 54.143 24.7435 56.4627 21.9993L54.2872 17.6483L50.1861 21.7494C49.7697 22.1658 49.1929 22.3812 48.6058 22.3385C48.0188 22.2979 47.4785 22.0033 47.125 21.5321L41.9088 14.5791L37.5781 16.0213V11.7394Z" fill="var(--fill-0, #3E5D53)"/>
<path id="path40" fill-rule="evenodd" clip-rule="evenodd" d="M34.531 32.6004C33.7043 32.9051 32.7354 33.4312 31.5958 34.1909C30.9722 34.6073 30.1699 34.6459 29.5097 34.2925C28.8496 33.939 28.4372 33.2504 28.4372 32.5009C28.4372 31.5625 27.771 30.6626 27.32 29.7242C27.1494 29.3646 26.991 29.0051 26.8589 28.6436C26.0911 28.7857 25.2339 28.9462 24.3747 28.9462C22.1728 28.9462 19.9628 28.221 18.4962 25.2839C17.9945 24.2804 18.4008 23.0617 19.4042 22.5599C20.3325 22.0948 20.692 21.2457 20.9784 20.4149C21.2811 19.5374 21.4842 18.6376 21.7584 17.8555C22.4836 15.7816 23.613 14.3374 26.0891 14.2257C27.773 13.6326 27.8603 11.5119 26.6213 9.0338C26.1988 8.19083 26.4121 7.16911 27.1352 6.56583C27.8583 5.96254 28.9024 5.93614 29.656 6.50083L36.9299 11.9568L38.5935 11.4022V15.6841L37.2041 16.1473C36.5724 16.3565 35.8777 16.2448 35.3435 15.8446L31.4861 12.9521C31.1794 15.6374 29.4346 17.5549 26.9219 18.2151C26.7533 18.2598 26.5806 18.2821 26.406 18.2821C26.0017 18.2821 25.8535 18.5523 25.7255 18.8529C25.563 19.2327 25.4391 19.6613 25.3131 20.1102C24.8683 21.6662 24.3402 23.3196 23.225 24.6278C23.8039 24.9142 24.456 24.9081 25.0674 24.8431C26.3511 24.7029 27.5699 24.3759 28.4372 24.3759C29.5585 24.3759 30.4685 25.2859 30.4685 26.4071C30.4685 27.3456 31.1347 28.2454 31.5857 29.1839C31.6243 29.2692 31.6649 29.3525 31.7035 29.4378C32.7577 28.9198 33.7002 28.5989 34.531 28.4323V32.6004Z" fill="var(--fill-0, #3E5D53)"/>
</g>
<defs>
<filter id="filter0_f_0_20" x="11.8906" y="41.213" width="43.7336" height="57.2399" filterUnits="userSpaceOnUse" color-interpolation-filters="sRGB">
<feFlood flood-opacity="0" result="BackgroundImageFix"/>
<feBlend mode="normal" in="SourceGraphic" in2="BackgroundImageFix" result="shape"/>
<feGaussianBlur stdDeviation="7" result="effect1_foregroundBlur_0_20"/>
</filter>
<linearGradient id="paint0_linear_0_20" x1="36.8186" y1="74.4579" x2="16.8032" y2="34.9078" gradientUnits="userSpaceOnUse">
<stop stop-color="#F69923"/>
<stop offset="0.193179" stop-color="white" stop-opacity="0"/>
<stop offset="1" stop-color="white" stop-opacity="0"/>
</linearGradient>
<linearGradient id="paint1_linear_0_20" x1="35.8186" y1="73.4579" x2="15.8032" y2="33.9078" gradientUnits="userSpaceOnUse">
<stop stop-color="#F69923"/>
<stop offset="0.193179" stop-color="white" stop-opacity="0.7"/>
<stop offset="1" stop-color="white" stop-opacity="0.3"/>
</linearGradient>
</defs>
</svg>
