<svg preserveAspectRatio="none" width="100%" height="100%" overflow="visible" style="display: block;" viewBox="0 0 130 130" fill="none" xmlns="http://www.w3.org/2000/svg">
<g id="fi_1795462" clip-path="url(#clip0_0_32)">
<g id="Vector" filter="url(#filter0_f_0_32)">
<path d="M42.0766 98.1031L46.7257 97.6221L45.0364 108.502C44.822 109.883 45.8879 111.136 47.2953 111.136C48.402 111.136 49.3738 110.33 49.5488 109.203L51.4151 97.184C51.7862 94.7944 49.7936 92.7111 47.4025 92.9613L42.4251 93.4762L42.2181 92.3375L49.6676 85.7987C50.8735 84.7398 51.2537 83.0398 50.6138 81.5684L49.5062 79.0209C48.725 77.2246 46.6767 76.3554 44.8424 77.0441L38.6781 79.3557L36.157 78.9176L38.3091 69.1617H39.3177C40.951 69.1617 42.3658 68.1111 42.8383 66.5466L48.9138 46.3982C49.2779 45.191 48.5941 43.9169 47.3867 43.5528C46.1808 43.1887 44.9058 43.8722 44.5413 45.0799L38.6567 64.5954H37.5948C35.8826 64.5954 34.3723 65.8089 34.0033 67.4809L31.4971 78.8421C31.0462 80.8853 32.3952 82.8995 34.4591 83.2581C40.1567 84.2485 38.0229 84.4792 45.6553 81.6172L46.1674 82.795C36.6008 91.1922 37.0971 89.6989 38.0795 95.104C38.422 96.9821 40.175 98.3004 42.0766 98.1031Z" fill="url(#paint0_linear_0_32)"/>
</g>
<path id="Vector_2" d="M41.972 94.7599L45.8742 94.3561L44.4563 103.488C44.2764 104.647 45.171 105.699 46.3523 105.699C47.2812 105.699 48.0968 105.023 48.2438 104.076L49.8102 93.9884C50.1217 91.9828 48.4492 90.2342 46.4423 90.4442L42.2646 90.8763L42.0909 89.9207L48.3434 84.4324C49.3556 83.5437 49.6747 82.1168 49.1376 80.8818L48.208 78.7435C47.5523 77.2359 45.8331 76.5064 44.2935 77.0844L39.1196 79.0246L37.0035 78.6569L38.8099 70.4685H39.6564C41.0273 70.4685 42.2148 69.5866 42.6114 68.2735L47.7107 51.3622C48.0163 50.3491 47.4424 49.2797 46.429 48.9741C45.4168 48.6684 44.3467 49.2421 44.0408 50.2558L39.1017 66.6358H38.2104C36.7733 66.6358 35.5056 67.6543 35.1959 69.0577L33.0924 78.5935C32.7139 80.3084 33.8462 81.999 35.5784 82.3C40.3607 83.1312 38.5697 83.3249 44.9758 80.9227L45.4056 81.9113C37.3761 88.9594 37.7926 87.706 38.6172 92.2427C38.9047 93.819 40.376 94.9255 41.972 94.7599Z" fill="url(#paint1_linear_0_32)"/>
<path id="Vector_3" d="M95.7021 13.6277L90.927 10.1791V6.91671C90.927 5.30968 89.7199 3.98808 88.1195 3.84268L79.1532 3.02754C78.2928 2.94961 77.4312 3.23861 76.7924 3.82199C75.5763 4.93252 75.7868 6.20506 75.7868 7.90433L72.4629 8.63387C72.0942 7.41652 70.9939 6.5145 69.659 6.44909L66.899 6.31442C64.8067 6.21477 64.0647 7.86421 63.2299 9.16L61.7721 8.00756L63.0093 6.14168C63.7654 5.00125 63.6742 3.47728 62.7878 2.43599L61.6417 1.08833C60.6656 -0.0592569 59.0154 -0.334973 57.7196 0.431105L55.5295 1.72562L53.3314 1.46089C52.1723 1.3206 51.0503 1.83575 50.4 2.80344L46.068 9.24791C45.3573 10.3053 45.3745 11.7143 46.1109 12.7543L47.7642 15.0883C46.7405 16.5057 45.6479 17.6096 46.302 19.4177L50.1577 30.0588L46.2348 43.0379C45.9287 44.0511 46.5019 45.1207 47.515 45.4268C48.529 45.7335 49.5976 45.1601 49.9042 44.1469L53.8987 30.9299C54.0896 30.2977 54.0709 29.6075 53.846 28.986L50.0404 18.4835L51.1837 16.9003C51.9572 15.8296 51.9641 14.3861 51.2003 13.3085L49.5363 10.9592L53.326 5.32118C56.7299 5.7313 56.0763 5.85524 59.1289 4.05068L59.5042 4.49198L58.1985 6.4611C57.3184 7.78806 57.6074 9.6013 58.8565 10.5889L61.4981 12.6769C62.9235 13.8035 65.0193 13.4601 66.0072 11.9266L67.1428 10.1637L68.8454 10.2468C69.2238 11.8492 70.8324 12.915 72.5115 12.5473L77.1948 11.5193C78.6 11.2106 79.6198 9.94269 79.6198 8.50431V6.9185L87.094 7.59795V10.5603C87.094 11.549 87.5724 12.4844 88.3735 13.0627L93.0762 16.4592L92.0677 22.0057L84.2686 27.2071L80.9838 28.0914C79.6387 28.4535 78.6996 29.6793 78.6996 31.0722V33.1006C78.6996 34.1943 79.2866 35.2161 80.231 35.767L82.9131 37.3314L83.7154 45.7539L80.8757 46.971C79.7994 47.432 79.0666 48.4855 79.0083 49.6541C78.8064 53.6871 78.7035 53.1903 81.9978 55.9907L80.9894 59.1286L78.8057 61.3121L74.2524 60.3002C71.8519 59.7667 69.8187 62.1262 70.7015 64.4216L74.8488 75.2045C75.1948 76.1042 75.955 76.7992 76.8815 77.064L79.8061 77.8996L80.0013 81.4151C79.399 81.6985 78.2328 82.1099 77.7733 83.5567C77.283 85.1014 78.0552 86.0574 78.888 87.5249L77.0297 87.1209C74.8028 86.6354 72.8322 88.6533 73.3762 90.8726L74.9382 97.2409C75.2781 98.6251 76.5108 99.5917 77.9358 99.5917H80.9871L81.0574 101.773L74.7044 104.675C74.0807 104.96 73.563 105.452 73.2464 106.062L71.2415 109.926C70.8873 110.61 70.8009 111.396 70.9987 112.14L73.4127 121.228L64.5821 126.16L45.2845 123.147L47.215 111.631C47.3903 110.587 46.6858 109.599 45.642 109.424C44.5982 109.249 43.61 109.953 43.435 110.997L41.4822 122.645C41.1654 124.684 42.5659 126.601 44.6045 126.92C65.6134 130.201 64.1748 129.997 64.5944 129.997C65.2317 129.997 65.8659 129.834 66.4245 129.522L75.342 124.54C76.8373 123.705 77.5743 121.965 77.1348 120.31L74.777 111.434L76.5299 108.055L83.1016 105.053C84.2367 104.535 84.9443 103.394 84.9041 102.146L84.7945 98.7462C84.7401 97.0712 83.385 95.7593 81.7093 95.7593H78.5205L77.3829 91.1207L79.7046 91.6253C80.8931 91.8837 82.1265 91.4176 82.8469 90.4382C83.5675 89.4587 83.6452 88.1425 83.0449 87.0851L81.7611 84.8231L82.0877 84.6693C83.2317 84.1312 83.9255 82.9675 83.8555 81.7049L83.603 77.1565C83.5302 75.8448 82.6322 74.721 81.3689 74.36L78.2918 73.4809L74.7772 64.3437L78.3728 65.1427C79.4085 65.373 80.4751 65.0628 81.2255 64.3123C84.9849 60.5529 84.0749 62.0526 85.798 56.6903C86.1818 55.4985 85.8133 54.2043 84.8589 53.393L82.7477 51.5984L82.8121 50.3105L85.7247 49.0623C86.963 48.5318 87.7094 47.2741 87.5816 45.9323L86.6918 36.587C86.5978 35.6002 86.0308 34.7127 85.1742 34.2129L82.5318 32.6716V31.6433C85.613 30.8139 85.7487 30.8264 86.2927 30.4633L94.4564 25.0187C95.1494 24.5569 95.6323 23.8223 95.7818 23.0023L96.9314 16.6808C97.1433 15.5189 96.6606 14.3199 95.7021 13.6277Z" fill="var(--fill-0, white)" fill-opacity="0.2"/>
</g>
<defs>
<filter id="filter0_f_0_32" x="17.4102" y="29.455" width="48.0496" height="95.6814" filterUnits="userSpaceOnUse" color-interpolation-filters="sRGB">
<feFlood flood-opacity="0" result="BackgroundImageFix"/>
<feBlend mode="normal" in="SourceGraphic" in2="BackgroundImageFix" result="shape"/>
<feGaussianBlur stdDeviation="7" result="effect1_foregroundBlur_0_32"/>
</filter>
<linearGradient id="paint0_linear_0_32" x1="45.3359" y1="88.0008" x2="-11.9571" y2="25.6748" gradientUnits="userSpaceOnUse">
<stop stop-color="#F69923"/>
<stop offset="0.193179" stop-color="white" stop-opacity="0"/>
<stop offset="1" stop-color="white" stop-opacity="0"/>
</linearGradient>
<linearGradient id="paint1_linear_0_32" x1="44.7077" y1="86.2807" x2="-3.38014" y2="33.9684" gradientUnits="userSpaceOnUse">
<stop stop-color="#F69923"/>
<stop offset="0.193179" stop-color="white" stop-opacity="0.7"/>
<stop offset="1" stop-color="white" stop-opacity="0.3"/>
</linearGradient>
<clipPath id="clip0_0_32">
<rect width="130" height="130" fill="white"/>
</clipPath>
</defs>
</svg>
