<svg preserveAspectRatio="none" width="100%" height="100%" overflow="visible" style="display: block;" viewBox="0 0 20.9721 20.9721" fill="none" xmlns="http://www.w3.org/2000/svg">
<g id="Frame">
<path id="Vector" d="M10.4848 1.96606C8.7997 1.96606 7.15246 2.46575 5.75136 3.40193C4.35026 4.33811 3.25824 5.66875 2.61339 7.22556C1.96854 8.78237 1.79981 10.4955 2.12856 12.1482C2.4573 13.8009 3.26874 15.319 4.46028 16.5105C5.65181 17.702 7.16992 18.5135 8.82263 18.8422C10.4753 19.171 12.1884 19.0022 13.7452 18.3574C15.302 17.7125 16.6327 16.6205 17.5688 15.2194C18.505 13.8183 19.0047 12.1711 19.0047 10.486C19.0023 8.2271 18.1039 6.06141 16.5066 4.46413C14.9094 2.86685 12.7437 1.96845 10.4848 1.96606ZM14.2254 8.98354L9.6377 13.5712C9.57684 13.6321 9.50456 13.6805 9.42499 13.7135C9.34543 13.7464 9.26015 13.7634 9.17402 13.7634C9.0879 13.7634 9.00261 13.7464 8.92305 13.7135C8.84349 13.6805 8.77121 13.6321 8.71034 13.5712L6.7442 11.6051C6.62123 11.4821 6.55214 11.3153 6.55214 11.1414C6.55214 10.9675 6.62123 10.8007 6.7442 10.6777C6.86718 10.5547 7.03397 10.4856 7.20788 10.4856C7.3818 10.4856 7.54859 10.5547 7.67157 10.6777L9.17402 12.181L13.298 8.05618C13.3589 7.99529 13.4312 7.94699 13.5107 7.91403C13.5903 7.88108 13.6756 7.86412 13.7617 7.86412C13.8478 7.86412 13.9331 7.88108 14.0126 7.91403C14.0922 7.94699 14.1645 7.99529 14.2254 8.05618C14.2863 8.11707 14.3346 8.18936 14.3675 8.26892C14.4005 8.34848 14.4174 8.43375 14.4174 8.51986C14.4174 8.60597 14.4005 8.69124 14.3675 8.7708C14.3346 8.85036 14.2863 8.92265 14.2254 8.98354Z" fill="var(--fill-0, white)"/>
</g>
</svg>
