<svg preserveAspectRatio="none" width="100%" height="100%" overflow="visible" style="display: block;" viewBox="0 0 20.9721 20.9721" fill="none" xmlns="http://www.w3.org/2000/svg">
<g id="Frame">
<path id="Vector" d="M10.4887 1.96619C8.8036 1.96619 7.15636 2.46587 5.75527 3.40205C4.35417 4.33824 3.26215 5.66887 2.6173 7.22568C1.97244 8.7825 1.80372 10.4956 2.13246 12.1483C2.46121 13.801 3.27265 15.3191 4.46418 16.5106C5.65572 17.7022 7.17383 18.5136 8.82653 18.8423C10.4792 19.1711 12.1923 19.0024 13.7491 18.3575C15.3059 17.7127 16.6366 16.6206 17.5728 15.2195C18.5089 13.8184 19.0086 12.1712 19.0086 10.4861C19.0062 8.22723 18.1078 6.06153 16.5106 4.46425C14.9133 2.86697 12.7476 1.96857 10.4887 1.96619ZM14.2293 8.98366L9.64161 13.5713C9.58074 13.6323 9.50846 13.6806 9.4289 13.7136C9.34934 13.7466 9.26406 13.7635 9.17793 13.7635C9.0918 13.7635 9.00652 13.7466 8.92696 13.7136C8.8474 13.6806 8.77511 13.6323 8.71425 13.5713L6.74811 11.6052C6.62513 11.4822 6.55605 11.3154 6.55605 11.1415C6.55605 10.9676 6.62513 10.8008 6.74811 10.6778C6.87108 10.5548 7.03788 10.4858 7.21179 10.4858C7.3857 10.4858 7.5525 10.5548 7.67547 10.6778L9.17793 12.1811L13.3019 8.0563C13.3628 7.99541 13.4351 7.94711 13.5146 7.91415C13.5942 7.8812 13.6795 7.86424 13.7656 7.86424C13.8517 7.86424 13.937 7.8812 14.0165 7.91415C14.0961 7.94711 14.1684 7.99541 14.2293 8.0563C14.2902 8.11719 14.3385 8.18948 14.3714 8.26904C14.4044 8.3486 14.4213 8.43387 14.4213 8.51998C14.4213 8.6061 14.4044 8.69137 14.3714 8.77092C14.3385 8.85048 14.2902 8.92277 14.2293 8.98366Z" fill="var(--fill-0, white)"/>
</g>
</svg>
