<svg preserveAspectRatio="none" width="100%" height="100%" overflow="visible" style="display: block;" viewBox="0 0 20.9721 20.9721" fill="none" xmlns="http://www.w3.org/2000/svg">
<g id="Frame">
<path id="Vector" d="M10.4848 1.96621C8.79972 1.96621 7.15248 2.4659 5.75138 3.40208C4.35029 4.33826 3.25826 5.66889 2.61341 7.22571C1.96856 8.78252 1.79983 10.4956 2.12858 12.1483C2.45732 13.801 3.26877 15.3191 4.4603 16.5106C5.65183 17.7022 7.16994 18.5136 8.82265 18.8424C10.4754 19.1711 12.1884 19.0024 13.7452 18.3575C15.3021 17.7127 16.6327 16.6207 17.5689 15.2196C18.5051 13.8185 19.0047 12.1712 19.0047 10.4861C19.0024 8.22725 18.104 6.06156 16.5067 4.46428C14.9094 2.867 12.7437 1.9686 10.4848 1.96621ZM14.2254 8.98369L9.63773 13.5713C9.57686 13.6323 9.50458 13.6806 9.42502 13.7136C9.34545 13.7466 9.26017 13.7636 9.17404 13.7636C9.08792 13.7636 9.00263 13.7466 8.92307 13.7136C8.84351 13.6806 8.77123 13.6323 8.71036 13.5713L6.74422 11.6052C6.62125 11.4822 6.55216 11.3154 6.55216 11.1415C6.55216 10.9676 6.62125 10.8008 6.74422 10.6778C6.8672 10.5549 7.03399 10.4858 7.20791 10.4858C7.38182 10.4858 7.54861 10.5549 7.67159 10.6778L9.17404 12.1811L13.298 8.05633C13.3589 7.99543 13.4312 7.94713 13.5108 7.91418C13.5903 7.88122 13.6756 7.86426 13.7617 7.86426C13.8478 7.86426 13.9331 7.88122 14.0126 7.91418C14.0922 7.94713 14.1645 7.99543 14.2254 8.05633C14.2863 8.11722 14.3346 8.18951 14.3675 8.26906C14.4005 8.34862 14.4174 8.43389 14.4174 8.52001C14.4174 8.60612 14.4005 8.69139 14.3675 8.77095C14.3346 8.85051 14.2863 8.9228 14.2254 8.98369Z" fill="var(--fill-0, white)"/>
</g>
</svg>
