<svg width="88" height="88" viewBox="0 0 88 88" fill="none" xmlns="http://www.w3.org/2000/svg">
<g clip-path="url(#clip0_104_2719)">
<path d="M86.8095 72.5586L75.6859 53.6345C76.9718 49.7434 77.6398 45.6289 77.6398 41.4117C77.6398 31.0426 73.6019 21.2939 66.2698 13.9618C58.9377 6.62976 49.1892 2.5918 38.8199 2.5918C28.4506 2.5918 18.7021 6.62958 11.37 13.9617C4.03796 21.2938 0 31.0424 0 41.4115C0 51.7806 4.03796 61.5293 11.37 68.8614C18.7021 76.1935 28.4506 80.2315 38.8199 80.2315C39.9061 80.2315 40.9851 80.1845 42.0556 80.0967C42.1983 80.4429 42.3643 80.7831 42.5545 81.1157C44.0925 83.804 46.8599 85.4089 49.9571 85.4089H79.4571C82.5543 85.4089 85.3217 83.804 86.8597 81.1157C88.3977 78.4276 88.379 75.2285 86.8095 72.5586ZM82.3843 78.5553C81.7761 79.6184 80.6818 80.2529 79.4569 80.2529H49.9569C48.7322 80.2529 47.6378 79.6182 47.0295 78.5553C46.4213 77.4923 46.4287 76.2272 47.0493 75.1712L61.7994 50.0778C62.4209 49.0207 63.4806 48.4142 64.7068 48.4142C65.9331 48.4142 66.993 49.0205 67.6143 50.0778L82.3644 75.1712C82.9853 76.227 82.9927 77.4921 82.3843 78.5553ZM5.15594 41.4115C5.15594 22.8491 20.2575 7.74756 38.8199 7.74756C57.3823 7.74756 72.4839 22.8491 72.4839 41.4115C72.4839 43.4253 72.3057 45.3981 71.965 47.3156C70.4012 44.7732 67.7031 43.2584 64.707 43.2584C61.6516 43.2584 58.903 44.831 57.3545 47.4653L42.6044 72.5587C42.1555 73.3225 41.8379 74.1303 41.6428 74.9564C40.7118 75.0341 39.7707 75.0759 38.8199 75.0759C20.2575 75.0755 5.15594 59.974 5.15594 41.4115Z" fill="#005128"/>
<path d="M64.707 66.9775C66.1308 66.9775 67.285 65.8232 67.285 64.3995V59.4422C67.285 58.0185 66.1308 56.8643 64.707 56.8643C63.2833 56.8643 62.1291 58.0185 62.1291 59.4422V64.3995C62.1291 65.8232 63.2833 66.9775 64.707 66.9775Z" fill="#005128"/>
<path d="M64.7071 70.0195C63.3586 70.0195 62.0667 71.2052 62.1291 72.5975C62.1917 73.9942 63.2619 75.1755 64.7071 75.1755C66.0555 75.1755 67.3474 73.9898 67.2851 72.5975C67.2225 71.2008 66.1523 70.0195 64.7071 70.0195Z" fill="#005128"/>
<path d="M23.286 64.6994C22.7478 64.6994 22.205 64.5315 21.7413 64.1836C20.6024 63.3293 20.3714 61.7134 21.2257 60.5745L36.2432 40.5511L36.2639 21.9881C36.2654 20.5654 37.4195 19.4131 38.8418 19.4131H38.8448C40.2685 19.4146 41.4215 20.5701 41.4198 21.994L41.3983 41.4147C41.3978 41.9715 41.2168 42.5132 40.8827 42.9585L25.3505 63.6682C24.844 64.3433 24.0699 64.6994 23.286 64.6994Z" fill="#005128"/>
</g>
<defs>
<clipPath id="clip0_104_2719">
<rect width="88" height="88" fill="white"/>
</clipPath>
</defs>
</svg>
