<svg width="88" height="88" viewBox="0 0 88 88" fill="none" xmlns="http://www.w3.org/2000/svg">
<path d="M64.77 85.3638C64.4054 85.3636 64.0558 85.2187 63.7979 84.961L47.4403 68.606C45.195 69.2819 42.8008 69.2838 40.5545 68.6115L24.2022 84.961C24.0359 85.1271 23.8299 85.2479 23.6037 85.3118C23.3776 85.3757 23.1388 85.3807 22.9102 85.3261C22.6816 85.2716 22.4708 85.1594 22.2978 85.0003C22.1248 84.8412 21.9955 84.6404 21.9221 84.4171L19.2554 76.2799L11.0833 73.6105C10.86 73.5376 10.6591 73.4088 10.4997 73.2362C10.3404 73.0637 10.2278 72.8532 10.1729 72.6249C10.118 72.3965 10.1224 72.1579 10.1859 71.9318C10.2494 71.7056 10.3697 71.4995 10.5354 71.3331L21.7852 60.0511C19.983 57.555 19.4865 53.8537 16.8196 52.2133C15.2676 51.0997 14.0013 49.6345 13.1242 47.9376C12.2472 46.2407 11.7843 44.3602 11.7734 42.4501C11.6646 40.1866 12.8549 38.0741 12.8074 35.9148C12.8585 33.6244 11.6656 31.629 11.7734 29.26C11.7854 27.3764 12.2393 25.5219 13.0985 23.8455C13.9576 22.1692 15.1981 20.7179 16.7202 19.6082C18.3089 18.4582 19.4948 16.8368 20.1094 14.9743C20.8872 12.5672 22.4087 10.469 24.4549 8.98162C26.5011 7.49427 28.9665 6.69451 31.4961 6.69746C33.4572 6.69367 35.3678 6.07468 36.9585 4.9277C39.008 3.44451 41.4736 2.64647 44.0035 2.64746C46.5334 2.64845 48.9984 3.44841 51.0468 4.9332C52.6368 6.07694 54.5451 6.69396 56.5038 6.6976C59.0354 6.69511 61.5024 7.49643 63.5492 8.9861C65.5961 10.4758 67.1172 12.5769 67.8932 14.9865C68.5088 16.8431 69.6926 18.459 71.2773 19.6055C72.8048 20.721 74.0487 22.18 74.9085 23.8648C75.7683 25.5496 76.2198 27.4129 76.2267 29.3044C76.1216 32.48 74.4539 35.7026 75.5956 38.6649C76.4043 41.0799 76.4214 43.6901 75.6442 46.1155C74.8671 48.5409 73.3362 50.655 71.2745 52.1503C68.4728 53.8734 68.0606 57.4789 66.2149 60.0499L77.4647 71.3331C77.6304 71.4996 77.7508 71.7057 77.8142 71.9318C77.8777 72.1579 77.8821 72.3966 77.8272 72.6249C77.7723 72.8533 77.6598 73.0637 77.5004 73.2363C77.341 73.4088 77.1401 73.5376 76.9169 73.6105L68.7447 76.2799L66.078 84.4172C65.9866 84.6921 65.8112 84.9313 65.5765 85.1012C65.3418 85.271 65.0597 85.3629 64.77 85.3638ZM50.107 67.3814L64.1605 81.4349L66.3465 74.7612C66.4141 74.556 66.5291 74.3695 66.6821 74.217C66.8351 74.0644 67.0219 73.95 67.2274 73.883L73.9359 71.6916L64.3753 62.1002C62.2039 64.0238 59.4048 65.0882 56.5039 65.0932C54.1892 65.1911 51.9587 65.989 50.107 67.3814ZM14.0642 71.6917L20.7727 73.8831C20.9781 73.9501 21.1649 74.0645 21.3179 74.217C21.4709 74.3696 21.5859 74.556 21.6535 74.7612L23.8398 81.4349L37.8959 67.3814C36.0681 66.0142 33.8774 65.2169 31.5984 65.0893C28.6628 65.114 25.8226 64.0485 23.6277 62.0989L14.0642 71.6917ZM40.7667 65.7835L40.7695 65.7849C46.7603 68.4864 50.626 61.9806 56.6061 62.347C58.5925 62.2786 60.5089 61.596 62.0913 60.3931C63.6736 59.1903 64.8441 57.5264 65.4414 55.6307C66.234 53.2981 67.746 51.277 69.76 49.8582C71.3065 48.713 72.454 47.1106 73.04 45.2776C73.626 43.4446 73.621 41.4737 73.0256 39.6438C71.5877 35.935 73.2307 32.6894 73.4793 29.2265C73.4626 27.781 73.1084 26.3594 72.4449 25.0751C71.7814 23.7908 70.827 22.6793 69.6577 21.8292C67.6079 20.343 66.0767 18.2505 65.2803 15.8472C64.6846 13.9879 63.5135 12.3661 61.936 11.2158C60.3585 10.0655 58.4563 9.44624 56.5039 9.44749C53.9625 9.44164 51.4868 8.63956 49.4248 7.15399C47.8485 6.01027 45.9511 5.39392 44.0036 5.39296C42.0561 5.39199 40.158 6.00647 38.5806 7.14863C36.5178 8.6374 34.04 9.44145 31.4961 9.44746C29.5457 9.44575 27.6451 10.0634 26.0683 11.2114C24.4915 12.3594 23.3199 13.9784 22.7224 15.835C21.927 18.2443 20.3937 20.3423 18.3398 21.832C17.1625 22.6912 16.2038 23.8153 15.5409 25.1133C14.878 26.4113 14.5295 27.847 14.5236 29.3045C14.5059 31.525 15.6805 33.5802 15.5576 35.915C15.6836 38.1112 14.5036 40.2908 14.5236 42.4086C14.5247 43.8735 14.8711 45.3175 15.5346 46.6235C16.1981 47.9295 17.1601 49.0608 18.3425 49.9255C21.9582 52.0685 22.2194 56.4175 24.6347 59.2256C25.5172 60.2338 26.6115 61.0348 27.8394 61.5712C29.0673 62.1076 30.3985 62.3663 31.7379 62.3287C35.2718 62.1647 37.8287 64.3794 40.7667 65.7835ZM44 58.8817C40.9726 58.9263 37.9671 58.361 35.1627 57.2195C32.3583 56.078 29.8125 54.3836 27.6768 52.2373C25.5412 50.091 23.8595 47.5368 22.7319 44.7268C21.6044 41.9167 21.0541 38.9085 21.1138 35.8813C21.2925 6.68116 65.1582 4.09547 66.9994 35.8828C66.9922 41.9803 64.5667 47.826 60.255 52.1376C55.9433 56.4492 50.0976 58.8745 44 58.8817ZM44.0269 15.6336C41.3616 15.5965 38.716 16.0955 36.2474 17.1009C33.7788 18.1064 31.5374 19.5978 29.6566 21.4866C27.7757 23.3753 26.2937 25.6229 25.2986 28.0957C24.3035 30.5686 23.8156 33.2162 23.8639 35.8813C23.9842 61.47 62.6244 63.953 64.2495 35.8825C64.2433 30.5186 62.1116 25.3757 58.3212 21.5804C54.5308 17.7851 49.3908 15.6467 44.0269 15.6336ZM46.981 50.1201C46.2404 50.1297 45.5134 49.9207 44.891 49.5192C44.2686 49.1177 43.7784 48.5416 43.4818 47.8629L41.1318 42.8677C40.8193 42.2865 40.3292 41.8204 39.733 41.5375C39.1369 41.2546 38.4658 41.1698 37.818 41.2954C37.7425 41.6789 37.5912 42.0436 37.3729 42.3679C37.1546 42.6922 36.8738 42.9697 36.5469 43.184C36.2199 43.3984 35.8535 43.5453 35.469 43.6162C35.0846 43.687 34.6898 43.6804 34.3079 43.5967C33.7141 43.6986 33.1058 43.6811 32.5188 43.5451C31.9318 43.4091 31.3778 43.1574 30.8893 42.8047C30.6389 42.5621 30.4415 42.2703 30.3093 41.9477C30.1771 41.6252 30.1131 41.2787 30.1212 40.9302V28.4356C30.135 25.9693 32.5667 25.5894 34.2973 25.7582C34.6798 25.6773 35.0744 25.6728 35.4586 25.7448C35.8428 25.8169 36.209 25.9641 36.5361 26.1781C36.8632 26.3921 37.1449 26.6686 37.3649 26.9917C37.5849 27.3148 37.7389 27.6782 37.818 28.061C39.902 27.9533 41.0724 25.3038 43.7183 25.6536L52.8034 25.6494C54.1489 25.6507 55.4389 26.1857 56.3905 27.137C57.342 28.0883 57.8774 29.3782 57.8791 30.7237V37.6537C57.8774 38.9992 57.342 40.2891 56.3905 41.2404C55.4389 42.1917 54.1489 42.7267 52.8034 42.728H50.9746V46.2273C50.9781 46.748 50.8763 47.2641 50.6756 47.7446C50.4748 48.2251 50.1791 48.6601 49.8062 49.0236C49.4333 49.387 48.9909 49.6715 48.5054 49.8599C48.02 50.0483 47.5015 50.1368 46.981 50.1201ZM37.8448 38.5453C39.0148 38.4104 40.1979 38.641 41.2317 39.2052C42.2654 39.7695 43.0993 40.6398 43.6187 41.6968L45.9847 46.7281C46.0967 46.9686 46.2905 47.1615 46.5315 47.2724C46.7725 47.3833 47.0451 47.405 47.3006 47.3337C47.5568 47.2968 47.7912 47.1689 47.9608 46.9734C48.1305 46.7778 48.224 46.5278 48.2244 46.2689V41.3531C48.2243 41.1725 48.2598 40.9937 48.3289 40.8268C48.398 40.6599 48.4992 40.5083 48.6269 40.3806C48.7546 40.2529 48.9063 40.1516 49.0731 40.0826C49.24 40.0135 49.4188 39.978 49.5994 39.9781H52.8032C53.4196 39.9777 54.0107 39.7327 54.4468 39.2969C54.8828 38.8612 55.1281 38.2702 55.1289 37.6537V30.7237C55.1281 30.1073 54.8828 29.5163 54.4468 29.0806C54.0107 28.6448 53.4196 28.3998 52.8032 28.3994H43.6187C41.6429 28.4943 40.3096 31.0419 37.8447 30.8137L37.8448 38.5453ZM32.8712 28.5323V40.918C33.6786 40.8518 34.489 40.8285 35.2989 40.8482C34.8643 39.7736 35.193 29.6309 35.0948 28.4356C34.6801 28.6465 33.4352 28.3854 32.8712 28.5323Z" fill="#005128"/>
</svg>
