<svg width="88" height="88" viewBox="0 0 88 88" fill="none" xmlns="http://www.w3.org/2000/svg">
<g clip-path="url(#clip0_104_2745)">
<path d="M59.4688 54.8281C58.5197 54.8281 57.75 55.5976 57.75 56.5469V68.4062C57.75 73.1448 53.8948 77 49.1562 77H30.5992C29.6503 77 28.8812 77.7688 28.8805 78.7175L28.8781 82.1348L24.7758 78.0326C24.5102 77.423 23.9025 77 23.1995 77H12.0312C7.29266 77 3.4375 73.1448 3.4375 68.4062V41.9375C3.4375 37.1989 7.29266 33.3438 12.0312 33.3438H29.3906C30.3397 33.3438 31.1094 32.5743 31.1094 31.625C31.1094 30.6757 30.3397 29.9062 29.3906 29.9062H12.0312C5.39722 29.9062 0 35.3035 0 41.9375V68.4062C0 75.0403 5.39722 80.4375 12.0312 80.4375H22.3193L29.3784 87.4966C29.7072 87.8254 30.1467 88 30.5941 88C30.8153 88 31.0386 87.9572 31.2508 87.8694C31.8931 87.6037 32.312 86.9773 32.3125 86.2825L32.3166 80.4375H49.1562C55.7903 80.4375 61.1875 75.0403 61.1875 68.4062V56.5469C61.1875 55.5976 60.4178 54.8281 59.4688 54.8281Z" fill="#005128"/>
<path d="M63.0188 0H58.6688C44.8941 0 33.6875 11.2066 33.6875 24.9813C33.6875 38.7561 44.8941 49.9625 58.6687 49.9625H63.0187C65.1686 49.9625 67.2966 49.6894 69.3591 49.1497L75.785 55.572C76.1138 55.9005 76.5531 56.0751 77.0003 56.0751C77.2219 56.0751 77.4453 56.0323 77.6579 55.9441C78.3001 55.678 78.7188 55.0514 78.7188 54.3563V44.4123C81.4394 42.2091 83.6993 39.4259 85.2854 36.3167C87.0868 32.7853 88 28.9716 88 24.9813C88 11.2066 76.7934 0 63.0188 0ZM75.9658 42.2013C75.5349 42.526 75.2812 43.0344 75.2812 43.5743V50.2086L71.0753 46.0049C70.748 45.678 70.3091 45.5018 69.8601 45.5018C69.6917 45.5018 69.5215 45.5268 69.3555 45.5778C67.3097 46.2065 65.1777 46.5252 63.0188 46.5252H58.6688C46.7894 46.5252 37.125 36.8607 37.125 24.9813C37.125 13.102 46.7895 3.4375 58.6688 3.4375H63.0188C74.8981 3.4375 84.5625 13.102 84.5625 24.9813C84.5625 31.8101 81.4292 38.0866 75.9658 42.2013Z" fill="#005128"/>
<path d="M68.5835 18.8066C68.3355 15.2084 65.4349 12.3079 61.8365 12.0598C59.7967 11.9198 57.8501 12.6078 56.3601 13.9988C54.8906 15.3705 54.0479 17.3096 54.0479 19.319C54.0479 20.2682 54.8175 21.0377 55.7666 21.0377C56.7157 21.0377 57.4854 20.2682 57.4854 19.319C57.4854 18.2432 57.9188 17.2462 58.7057 16.5117C59.4918 15.778 60.5193 15.4148 61.6004 15.4894C63.4958 15.6201 65.0236 17.1479 65.1542 19.0431C65.2862 20.9573 64.0304 22.6489 62.1683 23.0655C60.6595 23.4031 59.6059 24.7141 59.6059 26.2536V30.3829C59.6059 31.3322 60.3756 32.1017 61.3247 32.1017C62.274 32.1017 63.0434 31.3322 63.0433 30.3829V26.391C66.5066 25.5543 68.8301 22.3852 68.5835 18.8066Z" fill="#005128"/>
<path d="M62.5401 35.9665C62.2204 35.6468 61.777 35.4629 61.325 35.4629C60.8729 35.4629 60.4295 35.6468 60.1098 35.9665C59.7901 36.2862 59.6062 36.7296 59.6062 37.1816C59.6062 37.6354 59.7903 38.0788 60.1098 38.3985C60.4295 38.7182 60.8729 38.9004 61.325 38.9004C61.777 38.9004 62.2204 38.7182 62.5401 38.3985C62.8598 38.0771 63.0437 37.6354 63.0437 37.1816C63.0437 36.7296 62.8596 36.2862 62.5401 35.9665Z" fill="#005128"/>
<path d="M47.2656 53.2812H11C10.0509 53.2812 9.28125 54.0507 9.28125 55C9.28125 55.9493 10.0509 56.7188 11 56.7188H47.2656C48.2149 56.7188 48.9844 55.9493 48.9844 55C48.9844 54.0507 48.2147 53.2812 47.2656 53.2812Z" fill="#005128"/>
<path d="M48.4806 63.4098C48.1611 63.0902 47.7177 62.9062 47.2656 62.9062C46.8136 62.9062 46.3702 63.0902 46.0505 63.4098C45.7306 63.7295 45.5469 64.173 45.5469 64.625C45.5469 65.077 45.7308 65.5205 46.0505 65.8402C46.3702 66.1598 46.8136 66.3438 47.2656 66.3438C47.7177 66.3438 48.1611 66.1598 48.4806 65.8402C48.8005 65.5205 48.9844 65.0788 48.9844 64.625C48.9844 64.173 48.8003 63.7295 48.4806 63.4098Z" fill="#005128"/>
<path d="M40.5053 62.9062H11C10.0509 62.9062 9.28125 63.6757 9.28125 64.625C9.28125 65.5743 10.0509 66.3438 11 66.3438H40.5053C41.4545 66.3438 42.224 65.5743 42.224 64.625C42.224 63.6757 41.4544 62.9062 40.5053 62.9062Z" fill="#005128"/>
<path d="M36.0938 43.6562H11C10.0509 43.6562 9.28125 44.4257 9.28125 45.375C9.28125 46.3243 10.0509 47.0938 11 47.0938H36.0938C37.043 47.0938 37.8125 46.3243 37.8125 45.375C37.8125 44.4257 37.0428 43.6562 36.0938 43.6562Z" fill="#005128"/>
</g>
<defs>
<clipPath id="clip0_104_2745">
<rect width="88" height="88" fill="white"/>
</clipPath>
</defs>
</svg>
