<svg width="88" height="88" viewBox="0 0 88 88" fill="none" xmlns="http://www.w3.org/2000/svg">
<path d="M72.9708 15.0666C57.4199 -0.757617 31.3738 -1.27834 15.0474 15.048C-0.998354 31.0932 -1.02718 56.858 15.0293 72.9335C30.5802 88.7577 56.6263 89.2782 72.9527 72.952C88.9984 56.9068 89.0271 31.1421 72.9708 15.0666ZM44 7.81244C53.1147 7.81244 61.452 11.2009 67.8215 16.7825L58.3772 26.2265H23.1837C19.2105 26.2265 15.978 29.4589 15.978 33.432V54.5681C15.978 58.4253 19.0247 61.5838 22.8381 61.7648L16.7819 67.8209C11.2002 61.4514 7.81161 53.1145 7.81161 44C7.81161 24.0461 24.0456 7.81244 44 7.81244ZM64.8164 31.0301C66.1408 31.0301 67.2183 32.1076 67.2183 33.432V36.4743H54.9227L60.367 31.0301H64.8164ZM23.1837 56.9699C21.8593 56.9699 20.7818 55.8925 20.7818 54.5681V41.278H43.3254L37.8811 46.7221H28.628C27.3015 46.7221 26.2261 47.7975 26.2261 49.1239C26.2261 50.4504 27.3015 51.5258 28.628 51.5258H33.0774L27.6331 56.9699H23.1837ZM20.7818 36.4743V33.432C20.7818 32.1076 21.8593 31.0301 23.1837 31.0301H53.5735L48.1292 36.4743H20.7818ZM50.1189 41.278H67.2183V54.5681C67.2183 55.8925 66.1408 56.9699 64.8164 56.9699H34.4266C43.6521 47.7445 25.8206 65.5757 50.1189 41.278ZM44 80.1876C34.8853 80.1876 26.5481 76.7991 20.1786 71.2176L29.6228 61.7736H64.8164C68.7896 61.7736 72.022 58.5412 72.022 54.5681V33.432C72.022 29.5748 68.9753 26.4162 65.1619 26.2353L71.2182 20.1791C76.7999 26.5486 80.1885 34.8856 80.1885 44C80.1885 63.9538 63.9543 80.1876 44 80.1876Z" fill="#005128"/>
</svg>
