<svg width="88" height="88" viewBox="0 0 88 88" fill="none" xmlns="http://www.w3.org/2000/svg">
<path d="M44 4C46.5622 4 48.6661 5.38528 50.5225 6.60742C51.6281 7.33539 52.673 8.02324 53.5762 8.26465C54.5508 8.52501 55.8425 8.45304 57.21 8.37695C59.3926 8.25523 61.867 8.11734 64.0068 9.35547C66.1761 10.6108 67.2959 12.8408 68.2842 14.8076C68.8911 16.0154 69.4642 17.1566 70.1543 17.8467C70.8442 18.5368 71.9855 19.1098 73.1934 19.7168C75.16 20.7049 77.3893 21.8248 78.6445 23.9941C79.8826 26.1335 79.7446 28.6076 79.623 30.79C79.5468 32.1577 79.4749 33.4503 79.7354 34.4248C79.9768 35.3279 80.6648 36.3721 81.3926 37.4775C82.6147 39.3339 84 41.4379 84 44C84 46.5622 82.6147 48.6661 81.3926 50.5225C80.6646 51.6281 79.9768 52.673 79.7354 53.5762C79.475 54.5508 79.547 55.8425 79.623 57.21C79.7445 59.3926 79.8827 61.8671 78.6445 64.0068C77.3892 66.1761 75.1592 67.2959 73.1924 68.2842C71.9846 68.8911 70.8434 69.4642 70.1533 70.1543C69.4632 70.8442 68.8902 71.9855 68.2832 73.1934C67.2951 75.16 66.1752 77.3893 64.0059 78.6445C61.8663 79.8824 59.3925 79.7446 57.21 79.623C55.8423 79.5468 54.5497 79.4749 53.5752 79.7354C52.6721 79.9768 51.6279 80.6648 50.5225 81.3926C48.6661 82.6147 46.5621 84 44 84C41.4377 84 39.3331 82.6148 37.4766 81.3926C36.371 80.6647 35.3269 79.9767 34.4238 79.7354C33.4492 79.475 32.1575 79.547 30.79 79.623C28.6072 79.7443 26.1329 79.8827 23.9932 78.6445C21.8238 77.3892 20.7041 75.1592 19.7158 73.1924C19.1088 71.9845 18.5348 70.8434 17.8447 70.1533C17.1547 69.4633 16.0134 68.8901 14.8057 68.2832C12.8392 67.2952 10.6106 66.175 9.35547 64.0059C8.11743 61.8665 8.25442 59.3923 8.37598 57.21C8.45223 55.8423 8.52414 54.5497 8.26367 53.5752C8.02218 52.6722 7.33514 51.6278 6.60742 50.5225C5.38541 48.6661 4 46.5621 4 44C4 41.4378 5.38528 39.3339 6.60742 37.4775C7.33539 36.3719 8.02324 35.327 8.26465 34.4238C8.52501 33.4492 8.45304 32.1575 8.37695 30.79C8.25555 28.6074 8.11734 26.1329 9.35547 23.9932C10.6108 21.8239 12.8408 20.7041 14.8076 19.7158C16.0154 19.1089 17.1566 18.5358 17.8467 17.8457C18.5368 17.1558 19.1098 16.0145 19.7168 14.8066C20.7049 12.84 21.8248 10.6107 23.9941 9.35547C26.1335 8.11742 28.6073 8.25524 30.79 8.37695C32.1579 8.45336 33.4504 8.52512 34.4248 8.26465C35.3279 8.02321 36.3721 7.33519 37.4775 6.60742C39.3339 5.38526 41.4379 4 44 4ZM44 8.6875C42.8422 8.6875 41.4883 9.57871 40.0547 10.5225C38.6861 11.4234 37.271 12.3556 35.6348 12.793C33.9367 13.2468 32.2041 13.1498 30.5293 13.0566C28.8534 12.9634 27.2703 12.875 26.3418 13.4121C25.3846 13.966 24.6661 15.3969 23.9053 16.9111C23.1581 18.3981 22.3855 19.9359 21.1611 21.1602C19.9366 22.3845 18.3982 23.1571 16.9111 23.9043C15.397 24.6649 13.9671 25.3837 13.4131 26.3408C12.8758 27.2696 12.9634 28.8531 13.0566 30.5293C13.1499 32.2043 13.2469 33.9368 12.793 35.6348C12.3554 37.2711 11.4235 38.6861 10.5225 40.0547C9.57873 41.4881 8.6875 42.8422 8.6875 44C8.6875 45.1578 9.57871 46.5117 10.5225 47.9453C11.4234 49.3139 12.3556 50.729 12.793 52.3652C13.2467 54.0633 13.1499 55.7958 13.0566 57.4707C12.9634 59.1466 12.875 60.7297 13.4121 61.6582C13.966 62.6154 15.3969 63.3339 16.9111 64.0947C18.3981 64.8419 19.9359 65.6145 21.1602 66.8389C22.3845 68.0634 23.1571 69.6018 23.9043 71.0889C24.6649 72.603 25.3837 74.0329 26.3408 74.5869C27.2696 75.1242 28.8529 75.0368 30.5293 74.9434C31.2263 74.9045 31.9335 74.8652 32.6436 74.8652C33.6401 74.8652 34.6434 74.942 35.6348 75.207C37.2711 75.6446 38.6861 76.5765 40.0547 77.4775C41.4881 78.4213 42.8422 79.3125 44 79.3125C45.1578 79.3125 46.5117 78.4213 47.9453 77.4775C49.3139 76.5766 50.729 75.6444 52.3652 75.207C54.0633 74.7532 55.7954 74.8501 57.4707 74.9434C59.1464 75.0366 60.7297 75.1251 61.6582 74.5879C62.6154 74.034 63.3339 72.6031 64.0947 71.0889C64.8419 69.6019 65.6145 68.0641 66.8389 66.8398C68.0634 65.6155 69.6018 64.8429 71.0889 64.0957C72.603 63.3351 74.0329 62.6163 74.5869 61.6592C75.1242 60.7304 75.0366 59.1469 74.9434 57.4707C74.8501 55.7957 74.7531 54.0632 75.207 52.3652C75.6446 50.7289 76.5765 49.3139 77.4775 47.9453C78.4213 46.5119 79.3125 45.1578 79.3125 44C79.3125 42.8422 78.4213 41.4883 77.4775 40.0547C76.5766 38.6861 75.6444 37.271 75.207 35.6348C74.7533 33.9367 74.8501 32.2042 74.9434 30.5293C75.0366 28.8534 75.125 27.2703 74.5879 26.3418C74.034 25.3846 72.6031 24.6661 71.0889 23.9053C69.6019 23.1581 68.0641 22.3855 66.8398 21.1611C65.6155 19.9366 64.8429 18.3982 64.0957 16.9111C63.3351 15.397 62.6163 13.9671 61.6592 13.4131C60.7304 12.8758 59.1471 12.9634 57.4707 13.0566C55.7957 13.1501 54.063 13.2469 52.3652 12.793C50.7289 12.3554 49.3139 11.4235 47.9453 10.5225C46.5119 9.57873 45.1578 8.6875 44 8.6875ZM25.4424 46C26.3027 46.0002 27 46.6717 27 47.5C27 48.3283 26.3027 48.9998 25.4424 49H23.5439V59.5C23.5439 60.3284 22.8467 60.9999 21.9863 61C21.1258 61 20.4277 60.3284 20.4277 59.5V49H18.5576C17.6973 48.9998 17 48.3283 17 47.5C17 46.6717 17.6973 46.0002 18.5576 46H25.4424ZM33.9463 46C36.7327 46.0001 38.9997 48.0718 39 50.6182C39 52.7058 37.476 54.4742 35.3916 55.0439L38.6055 58.5088C39.1821 59.1306 39.1191 60.0786 38.4639 60.626C38.1636 60.8767 37.7907 60.9999 37.4199 61C36.9814 61 36.545 60.828 36.2324 60.4912L32.1621 56.1035V59.5C32.1621 60.3284 31.4542 60.9999 30.5811 61C29.7079 61 29 60.3284 29 59.5V47.5C29 46.6716 29.7079 46 30.5811 46H33.9463ZM42.5 46C43.3284 46 44 46.6716 44 47.5V59.5C44 60.3284 43.3284 61 42.5 61C41.6716 61 41 60.3284 41 59.5V47.5C41 46.6716 41.6716 46 42.5 46ZM52.5215 46C53.2731 46 53.9434 46.4306 54.2295 47.0977C54.2353 47.1111 54.2406 47.1251 54.2461 47.1387L58.8984 58.9697C59.2032 59.7448 58.796 60.6108 57.9883 60.9033C57.8067 60.9691 57.6198 61 57.4365 61C56.8051 60.9999 56.2109 60.6298 55.9746 60.0293L55.1973 58.0527H49.8105L49.0244 60.0332C48.7171 60.8073 47.8137 61.1963 47.0068 60.9014C46.2004 60.6064 45.7953 59.7398 46.1025 58.9658L50.7988 47.1348C50.8031 47.1236 50.8078 47.1126 50.8125 47.1016C51.0971 46.4334 51.7672 46.0008 52.5195 46H52.5215ZM62.666 46C63.5863 46 64.332 46.6716 64.332 47.5V57.999C65.1962 57.9981 66.2969 57.9945 67.3242 57.9893C68.2463 57.9801 68.9946 58.6522 69 59.4805C69.0052 60.3089 68.263 60.9846 67.3428 60.9893C65.8279 60.9969 64.7925 61 64.0791 61C62.5952 61 62.5032 60.9861 62.3848 60.9678C61.5848 60.8445 61 60.2199 61 59.4893V47.5C61 46.6716 61.7459 46.0001 62.666 46ZM51.001 55.0527H54.0166L52.5156 51.2363L51.001 55.0527ZM32.1748 50.6182C32.1748 50.9957 32.1775 51.6388 32.1807 52.2432C32.8338 52.2402 33.5337 52.2373 33.9463 52.2373C34.9718 52.2372 35.8389 51.4955 35.8389 50.6182C35.8385 49.741 34.9717 49 33.9463 49H32.1709C32.1726 49.6333 32.1748 50.2968 32.1748 50.6182ZM29.4736 27C30.3165 27 31 27.6716 31 28.5C31 29.3284 30.3165 30 29.4736 30H26.0518V32.8867H29.0811C29.9239 32.8867 30.6074 33.5583 30.6074 34.3867C30.6072 35.215 29.9237 35.8867 29.0811 35.8867H26.0518V40.5C26.0518 41.3283 25.369 41.9998 24.5264 42C23.6835 42 23 41.3284 23 40.5V28.5C23 27.6716 23.6835 27 24.5264 27H29.4736ZM37.9463 27C40.7327 27.0001 42.9997 29.0718 43 31.6182C43 33.7058 41.476 35.4742 39.3916 36.0439L42.6055 39.5088C43.1821 40.1306 43.1191 41.0786 42.4639 41.626C42.1636 41.8767 41.7907 41.9999 41.4199 42C40.9814 42 40.545 41.828 40.2324 41.4912L36.1621 37.1035V40.5C36.1621 41.3284 35.4542 41.9999 34.5811 42C33.7079 42 33 41.3284 33 40.5V28.5C33 27.6716 33.7079 27 34.5811 27H37.9463ZM52.5107 27C53.3333 27.0001 54 27.6716 54 28.5C54 29.3284 53.3333 29.9999 52.5107 30H48.9795V33H52.1406C52.9632 33.0001 53.6299 33.6716 53.6299 34.5C53.6299 35.3284 52.9632 35.9999 52.1406 36H48.9795V39H52.5107C53.3333 39.0001 54 39.6716 54 40.5C54 41.3284 53.3333 41.9999 52.5107 42H47.4893C46.6667 41.9999 46 41.3284 46 40.5V28.5C46 27.6716 46.6667 27.0001 47.4893 27H52.5107ZM63.5107 27C64.3333 27.0001 65 27.6716 65 28.5C65 29.3284 64.3333 29.9999 63.5107 30H59.9795V33H63.1406C63.9632 33.0001 64.6299 33.6716 64.6299 34.5C64.6299 35.3284 63.9632 35.9999 63.1406 36H59.9795V39H63.5107C64.3333 39.0001 65 39.6716 65 40.5C65 41.3284 64.3333 41.9999 63.5107 42H58.4893C57.6667 41.9999 57 41.3284 57 40.5V28.5C57 27.6716 57.6667 27.0001 58.4893 27H63.5107ZM36.1748 31.6182C36.1748 31.9957 36.1773 32.6388 36.1807 33.2432C36.8339 33.2402 37.5337 33.2373 37.9463 33.2373C38.9719 33.2372 39.8379 32.4954 39.8379 31.6182C39.8376 30.7411 38.9715 30.0001 37.9463 30H36.1709C36.1726 30.6333 36.1748 31.2968 36.1748 31.6182Z" fill="#005128"/>
</svg>
