<svg width="88" height="88" viewBox="0 0 88 88" fill="none" xmlns="http://www.w3.org/2000/svg">
<path d="M84.294 60.5195C82.5671 57.4244 78.99 55.9614 75.5834 56.9577L54.2011 63.2406C53.5498 59.6547 50.965 56.7053 47.365 55.623L33.4189 51.4289C33.145 51.3463 32.851 51.3503 32.5811 51.4437L19.5991 55.8525V52.7455C19.5991 51.9861 18.9841 51.3705 18.2241 51.3705H4.125C3.365 51.3705 2.75 51.9861 2.75 52.7455V79.4096C2.75 80.1689 3.365 80.7846 4.125 80.7846H18.2241C18.9841 80.7846 19.5991 80.1689 19.5991 79.4096V77.327C26.2518 79.4475 47.3159 84.9473 48.3117 85.207C48.6125 85.2855 48.9333 85.259 49.218 85.1325L59.7816 80.4281C60.4745 80.1193 60.7874 79.3062 60.4772 78.6127C60.171 77.9191 59.3614 77.6089 58.6618 77.9158L48.5386 82.4241C41.1618 80.4966 23.6612 75.8466 19.5991 74.4368V58.7562L33.0484 54.1889L46.5728 58.2562C49.4207 59.1122 51.3632 61.5971 51.5701 64.5229C50.4916 65.55 46.84 68.3289 39.9395 66.9621C39.1969 66.8097 38.4705 67.2985 38.3241 68.043C38.1751 68.7883 38.6598 69.512 39.4051 69.6597C40.9036 69.9571 42.2813 70.084 43.5381 70.084C49.489 70.084 52.7604 67.2528 53.7387 66.2426L76.3582 59.5963C78.5254 58.9659 80.7947 59.8924 81.8931 61.8589C82.5551 63.0479 82.6826 64.4142 82.253 65.7052C81.8219 66.9963 80.9008 68.0128 79.6574 68.566L63.4729 75.7734C62.78 76.0822 62.4672 76.8953 62.7774 77.5888C63.0854 78.2901 63.9146 78.5922 64.5928 78.2857L80.7772 71.0784C82.7055 70.219 84.1946 68.5781 84.8619 66.5747C85.5293 64.5713 85.3225 62.3644 84.294 60.5195ZM16.8491 78.0346H5.5V54.1205H16.8491V78.0346Z" fill="#005128"/>
<path d="M9.85547 59.5675H12.4927C13.2527 59.5675 13.8677 58.9518 13.8677 58.1925C13.8677 57.4332 13.2527 56.8175 12.4927 56.8175H9.85547C9.09546 56.8175 8.48047 57.4332 8.48047 58.1925C8.48047 58.9518 9.09546 59.5675 9.85547 59.5675Z" fill="#005128"/>
<path d="M73.8293 24.7513C73.8293 30.6803 71.9227 36.3266 68.4471 41.0271L68.5294 39.9314C68.5871 39.174 68.0191 38.5141 67.2618 38.457C66.5072 38.3905 65.8438 38.9672 65.7874 39.7246L65.3926 44.9735C65.3349 45.7308 65.9029 46.3908 66.6602 46.4478L71.9091 46.8426C72.6567 46.9025 73.3298 46.3335 73.3835 45.575C73.4412 44.8177 72.8733 44.1577 72.1159 44.1007L69.7009 43.9188C74.1469 38.517 76.5793 31.8096 76.5793 24.7513C76.5793 16.5604 73.3472 8.88576 67.4766 3.1407C66.9341 2.60963 66.064 2.62104 65.5323 3.16219C65.0019 3.70467 65.0113 4.57545 65.5538 5.10652C70.89 10.3292 73.8293 17.3063 73.8293 24.7513Z" fill="#005128"/>
<path d="M25.7031 26.1263C26.4631 26.1263 27.0781 25.5107 27.0781 24.7513C27.0781 14.1367 35.7135 5.50134 46.3281 5.50134C56.9428 5.50134 65.5781 14.1367 65.5781 24.7513C65.5781 35.366 56.9428 44.0013 46.3281 44.0013C37.5746 44.0013 29.9154 38.0945 27.7039 29.637C27.5105 28.9012 26.7612 28.4614 26.0254 28.6548C25.2909 28.8468 24.8505 29.5981 25.0425 30.3326C27.5709 39.9999 36.3245 46.7513 46.3281 46.7513C58.4588 46.7513 68.3281 36.882 68.3281 24.7513C68.3281 12.6207 58.4587 2.75134 46.3281 2.75134C34.1975 2.75134 24.3281 12.6207 24.3281 24.7513C24.3281 25.5107 24.9431 26.1263 25.7031 26.1263Z" fill="#005128"/>
<path d="M46.3285 34.142C44.1183 34.142 42.3203 32.3441 42.3203 30.1345C42.3203 29.3752 41.7053 28.7595 40.9453 28.7595C40.1853 28.7595 39.5703 29.3752 39.5703 30.1345C39.5703 33.3895 41.8845 36.1128 44.9535 36.7499V38.5013C44.9535 39.2607 45.5685 39.8763 46.3285 39.8763C47.0885 39.8763 47.7035 39.2607 47.7035 38.5013V36.7499C50.7725 36.1128 53.0867 33.3895 53.0867 30.1345C53.0867 26.4083 50.0547 23.3763 46.3285 23.3763C44.1183 23.3763 42.3203 21.5784 42.3203 19.3688C42.3203 17.1593 44.1183 15.3613 46.3285 15.3613C48.5387 15.3613 50.3367 17.1593 50.3367 19.3688C50.3367 20.1282 50.9517 20.7438 51.7117 20.7438C52.4717 20.7438 53.0867 20.1282 53.0867 19.3688C53.0867 16.1139 50.7725 13.3906 47.7035 12.7535V11.0013C47.7035 10.242 47.0885 9.62634 46.3285 9.62634C45.5685 9.62634 44.9535 10.242 44.9535 11.0013V12.7535C41.8845 13.3906 39.5703 16.1139 39.5703 19.3688C39.5703 23.095 42.6023 26.1263 46.3285 26.1263C48.5387 26.1263 50.3367 27.9243 50.3367 30.1345C50.3367 32.3441 48.5387 34.142 46.3285 34.142Z" fill="#005128"/>
</svg>
