<svg width="56" height="56" viewBox="0 0 56 56" fill="none" xmlns="http://www.w3.org/2000/svg">
<rect width="56" height="56" rx="12" fill="white"/>
<rect x="12" y="12" width="32" height="32" rx="16" fill="white"/>
<path d="M30.2029 38.9593L26.0186 34.879L35.005 25.7021L39.3373 29.9481L30.2029 38.9593Z" fill="#8AB4F8"/>
<path d="M30.2207 20.9191L26.0514 16.6621L16.9349 25.6924C15.7597 26.8676 15.7597 28.7728 16.9349 29.9494L25.9145 38.9879L30.1605 35.0158L23.3189 27.8209L30.2207 20.9191Z" fill="#4285F4"/>
<path d="M39.277 25.7621L30.2372 16.7223C29.0606 15.5457 27.1527 15.5457 25.9761 16.7223C24.7996 17.8988 24.7996 19.8068 25.9761 20.9833L35.016 30.0232C36.1925 31.1997 38.1005 31.1997 39.277 30.0232C40.4536 28.8466 40.4536 26.9387 39.277 25.7621Z" fill="#8AB4F8"/>
<path d="M28.0375 39.9467C29.6638 39.9467 30.9823 38.6283 30.9823 37.0019C30.9823 35.3756 29.6638 34.0571 28.0375 34.0571C26.4111 34.0571 25.0927 35.3756 25.0927 37.0019C25.0927 38.6283 26.4111 39.9467 28.0375 39.9467Z" fill="#246FDB"/>
</svg>
