<svg width="72" height="72" viewBox="0 0 72 72" fill="none" xmlns="http://www.w3.org/2000/svg">
<rect width="72" height="72" rx="12" fill="white" fill-opacity="0.3"/>
<path d="M44.1329 39.2084C49.4028 38.075 52.0368 34.4087 52.0348 28.2095C52.0348 24.135 50.9256 21.1574 48.7072 19.2767C46.4888 17.396 43.0381 16.4576 38.355 16.4614H18.1037V33.2551H26.3231V23.4233H36.4243C39.0217 23.4233 40.8572 23.7373 41.9077 24.354C43.1141 25.0802 43.7182 26.4009 43.7202 28.3161C43.7202 30.2266 43.1141 31.5492 41.9077 32.2725C40.8264 32.9295 38.9986 33.258 36.4243 33.258H26.3231C24.0741 33.4717 21.9856 34.5148 20.4657 36.1837C18.9458 37.8526 18.1036 40.0273 18.1037 42.283V55.5381H26.3231V40.1795H36.0116L44.6379 55.5381H53.8963L44.1329 39.2084Z" fill="white"/>
</svg>
