<svg width="56" height="56" viewBox="0 0 56 56" fill="none" xmlns="http://www.w3.org/2000/svg">
<rect width="56" height="56" rx="12" fill="white"/>
<rect x="12" y="12" width="32" height="32" rx="16" fill="white"/>
<path d="M31.4844 27.8435C31.4445 26.1145 30.0206 24.7395 28.2912 24.76H20.058V30.9271H25.3903V36.1133C25.3448 36.9337 25.6348 37.7372 26.1937 38.3394C26.7527 38.9416 27.5324 39.2907 28.3538 39.3064C29.1924 39.2982 29.9934 38.9571 30.5805 38.3583C31.1676 37.7594 31.4927 36.9519 31.4844 36.1133V27.8435Z" fill="#B366F6"/>
<path d="M20.0215 30.9953C21.7418 30.9953 23.1363 29.6008 23.1363 27.8805C23.1363 26.1602 21.7418 24.7656 20.0215 24.7656C18.3012 24.7656 16.9066 26.1602 16.9066 27.8805C16.9066 29.6008 18.3012 30.9953 20.0215 30.9953Z" fill="#8430CE"/>
<path d="M39.0862 19.5792C39.0691 17.8625 37.6725 16.48 35.9557 16.48H27.5347C25.9348 16.6406 24.7168 17.987 24.7168 19.5948C24.7168 21.2027 25.9348 22.5491 27.5347 22.7097H32.9296V27.8907C32.883 29.0217 33.4599 30.0872 34.4323 30.6666C35.4047 31.2459 36.6164 31.2459 37.5888 30.6666C38.5612 30.0872 39.138 29.0217 39.0915 27.8907L39.0862 19.5792Z" fill="#C58AF8"/>
</svg>
