<svg width="56" height="56" viewBox="0 0 56 56" fill="none" xmlns="http://www.w3.org/2000/svg">
<rect width="56" height="56" rx="12" fill="white"/>
<rect x="12" y="12" width="32" height="32" rx="16" fill="white"/>
<path d="M31.514 31.508C30.6238 32.3982 29.4655 32.8737 28.2949 32.9347C28.2218 32.9347 28.1364 32.9469 28.0633 32.9469C27.9901 32.9469 27.9047 32.9469 27.8316 32.9347C26.5757 32.8981 25.3319 32.5567 24.2102 31.9226C23.6127 31.5812 23.0518 31.1666 22.5519 30.6545C21.7837 29.8863 21.2106 29.0084 20.8326 28.0695C19.9425 25.8747 20.101 23.3751 21.2838 21.29C18.9183 22.6191 17.3331 25.1553 17.3331 28.0573C17.3331 30.9593 18.9183 33.4956 21.2838 34.8368C22.4177 35.4831 23.7346 35.8611 25.1369 35.8611C26.1733 35.8611 27.1609 35.6538 28.0633 35.288C29.6972 34.6295 31.0628 33.4346 31.9163 31.9104C32.526 30.8374 32.8918 29.6059 32.9284 28.289C32.8796 29.4718 32.4041 30.6179 31.514 31.508Z" fill="#4FC3F7"/>
<path d="M33.5746 19.6197C30.5263 16.5714 25.588 16.5714 22.5397 19.6197C22.0276 20.1319 21.613 20.6928 21.2716 21.278C20.0888 23.3631 19.9425 25.8627 20.8326 28.0575C21.2106 28.9964 21.7837 29.8865 22.5519 30.6425C23.064 31.1546 23.6249 31.5692 24.2102 31.9106C25.3319 32.5447 26.5757 32.8861 27.8316 32.9227C26.661 32.8617 25.5148 32.3861 24.6125 31.496C23.6615 30.5572 23.1859 29.3012 23.1859 28.0575V28.0453C23.1859 26.7163 23.5273 25.3872 24.2102 24.1922C24.5516 23.5948 24.9661 23.0339 25.4783 22.5339C26.2464 21.7658 27.1244 21.1927 28.0633 20.8147C30.258 19.9246 32.7699 20.0831 34.8549 21.2658C34.5135 20.6806 34.0868 20.1197 33.5746 19.6197Z" fill="#4285F4"/>
<path opacity="0.2" d="M28.0633 20.705C27.1244 21.083 26.2343 21.6561 25.4783 22.4243C24.9662 22.9364 24.5516 23.4973 24.2102 24.0826C23.5274 25.2653 23.186 26.5944 23.186 27.9235V27.9357C23.186 27.9478 23.186 27.9722 23.186 27.9844C23.1982 26.6797 23.5396 25.3629 24.2102 24.1923C24.5516 23.5948 24.9662 23.0339 25.4783 22.534C26.2465 21.7658 27.1244 21.1928 28.0633 20.8148C30.2581 19.9246 32.7699 20.0832 34.855 21.2659C34.8184 21.2049 34.7818 21.144 34.7452 21.083C32.6846 19.9612 30.2215 19.8271 28.0633 20.705Z" fill="#1A237E"/>
<path opacity="0.2" d="M22.5519 30.5207C21.7837 29.7525 21.2106 28.8746 20.8326 27.9357C20.4546 26.9968 20.2595 26.0091 20.2595 25.0215C20.2473 26.0579 20.4302 27.0822 20.8326 28.0576C21.2106 28.9965 21.7837 29.8866 22.5519 30.6426C23.064 31.1547 23.6249 31.5693 24.2102 31.9107C25.332 32.5448 26.5757 32.8862 27.8316 32.9228C27.3195 32.8984 26.8074 32.7886 26.3196 32.6057C25.588 32.435 24.8808 32.1668 24.2102 31.7888C23.6127 31.4596 23.0518 31.0328 22.5519 30.5207Z" fill="#1A237E"/>
<path d="M36.5011 22.5461C35.989 22.034 35.4281 21.6194 34.8428 21.278C32.7577 20.0953 30.2459 19.9367 28.0511 20.8268C27.1122 21.2048 26.2221 21.7779 25.4661 22.5461C24.954 23.0582 24.5394 23.6191 24.198 24.2044C23.5274 25.3872 23.186 26.7162 23.186 28.0453C23.186 26.8016 23.6615 25.5579 24.6126 24.6068C25.5027 23.7167 26.6611 23.2411 27.8316 23.1802C27.9901 23.168 28.1487 23.168 28.295 23.1802C29.5509 23.2167 30.7946 23.5582 31.9164 24.1922C32.5139 24.5336 33.0748 24.9482 33.5747 25.4603C34.3429 26.2285 34.9159 27.1064 35.2939 28.0453C36.1841 30.2401 36.0255 32.7519 34.8428 34.8248C35.4403 34.4834 36.0012 34.0688 36.5011 33.5567C39.5494 30.5327 39.5494 25.5822 36.5011 22.5461Z" fill="#FFC107"/>
<path opacity="0.2" d="M23.186 28.1791C23.186 29.4228 23.6615 30.6788 24.6126 31.6298C25.5027 32.52 26.6611 32.9955 27.8316 33.0565C27.9048 33.0565 27.9901 33.0687 28.0633 33.0687C28.1365 33.0687 28.2218 33.0687 28.295 33.0565C29.4655 32.9955 30.6117 32.52 31.514 31.6298C32.331 30.8129 32.7943 29.7765 32.9162 28.7156C32.9284 28.5815 32.9406 28.4352 32.9406 28.3011C32.8797 29.4716 32.4041 30.6178 31.514 31.5079C30.6239 32.398 29.4655 32.8736 28.295 32.9345C28.2218 32.9345 28.1365 32.9467 28.0633 32.9467C27.9901 32.9467 27.9048 32.9467 27.8316 32.9345C26.6611 32.8736 25.5149 32.398 24.6126 31.5079C23.6737 30.569 23.2104 29.3497 23.186 28.1182C23.186 28.1304 23.186 28.1547 23.186 28.1791C23.186 28.1791 23.186 28.1669 23.186 28.1791Z" fill="white"/>
<path opacity="0.2" d="M35.3061 27.9353C34.9281 26.9964 34.3551 26.1063 33.5869 25.3503C33.0748 24.8382 32.5139 24.4236 31.9286 24.0822C30.8068 23.4482 29.5631 23.1068 28.3072 23.0702C28.1487 23.058 27.9901 23.058 27.8438 23.0702C26.6733 23.1311 25.5271 23.5945 24.6248 24.4968C23.6615 25.4357 23.186 26.6794 23.186 27.9231V27.9353C23.186 27.9597 23.186 27.9719 23.186 27.9963C23.1982 26.7648 23.6737 25.5454 24.6126 24.6065C25.5027 23.7164 26.6611 23.2409 27.8316 23.1799C27.9901 23.1677 28.1487 23.1677 28.295 23.1799C29.5509 23.2165 30.7946 23.5579 31.9164 24.192C32.5139 24.5334 33.0748 24.948 33.5747 25.4601C34.3429 26.2282 34.9159 27.1062 35.2939 28.0451C35.6719 28.9839 35.8548 29.9716 35.8548 30.9593C35.8792 29.935 35.6963 28.9108 35.3061 27.9353Z" fill="#BF360C"/>
<path opacity="0.2" d="M36.5011 33.447C36.0255 33.9225 35.489 34.3249 34.9281 34.6541C34.8915 34.7151 34.8671 34.7761 34.8306 34.837C35.428 34.4956 35.9889 34.081 36.4889 33.5689C38.0252 32.0326 38.7934 30.0085 38.769 27.9844C38.7812 29.9719 38.013 31.9472 36.5011 33.447Z" fill="#BF360C"/>
<g opacity="0.2">
<path opacity="0.2" d="M33.5746 25.5945C34.3428 26.3626 34.9159 27.2406 35.2939 28.1795C35.6719 29.1183 35.8548 30.106 35.8548 31.0937C35.867 30.0572 35.6841 29.033 35.2939 28.0575C34.9159 27.1186 34.3428 26.2285 33.5746 25.4725C33.0625 24.9604 32.5016 24.5458 31.9163 24.2044C30.7946 23.5704 29.5508 23.229 28.2949 23.1924C28.807 23.2168 29.3192 23.3265 29.8069 23.5094C30.5385 23.6801 31.2457 23.9484 31.9163 24.3264C32.5138 24.6556 33.0747 25.0823 33.5746 25.5945Z" fill="#1A237E"/>
</g>
<g opacity="0.2">
<path opacity="0.2" d="M36.5012 22.5461C35.9891 22.034 35.4282 21.6194 34.8429 21.278C34.5015 20.6806 34.0869 20.1197 33.5748 19.6197C30.5265 16.5714 25.5882 16.5714 22.5399 19.6197C22.0277 20.1319 21.6132 20.6928 21.2718 21.278C18.9184 22.6193 17.3333 25.1555 17.3333 28.0575C17.3333 28.0819 17.3333 28.0941 17.3333 28.1185C17.3577 25.2774 18.8941 22.8022 21.1742 21.4609C20.5645 22.6071 20.2597 23.8752 20.2597 25.1433C20.2841 23.8508 20.6133 22.5583 21.2718 21.4C21.6132 20.8025 22.0277 20.2416 22.5399 19.7417C25.5882 16.6933 30.5265 16.6933 33.5748 19.7417C34.026 20.1928 34.4162 20.6928 34.7332 21.2293C32.6725 20.0953 30.2095 19.9612 28.0512 20.8391C27.1124 21.2171 26.2222 21.7902 25.4663 22.5583C24.9541 23.0705 24.5396 23.6313 24.1982 24.2166C23.5275 25.3872 23.1861 26.7163 23.1861 28.0453C23.1861 27.8868 23.1983 27.7161 23.2105 27.5576C23.2958 26.4358 23.6373 25.3262 24.2103 24.3142C24.5518 23.7167 24.9663 23.1558 25.4784 22.6559C26.2466 21.8877 27.1245 21.3146 28.0634 20.9366C30.2582 20.0465 32.7701 20.205 34.8551 21.3878C35.4526 21.7292 36.0135 22.1438 36.5134 22.6559C38.0254 24.1679 38.7814 26.131 38.7938 28.1185C38.8057 26.0944 38.0498 24.0825 36.5012 22.5461Z" fill="white"/>
</g>
<g filter="url(#filter0_d_104_2477)">
<path d="M35.306 28.0575C34.928 27.1186 34.3549 26.2285 33.5868 25.4725C33.0746 24.9604 32.5138 24.5458 31.9285 24.2044C30.8067 23.5704 29.563 23.229 28.3071 23.1924C29.4776 23.2533 30.6238 23.7167 31.5261 24.619C32.404 25.4969 32.8796 26.6553 32.9405 27.8137C32.9405 27.899 32.9527 27.9722 32.9527 28.0575C32.9527 28.1429 32.9527 28.216 32.9405 28.3014C32.9039 29.6183 32.5381 30.8498 31.9285 31.9228C31.0627 33.4348 29.7093 34.6419 28.0754 35.3003C27.1731 35.6661 26.1854 35.8734 25.149 35.8734C23.7468 35.8734 22.4299 35.4954 21.2959 34.8492C21.6373 35.4467 22.0519 36.0076 22.564 36.5075C25.6123 39.5558 30.5506 39.5558 33.599 36.5075C34.1111 35.9954 34.5256 35.4345 34.8671 34.8492C36.0376 32.7641 36.1839 30.2523 35.306 28.0575Z" fill="black"/>
</g>
<path d="M35.3061 28.0575C34.9281 27.1186 34.355 26.2285 33.5868 25.4725C33.0747 24.9604 32.5138 24.5458 31.9285 24.2044C30.8067 23.5704 29.563 23.229 28.3071 23.1924C29.4777 23.2533 30.6238 23.7167 31.5262 24.619C32.4041 25.4969 32.8796 26.6553 32.9406 27.8137C32.9406 27.899 32.9528 27.9722 32.9528 28.0575C32.9528 28.1429 32.9528 28.216 32.9406 28.3014C32.904 29.6183 32.5382 30.8498 31.9285 31.9228C31.0628 33.4348 29.7093 34.6419 28.0754 35.3003C27.1731 35.6661 26.1855 35.8734 25.149 35.8734C23.7468 35.8734 22.4299 35.4954 21.296 34.8492C21.6374 35.4467 22.0519 36.0076 22.5641 36.5075C25.6124 39.5558 30.5507 39.5558 33.599 36.5075C34.1111 35.9954 34.5257 35.4345 34.8671 34.8492C36.0377 32.7641 36.184 30.2523 35.3061 28.0575Z" fill="#3367D6"/>
<g opacity="0.2">
<path opacity="0.2" d="M28.0633 35.4098C29.6972 34.7513 31.0506 33.5564 31.9163 32.0322C32.526 30.9592 32.8918 29.7277 32.9284 28.4108C32.9284 28.3254 32.9406 28.2523 32.9406 28.1669C32.9406 28.1425 32.9406 28.1303 32.9406 28.106C32.9406 28.1669 32.9406 28.2279 32.9406 28.2889C32.904 29.6057 32.5382 30.8373 31.9285 31.9103C31.0628 33.4222 29.7094 34.6294 28.0754 35.2878C27.1731 35.6536 26.1855 35.8609 25.149 35.8609C23.7468 35.8609 22.4299 35.4829 21.296 34.8367C21.3325 34.8976 21.3691 34.9586 21.4057 35.0196C22.5153 35.6292 23.7956 35.9828 25.1612 35.9828C26.1733 35.9828 27.1609 35.7756 28.0633 35.4098Z" fill="#1A237E"/>
</g>
<g opacity="0.2">
<path opacity="0.2" d="M21.3813 34.898C22.4909 35.5077 23.7712 35.8613 25.1369 35.8613C26.1733 35.8613 27.1609 35.654 28.0633 35.2882C29.6972 34.6297 31.0628 33.4348 31.9163 31.9106C32.526 30.8376 32.8918 29.6061 32.9284 28.2892C32.9284 28.3868 32.9162 28.4843 32.904 28.5819C32.8065 29.7402 32.465 30.8254 31.9163 31.7887C31.0506 33.3129 29.6972 34.5078 28.0633 35.1663C27.1609 35.5321 26.1733 35.7393 25.1369 35.7393C23.7346 35.7393 22.4177 35.3613 21.2838 34.7151C18.9426 33.386 17.3575 30.8742 17.3331 27.9966C17.3331 28.021 17.3331 28.0332 17.3331 28.0575C17.3331 30.9596 18.9183 33.4958 21.2838 34.837" fill="#1A237E"/>
</g>
<path d="M33.6478 25.5454C34.3794 26.2892 34.9281 27.1549 35.2939 28.0572C36.184 30.252 36.0255 32.7639 34.8428 34.8367C35.4402 34.4953 36.0011 34.0807 36.5011 33.5686C37.4399 32.6297 38.0862 31.5201 38.4398 30.3374L33.6478 25.5454Z" fill="url(#paint0_linear_104_2477)"/>
<path opacity="0.2" d="M34.8428 34.715C34.5014 35.3125 34.0868 35.8734 33.5747 36.3733C30.5263 39.4216 25.588 39.4216 22.5397 36.3733C22.0886 35.9222 21.6984 35.4222 21.3813 34.8979C21.3448 34.8735 21.3082 34.8613 21.2716 34.837C21.613 35.4344 22.0276 35.9953 22.5397 36.4953C25.588 39.5436 30.5263 39.5436 33.5747 36.4953C34.0868 35.9831 34.5014 35.4222 34.8428 34.837C35.5256 33.642 35.867 32.3008 35.8548 30.9717C35.8426 32.2642 35.5134 33.5567 34.8428 34.715Z" fill="#1A237E"/>
<path d="M36.5012 22.5461C35.9891 22.034 35.4282 21.6194 34.8429 21.278C34.5015 20.6806 34.0869 20.1197 33.5748 19.6197C30.5265 16.5714 25.5882 16.5714 22.5399 19.6197C22.0277 20.1319 21.6132 20.6928 21.2718 21.278C18.9184 22.6193 17.3333 25.1555 17.3333 28.0575C17.3333 30.9595 18.9184 33.4957 21.2839 34.837C21.6254 35.4345 22.0399 35.9954 22.5521 36.4953C25.6004 39.5436 30.5387 39.5436 33.587 36.4953C34.0991 35.9832 34.5137 35.4223 34.8551 34.837C35.4526 34.4956 36.0135 34.081 36.5134 33.5689C39.5495 30.5328 39.5495 25.5823 36.5012 22.5461ZM32.9408 28.0575C32.9408 30.7522 30.7582 32.9348 28.0634 32.9348C25.3687 32.9348 23.1861 30.7522 23.1861 28.0575C23.1861 25.3628 25.3687 23.1802 28.0634 23.1802C30.7582 23.1802 32.9408 25.3628 32.9408 28.0575Z" fill="url(#paint1_radial_104_2477)" fill-opacity="0.1"/>
<defs>
<filter id="filter0_d_104_2477" x="21.0826" y="22.7657" width="17.1345" height="18.1616" filterUnits="userSpaceOnUse" color-interpolation-filters="sRGB">
<feFlood flood-opacity="0" result="BackgroundImageFix"/>
<feColorMatrix in="SourceAlpha" type="matrix" values="0 0 0 0 0 0 0 0 0 0 0 0 0 0 0 0 0 0 127 0" result="hardAlpha"/>
<feOffset dx="1.06667" dy="0.853333"/>
<feGaussianBlur stdDeviation="0.64"/>
<feColorMatrix type="matrix" values="0 0 0 0 0.768627 0 0 0 0 0.489469 0 0 0 0 0.0235294 0 0 0 0.2 0"/>
<feBlend mode="normal" in2="BackgroundImageFix" result="effect1_dropShadow_104_2477"/>
<feBlend mode="normal" in="SourceGraphic" in2="effect1_dropShadow_104_2477" result="shape"/>
</filter>
<linearGradient id="paint0_linear_104_2477" x1="33.7179" y1="29.6576" x2="38.0525" y2="30.8106" gradientUnits="userSpaceOnUse">
<stop stop-color="#BF360C" stop-opacity="0.2"/>
<stop offset="1" stop-color="#BF360C" stop-opacity="0"/>
</linearGradient>
<radialGradient id="paint1_radial_104_2477" cx="0" cy="0" r="1" gradientUnits="userSpaceOnUse" gradientTransform="translate(20.0961 20.2132) scale(21.2996 21.2996)">
<stop stop-color="white"/>
<stop offset="1" stop-color="white" stop-opacity="0"/>
</radialGradient>
</defs>
</svg>
