<svg width="24" height="24" viewBox="0 0 24 24" fill="none" xmlns="http://www.w3.org/2000/svg">
<rect width="24" height="24" rx="4" fill="#FFF156"/>
<path d="M9.49533 8.89328L5.242 9.50995L5.16666 9.52528C5.05262 9.55556 4.94866 9.61555 4.86539 9.69915C4.78212 9.78274 4.72253 9.88694 4.6927 10.0011C4.66288 10.1153 4.66388 10.2353 4.69561 10.3489C4.72735 10.4626 4.78867 10.5658 4.87333 10.6479L7.95466 13.6473L7.228 17.8839L7.21933 17.9573C7.21235 18.0752 7.23684 18.1929 7.2903 18.2983C7.34375 18.4037 7.42425 18.4929 7.52355 18.557C7.62285 18.621 7.73739 18.6575 7.85543 18.6627C7.97347 18.6679 8.09077 18.6416 8.19533 18.5866L11.9993 16.5866L15.7947 18.5866L15.8613 18.6173C15.9714 18.6606 16.091 18.6739 16.2078 18.6558C16.3247 18.6377 16.4347 18.5888 16.5264 18.5141C16.6181 18.4395 16.6884 18.3418 16.7299 18.231C16.7714 18.1203 16.7827 18.0005 16.7627 17.8839L16.0353 13.6473L19.118 10.6473L19.17 10.5906C19.2443 10.4991 19.293 10.3896 19.3111 10.2731C19.3293 10.1567 19.3163 10.0375 19.2734 9.92777C19.2305 9.818 19.1593 9.72157 19.067 9.64829C18.9747 9.57501 18.8646 9.52751 18.748 9.51062L14.4947 8.89328L12.5933 5.03995C12.5383 4.9283 12.4531 4.83429 12.3475 4.76855C12.2418 4.70281 12.1198 4.66797 11.9953 4.66797C11.8709 4.66797 11.7489 4.70281 11.6432 4.76855C11.5375 4.83429 11.4523 4.9283 11.3973 5.03995L9.49533 8.89328Z" fill="#005128"/>
</svg>
