<svg preserveAspectRatio="none" width="100%" height="100%" overflow="visible" style="display: block;" viewBox="0 0 88 88" fill="none" xmlns="http://www.w3.org/2000/svg">
<g id="fi_15758707">
<path id="Vector" fill-rule="evenodd" clip-rule="evenodd" d="M42.6578 33.9001C42.6578 32.2356 44.8909 32.3778 44.8909 33.8033C44.8907 35.468 42.6578 35.3216 42.6578 33.9001ZM46.6808 33.9001C46.6808 32.2349 48.9139 32.3791 48.9139 33.8033C48.9137 35.4668 46.6808 35.3225 46.6808 33.9001ZM38.6366 33.9001C38.6366 33.1712 39.0891 32.6867 39.7982 32.6867C40.6234 32.6867 41.1562 33.5456 40.8065 34.282C40.5944 34.7287 40.2605 35.0155 39.7521 35.0155C39.1408 35.0155 38.6366 34.5166 38.6366 33.9001ZM36.3169 31.4009V36.4332C36.3169 37.2722 37.1578 37.9815 38.154 37.9815H46.9978C48.3644 37.9815 49.5459 38.4329 50.5111 39.3237L51.2325 39.9888V31.4009C51.2325 30.5608 50.3916 29.8526 49.3965 29.8526H38.1542C37.158 29.8526 36.3169 30.5608 36.3169 31.4009ZM38.154 40.2135H46.9978C47.7954 40.2135 48.4493 40.4591 48.9966 40.9631L51.5919 43.3599C52.2996 44.012 53.4648 43.5172 53.4648 42.5387V31.4007C53.4648 29.3153 51.6389 27.6202 49.3965 27.6202H38.1542C35.9098 27.6202 34.085 29.3153 34.085 31.4007V36.4331C34.0849 38.5185 35.9096 40.2135 38.154 40.2135ZM71.9198 33.4889C70.9716 33.4889 70.2013 32.7177 70.2013 31.7694C70.2013 30.8213 70.9716 30.0509 71.9198 30.0509C72.8679 30.0509 73.6393 30.8213 73.6393 31.7694C73.6391 32.7177 72.8679 33.4889 71.9198 33.4889ZM67.0424 41.394C68.1542 41.394 69.0591 42.299 69.0591 43.4107V64.7055H18.9416V43.4107C18.9416 42.299 19.8466 41.394 20.9584 41.394H23.9721C23.5724 41.9829 23.1725 42.5651 22.7728 43.1427C22.059 44.17 22.7955 45.5817 24.0483 45.5817H28.348L29.9339 55.3039C30.4869 57.1037 32.4845 58.1354 34.3284 57.4758L37.4542 56.3592V60.3184C37.4542 60.9345 37.9546 61.4349 38.5708 61.4349H52.4535C53.0601 61.4349 53.5559 60.9495 53.5691 60.3428C53.6443 56.9726 53.9341 55.0762 55.5058 50.4879C56.5113 47.5545 58.1453 44.4483 59.1997 41.394H67.0424ZM67.0424 71.3764H20.9584C19.8466 71.3764 18.9416 70.4716 18.9416 69.3598V66.9377H69.0592V69.3598C69.0592 70.4716 68.1544 71.3764 67.0424 71.3764ZM50.5092 77.7982H36.5418C37.6837 76.5452 38.6658 75.1569 39.5087 73.6087H47.5425C48.3872 75.1578 49.3682 76.5452 50.5092 77.7982ZM29.0506 37.7472C27.7807 39.7253 26.5607 41.5689 25.3417 43.3497H28.9349C29.7523 43.3497 30.4249 43.9845 30.4832 44.7888L30.7315 46.3484L32.0869 54.7048C32.2027 55.1378 32.8745 55.626 33.5768 55.3745L38.1952 53.7238C38.9206 53.4642 39.6871 54.0033 39.6871 54.7745V59.2031H51.3725C51.5164 56.0013 51.9971 53.8396 53.3938 49.7649C54.9366 45.263 58.0744 40.1347 58.0744 35.6724C58.0744 28.0458 51.8691 21.8423 44.2425 21.8423C39.2563 21.8423 33.2834 24.9351 31.9222 30.1122C31.2194 32.7723 30.8857 34.8888 29.0506 37.7472ZM42.2815 11.9205C42.2815 10.9724 43.0519 10.201 44 10.201C44.9481 10.201 45.7195 10.9724 45.7195 11.9205C45.7195 12.8686 44.9483 13.6389 44 13.6389C43.0519 13.6389 42.2815 12.8686 42.2815 11.9205ZM16.0813 33.4889C15.1332 33.4889 14.3618 32.7177 14.3618 31.7694C14.3618 30.8213 15.1332 30.0509 16.0813 30.0509C17.0285 30.0509 17.7998 30.8213 17.7998 31.7694C17.7998 32.7177 17.0285 33.4889 16.0813 33.4889ZM19.8975 20.5262C18.9494 20.5262 18.178 19.7548 18.178 18.8077C18.178 17.8585 18.9494 17.0864 19.8975 17.0864C20.8456 17.0864 21.616 17.8587 21.616 18.8077C21.616 19.7549 20.8456 20.5262 19.8975 20.5262ZM68.1036 17.0864C69.0517 17.0864 69.8231 17.8587 69.8231 18.8077C69.8231 19.7549 69.0517 20.5262 68.1036 20.5262C67.1554 20.5262 66.3851 19.7548 66.3851 18.8077C66.3851 17.8585 67.1554 17.0864 68.1036 17.0864ZM71.9198 27.818C70.1279 27.818 68.6125 29.0164 68.1291 30.653H59.5035C58.5864 27.8735 56.9318 25.426 54.7693 23.5467L58.4348 19.9234H64.3137C64.7963 21.5611 66.3126 22.7594 68.1036 22.7594C70.283 22.7594 72.0551 20.9864 72.0551 18.8079C72.0551 16.6285 70.283 14.8544 68.1036 14.8544C66.3126 14.8544 64.7963 16.0537 64.3137 17.6913H57.9767C57.6814 17.6913 57.4001 17.8061 57.1923 18.0131L52.967 22.1896C50.6822 20.7071 47.9996 19.7882 45.1165 19.6339V15.7103C46.7542 15.2277 47.9516 13.7115 47.9516 11.9205C47.9516 9.74107 46.1794 7.96893 44 7.96893C41.8215 7.96893 40.0484 9.74107 40.0484 11.9205C40.0484 13.7115 41.2468 15.2277 42.8845 15.7103V19.675C40.2692 19.913 37.3996 20.8732 35.2042 22.3568L30.8086 18.0129C30.6008 17.8059 30.3185 17.6912 30.0242 17.6912H23.6882C23.2047 16.0535 21.6894 14.8542 19.8975 14.8542C17.7181 14.8542 15.9449 16.6283 15.9449 18.8077C15.9449 20.9862 17.7179 22.7593 19.8975 22.7593C21.6894 22.7593 23.2047 21.5609 23.6882 19.9232H29.5662L33.4182 23.7308C31.6038 25.3713 30.3338 27.3757 29.7639 29.543C29.6632 29.9239 29.571 30.2936 29.4816 30.6529H19.8722C19.3887 29.0162 17.8733 27.8179 16.0815 27.8179C13.9021 27.8179 12.1289 29.5909 12.1289 31.7694C12.1289 33.9488 13.9019 35.721 16.0815 35.721C17.8733 35.721 19.3887 34.5226 19.8722 32.886H28.8786C28.5118 34.0616 28.0312 35.2037 27.1714 36.5411C26.5948 37.4403 26.0285 38.3113 25.467 39.1607H20.9586C18.6164 39.1607 16.7089 41.0664 16.7089 43.4104V69.3598C16.7089 71.702 18.6166 73.6087 20.9586 73.6087H36.9248C35.9323 75.1935 34.753 76.5772 33.3552 77.7982H24.4784C23.8614 77.7982 23.3629 78.2976 23.3629 78.9147C23.3629 79.5309 23.8616 80.0312 24.4784 80.0312H62.5747C63.1909 80.0312 63.6904 79.5309 63.6904 78.9147C63.6904 78.2976 63.1909 77.7982 62.5747 77.7982H53.6962C52.2984 76.5772 51.1199 75.1935 50.1274 73.6087H67.0426C69.3848 73.6087 71.2914 71.702 71.2914 69.3598V43.4107C71.2914 41.0668 69.3848 39.1611 67.0426 39.1611H59.8609C60.3807 36.9963 60.4449 35.0486 60.0651 32.8861H68.1291C68.6125 34.5227 70.1279 35.7211 71.9198 35.7211C74.0992 35.7211 75.8713 33.949 75.8713 31.7696C75.8713 29.5911 74.0992 27.818 71.9198 27.818Z" fill="var(--fill-0, #005128)"/>
</g>
</svg>
