<svg preserveAspectRatio="none" width="100%" height="100%" overflow="visible" style="display: block;" viewBox="0 0 80 80" fill="none" xmlns="http://www.w3.org/2000/svg">
<g id="XMLID_969_">
<path id="Union" d="M45.1562 0C46.019 4.65512e-05 46.7188 0.69956 46.7188 1.5625C46.7188 2.42544 46.019 3.12495 45.1562 3.125H32.6621C29.8156 3.12501 27.5001 5.44066 27.5 8.28711V33.5879C27.5001 36.4343 29.8156 38.75 32.6621 38.75H60C60.372 38.75 60.7319 38.8825 61.0146 39.124L70.1504 46.9238V40.3125C70.1504 39.4495 70.8501 38.75 71.7129 38.75C74.5593 38.7498 76.875 36.4341 76.875 33.5879V8.28711C76.8749 5.44073 74.5593 3.12512 71.7129 3.125H59.2188C58.3559 3.125 57.6562 2.42547 57.6562 1.5625C57.6562 0.699531 58.3559 0 59.2188 0H71.7129C76.2822 0.000116085 79.9997 3.7176 80 8.28711V33.5879C80 37.6233 77.1003 40.9946 73.2754 41.7275V50.3125C73.2754 50.9221 72.9206 51.4761 72.3672 51.7314C72.158 51.8278 71.9346 51.875 71.7129 51.875C71.3478 51.8752 70.9868 51.7472 70.6982 51.501L59.4238 41.875H55.625V61.7129C55.6249 66.2824 51.9073 69.9998 47.3379 70H20.5762L9.30176 79.626C9.01321 79.8723 8.65217 80 8.28711 80C8.06539 80 7.84203 79.9529 7.63281 79.8564C7.07928 79.6011 6.72461 79.0472 6.72461 78.4375V69.8525C2.89965 69.1196 3.70038e-05 65.7483 0 61.7129V36.4121C0.000127241 31.8425 3.71769 28.125 8.28711 28.125H24.375V8.28711C24.3751 3.71753 28.0927 8.10821e-06 32.6621 0H45.1562ZM8.28711 31.25C5.44066 31.25 3.12513 33.5657 3.125 36.4121V61.7129C3.12513 64.5593 5.44066 66.875 8.28711 66.875C9.14992 66.875 9.84961 67.5745 9.84961 68.4375V75.0488L18.9854 67.249C19.2682 67.0075 19.628 66.875 20 66.875H47.3379C50.1843 66.8749 52.4999 64.5593 52.5 61.7129V41.875H32.6621C31.8698 41.875 31.1032 41.7604 30.377 41.5518L36.3047 57.2598C36.6093 58.067 36.2026 58.9686 35.3955 59.2734C35.2138 59.342 35.027 59.374 34.8438 59.374C34.2123 59.374 33.618 58.9889 33.3818 58.3633L32.1123 55H23.5234L22.2412 58.3672C21.934 59.1736 21.031 59.5785 20.2246 59.2715C19.4184 58.9642 19.0143 58.0621 19.3213 57.2559L26.0088 39.6953C26.0132 39.6833 26.0186 39.6711 26.0234 39.6592C26.12 39.4233 26.2585 39.214 26.4277 39.0381C25.1515 37.5799 24.3751 35.6734 24.375 33.5879V31.25H8.28711ZM24.7139 51.875H30.9336L27.8379 43.6729L24.7139 51.875ZM52 8C52.8606 8 53.5586 8.70588 53.5586 9.57617V13.6729H62.4414C63.3018 13.6729 63.9998 14.378 64 15.248C64 16.1183 63.302 16.8242 62.4414 16.8242H57.3184C57.3078 20.5755 56.1034 24.0792 54.0527 26.9395C56.1774 29.0337 58.9608 30.463 62.0898 30.8604C62.9439 30.9686 63.5494 31.7567 63.4424 32.6201C63.3434 33.4168 62.6725 33.9999 61.8984 34C61.8336 34 61.7681 33.9957 61.7021 33.9873C57.9379 33.5095 54.5808 31.8113 52 29.3174C49.4192 31.8113 46.0621 33.5095 42.2979 33.9873C42.2321 33.9956 42.1662 34 42.1016 34C41.3275 33.9998 40.6566 33.4168 40.5576 32.6201C40.4506 31.7569 41.0562 30.9688 41.9102 30.8604C45.0393 30.4631 47.8224 29.0336 49.9473 26.9395C47.8965 24.0794 46.6932 20.5754 46.6826 16.8242H41.5586C40.698 16.8242 40 16.1183 40 15.248C40.0002 14.378 40.6982 13.6729 41.5586 13.6729H50.4414V9.57617C50.4414 8.70588 51.1394 8 52 8ZM49.7998 16.8242C49.8093 19.5898 50.6128 22.1895 52 24.3887C53.3872 22.1895 54.1908 19.5898 54.2002 16.8242H49.7998ZM52.5 0C52.8945 0 53.2817 0.160453 53.5605 0.439453C53.8397 0.718447 54 1.10554 54 1.5C54 1.89446 53.8397 2.28155 53.5605 2.56055C53.2817 2.83955 52.8945 3 52.5 3C52.1055 3 51.7186 2.83955 51.4395 2.56055C51.1603 2.28155 51 1.8945 51 1.5C51 1.1055 51.1603 0.718453 51.4395 0.439453C51.7185 0.160453 52.1055 1.61665e-08 52.5 0Z" fill="var(--fill-0, #005128)"/>
</g>
</svg>
