<svg preserveAspectRatio="none" width="100%" height="100%" overflow="visible" style="display: block;" viewBox="0 0 73.334 80" fill="none" xmlns="http://www.w3.org/2000/svg">
<g id="Group">
<path id="Union" d="M36.667 0C40.3435 0.000176305 43.333 2.99043 43.333 6.66699V10.9707C52.9618 13.8455 60.0008 22.7818 60.001 33.333V43.46C60.001 50.3033 62.9979 56.7601 68.2246 61.1768C69.3644 62.1534 70.001 63.5368 70.001 65C70.001 67.7566 67.7609 69.9999 65.001 70H48.2119C47.4007 75.6464 42.5343 79.9998 36.667 80C30.7995 80 25.9323 75.6465 25.1211 70H8.33398C5.57742 69.9999 3.33399 67.7566 3.33398 65C3.33398 63.5368 3.97079 62.1535 5.08398 61.2002C10.3373 56.7602 13.334 50.3 13.334 43.46V33.333C13.3341 22.7826 20.3724 13.8472 30 10.9717V6.66699C30 2.99033 32.9903 0 36.667 0ZM28.501 70C29.2757 73.7981 32.6442 76.667 36.667 76.667C40.6896 76.6668 44.0573 73.798 44.832 70H28.501ZM36.668 13.333C35.1515 13.333 33.6736 13.5031 32.2529 13.8242C32.1202 13.8743 31.9803 13.9102 31.834 13.9248C23.1326 16.0916 16.6681 23.9694 16.668 33.333V43.46C16.668 51.2866 13.2412 58.6703 7.26465 63.7236C6.88132 64.0503 6.66797 64.5133 6.66797 65C6.66797 65.9199 7.41409 66.6669 8.33398 66.667H65.001C65.9209 66.6669 66.668 65.92 66.668 65C66.668 64.5133 66.454 64.0501 66.084 63.7334C60.0974 58.6701 56.668 51.2832 56.668 43.46V33.333C56.6678 23.9693 50.2025 16.0916 41.501 13.9248C41.353 13.9102 41.2112 13.875 41.0771 13.8242C39.6581 13.5038 38.1826 13.333 36.668 13.333ZM11.7168 5.0498C12.3668 4.40002 13.4233 4.4 14.0732 5.0498C14.7232 5.69975 14.7231 6.75624 14.0732 7.40625C7.14665 14.3295 3.33309 23.5398 3.33301 33.333C3.33301 34.2529 2.58684 34.9998 1.66699 35C0.746992 35 0 34.253 0 33.333C8.56962e-05 22.6465 4.16021 12.6031 11.7168 5.0498ZM59.2607 5.0498C59.9106 4.39991 60.9672 4.40011 61.6172 5.0498C69.1738 12.6031 73.3339 22.6465 73.334 33.333C73.334 34.2529 72.5878 34.9998 71.668 35C70.748 35 70.001 34.253 70.001 33.333C70.0009 23.5398 66.1873 14.3295 59.2607 7.40625C58.611 6.75622 58.6108 5.6997 59.2607 5.0498ZM36.667 3.33301C34.8303 3.33301 33.333 4.83033 33.333 6.66699V10.2393C34.4224 10.0827 35.536 10 36.668 10C37.7991 10 38.9115 10.082 40 10.2383V6.66699C40 4.83043 38.5035 3.33318 36.667 3.33301Z" fill="var(--fill-0, #005128)"/>
</g>
</svg>
